Literata-M0Italic.ufo
<glyph name="numbersign" format="2">
	<unicode hex="0023"/>
	<advance width="679"/>
	<outline>
		<contour>
			<point x="149" y="0" type="line"/>
			<point x="203" y="0" type="line"/>
			<point x="229" y="140" type="line"/>
			<point x="414" y="140" type="line"/>
			<point x="388" y="0" type="line"/>
			<point x="442" y="0" type="line"/>
			<point x="468" y="140" type="line"/>
			<point x="597" y="140" type="line"/>
			<point x="608" y="191" type="line"/>
			<point x="478" y="191" type="line"/>
			<point x="511" y="367" type="line"/>
			<point x="634" y="367" type="line"/>
			<point x="645" y="419" type="line"/>
			<point x="520" y="419" type="line"/>
			<point x="545" y="550" type="line"/>
			<point x="490" y="550" type="line"/>
			<point x="466" y="419" type="line"/>
			<point x="282" y="419" type="line"/>
			<point x="307" y="550" type="line"/>
			<point x="253" y="550" type="line"/>
			<point x="228" y="419" type="line"/>
			<point x="105" y="419" type="line"/>
			<point x="93" y="367" type="line"/>
			<point x="218" y="367" type="line"/>
			<point x="185" y="191" type="line"/>
			<point x="64" y="191" type="line"/>
			<point x="51" y="140" type="line"/>
			<point x="174" y="140" type="line"/>
		</contour>
		<contour>
			<point x="271" y="367" type="line"/>
			<point x="457" y="367" type="line"/>
			<point x="424" y="191" type="line"/>
			<point x="239" y="191" type="line"/>
		</contour>
	</outline>
</glyph>
<glyph name="percent" format="2">
	<unicode hex="0025"/>
	<advance width="827"/>
	<outline>
		<contour>
			<point x="569" y="597" type="line"/>
			<point x="187" y="-11" type="line"/>
			<point x="257" y="-11" type="line"/>
			<point x="638" y="597" type="line"/>
		</contour>
		<contour>
			<point x="51" y="429" type="curve" smooth="yes"/>
			<point x="51" y="339"/>
			<point x="103" y="274"/>
			<point x="193" y="274" type="curve" smooth="yes"/>
			<point x="278" y="274"/>
			<point x="349" y="333"/>
			<point x="349" y="443" type="curve" smooth="yes"/>
			<point x="349" y="551"/>
			<point x="281" y="597"/>
			<point x="209" y="597" type="curve" smooth="yes"/>
			<point x="131" y="597"/>
			<point x="51" y="553"/>
		</contour>
		<contour>
			<point x="124" y="433" type="curve" smooth="yes"/>
			<point x="124" y="511"/>
			<point x="156" y="547"/>
			<point x="200" y="547" type="curve" smooth="yes"/>
			<point x="251" y="547"/>
			<point x="275" y="506"/>
			<point x="275" y="442" type="curve" smooth="yes"/>
			<point x="275" y="363"/>
			<point x="246" y="326"/>
			<point x="199" y="326" type="curve" smooth="yes"/>
			<point x="147" y="326"/>
			<point x="124" y="375"/>
		</contour>
		<contour>
			<point x="474" y="144" type="curve" smooth="yes"/>
			<point x="474" y="54"/>
			<point x="526" y="-11"/>
			<point x="616" y="-11" type="curve" smooth="yes"/>
			<point x="701" y="-11"/>
			<point x="772" y="48"/>
			<point x="772" y="158" type="curve" smooth="yes"/>
			<point x="772" y="266"/>
			<point x="704" y="312"/>
			<point x="632" y="312" type="curve" smooth="yes"/>
			<point x="554" y="312"/>
			<point x="474" y="268"/>
		</contour>
		<contour>
			<point x="547" y="148" type="curve" smooth="yes"/>
			<point x="547" y="226"/>
			<point x="579" y="262"/>
			<point x="623" y="262" type="curve" smooth="yes"/>
			<point x="674" y="262"/>
			<point x="698" y="221"/>
			<point x="698" y="157" type="curve" smooth="yes"/>
			<point x="698" y="78"/>
			<point x="669" y="41"/>
			<point x="622" y="41" type="curve" smooth="yes"/>
			<point x="570" y="41"/>
			<point x="547" y="90"/>
		</contour>
	</outline>
</glyph>
<glyph name="quotesingle" format="2">
	<unicode hex="0027"/>
	<advance width="251"/>
	<outline>
		<contour>
			<point x="155" y="547" type="line"/>
			<point x="194" y="717" type="line" smooth="yes"/>
			<point x="197" y="728"/>
			<point x="198" y="736"/>
			<point x="198" y="743" type="curve" smooth="yes"/>
			<point x="199" y="766"/>
			<point x="178" y="780"/>
			<point x="159" y="780" type="curve" smooth="yes"/>
			<point x="126" y="780"/>
			<point x="104" y="753"/>
			<point x="103" y="724" type="curve" smooth="yes"/>
			<point x="102" y="718"/>
			<point x="102" y="712"/>
			<point x="103" y="705" type="curve" smooth="yes"/>
			<point x="121" y="547" type="line"/>
		</contour>
	</outline>
</glyph>
<glyph name="parenright" format="2">
	<unicode hex="0029"/>
	<advance width="329"/>
	<outline>
		<contour>
			<point x="265" y="325" type="curve"/>
			<point x="265" y="533"/>
			<point x="169" y="726"/>
			<point x="96" y="811" type="curve"/>
			<point x="59" y="790" type="line"/>
			<point x="116" y="672"/>
			<point x="171" y="496"/>
			<point x="171" y="327" type="curve" smooth="yes"/>
			<point x="171" y="151"/>
			<point x="119" y="-30"/>
			<point x="20" y="-190" type="curve"/>
			<point x="56" y="-210" type="line"/>
			<point x="191" y="-53"/>
			<point x="265" y="141"/>
		</contour>
	</outline>
</glyph>
<glyph name="zero" format="2">
	<unicode hex="0030"/>
	<advance width="572"/>
	<outline>
		<contour>
			<point x="50" y="303" type="curve" smooth="yes"/>
			<point x="50" y="104"/>
			<point x="134" y="-13"/>
			<point x="278" y="-13" type="curve" smooth="yes"/>
			<point x="439" y="-13"/>
			<point x="549" y="155"/>
			<point x="549" y="401" type="curve" smooth="yes"/>
			<point x="549" y="597"/>
			<point x="465" y="714"/>
			<point x="326" y="714" type="curve" smooth="yes"/>
			<point x="158" y="714"/>
			<point x="50" y="553"/>
		</contour>
		<contour>
			<point x="312" y="662" type="curve" smooth="yes"/>
			<point x="406" y="662"/>
			<point x="452" y="576"/>
			<point x="452" y="402" type="curve" smooth="yes"/>
			<point x="452" y="173"/>
			<point x="393" y="42"/>
			<point x="291" y="42" type="curve" smooth="yes"/>
			<point x="197" y="42"/>
			<point x="146" y="137"/>
			<point x="146" y="311" type="curve" smooth="yes"/>
			<point x="146" y="534"/>
			<point x="207" y="662"/>
		</contour>
	</outline>
</glyph>
<glyph name="one" format="2">
	<unicode hex="0031"/>
	<advance width="381"/>
	<outline>
		<contour>
			<point x="177" y="636" type="line"/>
			<point x="157" y="62" type="line"/>
			<point x="41" y="46" type="line"/>
			<point x="35" y="0" type="line"/>
			<point x="345" y="0" type="line"/>
			<point x="351" y="47" type="line"/>
			<point x="242" y="63" type="line"/>
			<point x="265" y="702" type="line"/>
			<point x="248" y="712" type="line"/>
			<point x="57" y="687" type="line"/>
			<point x="50" y="636" type="line"/>
		</contour>
	</outline>
</glyph>
<glyph name="two" format="2">
	<unicode hex="0032"/>
	<advance width="516"/>
	<outline>
		<contour>
			<point x="40" y="561" type="curve" smooth="yes"/>
			<point x="40" y="524"/>
			<point x="65" y="500"/>
			<point x="104" y="500" type="curve" smooth="yes"/>
			<point x="130" y="500"/>
			<point x="155" y="516"/>
			<point x="166" y="542" type="curve"/>
			<point x="145" y="566" type="line" smooth="yes"/>
			<point x="106" y="610"/>
			<point x="157" y="663"/>
			<point x="238" y="663" type="curve" smooth="yes"/>
			<point x="310" y="663"/>
			<point x="358" y="610"/>
			<point x="358" y="532" type="curve" smooth="yes"/>
			<point x="358" y="421"/>
			<point x="282" y="309"/>
			<point x="43" y="69" type="curve"/>
			<point x="51" y="0" type="line"/>
			<point x="466" y="0" type="line"/>
			<point x="491" y="192" type="line"/>
			<point x="440" y="192" type="line"/>
			<point x="410" y="94"/>
			<point x="386" y="73"/>
			<point x="305" y="73" type="curve" smooth="yes"/>
			<point x="133" y="73" type="line"/>
			<point x="133" y="78" type="line"/>
			<point x="416" y="364"/>
			<point x="454" y="418"/>
			<point x="454" y="532" type="curve" smooth="yes"/>
			<point x="454" y="644"/>
			<point x="374" y="715"/>
			<point x="249" y="715" type="curve" smooth="yes"/>
			<point x="136" y="715"/>
			<point x="40" y="644"/>
		</contour>
	</outline>
</glyph>
<glyph name="three" format="2">
	<unicode hex="0033"/>
	<advance width="525"/>
	<outline>
		<contour>
			<point x="465" y="557" type="curve" smooth="yes"/>
			<point x="465" y="657"/>
			<point x="393" y="715"/>
			<point x="268" y="715" type="curve" smooth="yes"/>
			<point x="155" y="715"/>
			<point x="64" y="651"/>
			<point x="64" y="571" type="curve" smooth="yes"/>
			<point x="64" y="533"/>
			<point x="87" y="510"/>
			<point x="125" y="510" type="curve" smooth="yes"/>
			<point x="151" y="510"/>
			<point x="176" y="526"/>
			<point x="187" y="552" type="curve"/>
			<point x="166" y="576" type="line" smooth="yes"/>
			<point x="127" y="620"/>
			<point x="168" y="663"/>
			<point x="249" y="663" type="curve" smooth="yes"/>
			<point x="330" y="663"/>
			<point x="374" y="623"/>
			<point x="374" y="550" type="curve" smooth="yes"/>
			<point x="374" y="457"/>
			<point x="300" y="394"/>
			<point x="174" y="379" type="curve"/>
			<point x="181" y="330" type="line"/>
			<point x="202" y="334"/>
			<point x="227" y="336"/>
			<point x="252" y="336" type="curve" smooth="yes"/>
			<point x="342" y="336"/>
			<point x="389" y="295"/>
			<point x="389" y="217" type="curve" smooth="yes"/>
			<point x="389" y="111"/>
			<point x="315" y="39"/>
			<point x="206" y="39" type="curve" smooth="yes"/>
			<point x="147" y="39"/>
			<point x="118" y="70"/>
			<point x="141" y="109" type="curve" smooth="yes"/>
			<point x="157" y="136" type="line"/>
			<point x="145" y="155"/>
			<point x="124" y="167"/>
			<point x="102" y="167" type="curve" smooth="yes"/>
			<point x="63" y="167"/>
			<point x="34" y="137"/>
			<point x="34" y="98" type="curve" smooth="yes"/>
			<point x="34" y="31"/>
			<point x="102" y="-14"/>
			<point x="203" y="-14" type="curve" smooth="yes"/>
			<point x="366" y="-14"/>
			<point x="493" y="88"/>
			<point x="493" y="219" type="curve" smooth="yes"/>
			<point x="493" y="313"/>
			<point x="439" y="364"/>
			<point x="329" y="376" type="curve"/>
			<point x="329" y="384" type="line"/>
			<point x="414" y="417"/>
			<point x="465" y="481"/>
		</contour>
	</outline>
</glyph>
<glyph name="seven" format="2">
	<unicode hex="0037"/>
	<advance width="518"/>
	<outline>
		<contour>
			<point x="154" y="0" type="line"/>
			<point x="261" y="0" type="line"/>
			<point x="519" y="649" type="line"/>
			<point x="511" y="700" type="line"/>
			<point x="66" y="700" type="line"/>
			<point x="40" y="510" type="line"/>
			<point x="91" y="502" type="line"/>
			<point x="107" y="555" type="line" smooth="yes"/>
			<point x="121" y="600"/>
			<point x="140" y="613"/>
			<point x="190" y="613" type="curve" smooth="yes"/>
			<point x="447" y="613" type="line"/>
			<point x="148" y="10" type="line"/>
		</contour>
	</outline>
</glyph>
<glyph name="eight" format="2">
	<unicode hex="0038"/>
	<advance width="533"/>
	<outline>
		<contour>
			<point x="46" y="167" type="curve" smooth="yes"/>
			<point x="46" y="60"/>
			<point x="135" y="-14"/>
			<point x="264" y="-14" type="curve" smooth="yes"/>
			<point x="403" y="-14"/>
			<point x="505" y="75"/>
			<point x="505" y="196" type="curve" smooth="yes"/>
			<point x="505" y="282"/>
			<point x="467" y="332"/>
			<point x="365" y="385" type="curve"/>
			<point x="447" y="435"/>
			<point x="489" y="496"/>
			<point x="489" y="564" type="curve" smooth="yes"/>
			<point x="489" y="654"/>
			<point x="414" y="715"/>
			<point x="302" y="715" type="curve" smooth="yes"/>
			<point x="172" y="715"/>
			<point x="85" y="643"/>
			<point x="85" y="536" type="curve" smooth="yes"/>
			<point x="85" y="467"/>
			<point x="120" y="416"/>
			<point x="196" y="372" type="curve"/>
			<point x="97" y="321"/>
			<point x="46" y="252"/>
		</contour>
		<contour>
			<point x="245" y="348" type="curve"/>
			<point x="392" y="275"/>
			<point x="412" y="256"/>
			<point x="412" y="188" type="curve" smooth="yes"/>
			<point x="412" y="98"/>
			<point x="359" y="44"/>
			<point x="271" y="44" type="curve" smooth="yes"/>
			<point x="188" y="44"/>
			<point x="137" y="96"/>
			<point x="137" y="182" type="curve" smooth="yes"/>
			<point x="137" y="251"/>
			<point x="170" y="302"/>
		</contour>
		<contour>
			<point x="170" y="552" type="curve" smooth="yes"/>
			<point x="170" y="620"/>
			<point x="218" y="660"/>
			<point x="297" y="660" type="curve" smooth="yes"/>
			<point x="366" y="660"/>
			<point x="409" y="618"/>
			<point x="409" y="551" type="curve" smooth="yes"/>
			<point x="409" y="498"/>
			<point x="379" y="455"/>
			<point x="311" y="410" type="curve"/>
			<point x="205" y="458"/>
			<point x="170" y="493"/>
		</contour>
	</outline>
</glyph>
<glyph name="nine" format="2">
	<unicode hex="0039"/>
	<advance width="530"/>
	<outline>
		<contour>
			<point x="228" y="-14" type="curve" smooth="yes"/>
			<point x="407" y="-14"/>
			<point x="506" y="143"/>
			<point x="506" y="427" type="curve" smooth="yes"/>
			<point x="506" y="611"/>
			<point x="428" y="715"/>
			<point x="291" y="715" type="curve" smooth="yes"/>
			<point x="152" y="715"/>
			<point x="54" y="603"/>
			<point x="54" y="445" type="curve" smooth="yes"/>
			<point x="54" y="323"/>
			<point x="116" y="250"/>
			<point x="220" y="250" type="curve" smooth="yes"/>
			<point x="283" y="250"/>
			<point x="344" y="284"/>
			<point x="416" y="359" type="curve"/>
			<point x="420" y="356" type="line"/>
			<point x="406" y="161"/>
			<point x="337" y="52"/>
			<point x="228" y="52" type="curve" smooth="yes"/>
			<point x="179" y="52"/>
			<point x="124" y="80"/>
			<point x="81" y="127" type="curve"/>
			<point x="44" y="91" type="line"/>
			<point x="79" y="31"/>
			<point x="159" y="-14"/>
		</contour>
		<contour>
			<point x="241" y="315" type="curve" smooth="yes"/>
			<point x="180" y="315"/>
			<point x="147" y="365"/>
			<point x="147" y="458" type="curve" smooth="yes"/>
			<point x="147" y="580"/>
			<point x="203" y="659"/>
			<point x="289" y="659" type="curve" smooth="yes"/>
			<point x="366" y="659"/>
			<point x="419" y="564"/>
			<point x="416" y="431" type="curve"/>
			<point x="367" y="364"/>
			<point x="293" y="315"/>
		</contour>
	</outline>
</glyph>
<glyph name="greater" format="2">
	<unicode hex="003E"/>
	<advance width="582"/>
	<outline>
		<contour>
			<point x="131" y="37" type="line"/>
			<point x="517" y="263" type="line"/>
			<point x="518" y="305" type="line"/>
			<point x="148" y="532" type="line"/>
			<point x="116" y="480" type="line"/>
			<point x="439" y="285" type="line"/>
			<point x="103" y="91" type="line"/>
		</contour>
	</outline>
</glyph>
<glyph name="at" format="2">
	<unicode hex="0040"/>
	<advance width="861"/>
	<outline>
		<contour>
			<point x="422" y="-183" type="curve" smooth="yes"/>
			<point x="523" y="-183"/>
			<point x="605" y="-153"/>
			<point x="665" y="-95" type="curve"/>
			<point x="633" y="-56" type="line"/>
			<point x="580" y="-99"/>
			<point x="522" y="-128"/>
			<point x="426" y="-128" type="curve" smooth="yes"/>
			<point x="295" y="-128"/>
			<point x="131" y="-55"/>
			<point x="131" y="186" type="curve" smooth="yes"/>
			<point x="131" y="398"/>
			<point x="272" y="514"/>
			<point x="452" y="514" type="curve" smooth="yes"/>
			<point x="653" y="514"/>
			<point x="746" y="409"/>
			<point x="746" y="237" type="curve" smooth="yes"/>
			<point x="746" y="112"/>
			<point x="691" y="44"/>
			<point x="631" y="44" type="curve" smooth="yes"/>
			<point x="600" y="44"/>
			<point x="595" y="52"/>
			<point x="597" y="101" type="curve" smooth="yes"/>
			<point x="607" y="388" type="line"/>
			<point x="593" y="394" type="line"/>
			<point x="541" y="372" type="line"/>
			<point x="514" y="387"/>
			<point x="477" y="395"/>
			<point x="437" y="395" type="curve" smooth="yes"/>
			<point x="336" y="395"/>
			<point x="243" y="323"/>
			<point x="243" y="147" type="curve" smooth="yes"/>
			<point x="243" y="56"/>
			<point x="278" y="-11"/>
			<point x="376" y="-11" type="curve" smooth="yes"/>
			<point x="436" y="-11"/>
			<point x="485" y="39"/>
			<point x="513" y="137" type="curve" smooth="yes"/>
			<point x="534" y="210" type="line"/>
			<point x="538" y="210" type="line"/>
			<point x="532" y="83" type="line" smooth="yes"/>
			<point x="529" y="24"/>
			<point x="536" y="-11"/>
			<point x="606" y="-11" type="curve" smooth="yes"/>
			<point x="712" y="-11"/>
			<point x="807" y="67"/>
			<point x="807" y="244" type="curve" smooth="yes"/>
			<point x="807" y="461"/>
			<point x="667" y="568"/>
			<point x="452" y="568" type="curve" smooth="yes"/>
			<point x="208" y="568"/>
			<point x="66" y="401"/>
			<point x="66" y="184" type="curve" smooth="yes"/>
			<point x="66" y="-75"/>
			<point x="237" y="-183"/>
		</contour>
		<contour>
			<point x="385" y="52" type="curve" smooth="yes"/>
			<point x="338" y="52"/>
			<point x="323" y="92"/>
			<point x="323" y="153" type="curve" smooth="yes"/>
			<point x="323" y="249"/>
			<point x="358" y="347"/>
			<point x="447" y="347" type="curve" smooth="yes"/>
			<point x="475" y="347"/>
			<point x="507" y="340"/>
			<point x="529" y="330" type="curve"/>
			<point x="497" y="223" type="line" smooth="yes"/>
			<point x="469" y="130"/>
			<point x="439" y="52"/>
		</contour>
	</outline>
</glyph>
<glyph name="A" format="2">
	<unicode hex="0041"/>
	<advance width="691"/>
	<outline>
		<contour>
			<point x="425" y="706" type="line"/>
			<point x="326" y="695" type="line"/>
			<point x="97" y="58" type="line"/>
			<point x="18" y="46" type="line"/>
			<point x="12" y="0" type="line"/>
			<point x="246" y="0" type="line"/>
			<point x="252" y="46" type="line"/>
			<point x="161" y="58" type="line"/>
			<point x="221" y="231" type="line"/>
			<point x="461" y="231" type="line"/>
			<point x="507" y="58" type="line"/>
			<point x="426" y="46" type="line"/>
			<point x="420" y="0" type="line"/>
			<point x="686" y="0" type="line"/>
			<point x="692" y="46" type="line"/>
			<point x="607" y="57" type="line"/>
		</contour>
		<contour>
			<point x="241" y="288" type="line"/>
			<point x="356" y="619" type="line"/>
			<point x="359" y="619" type="line"/>
			<point x="446" y="288" type="line"/>
		</contour>
	</outline>
	<anchor name="bottom" x="335" y="-30"/>
	<anchor name="top" x="377" y="730"/>
</glyph>
<glyph name="B" format="2">
	<unicode hex="0042"/>
	<advance width="616"/>
	<outline>
		<contour>
			<point x="564" y="549" type="curve" smooth="yes"/>
			<point x="564" y="651"/>
			<point x="484" y="700"/>
			<point x="317" y="700" type="curve" smooth="yes"/>
			<point x="90" y="700" type="line"/>
			<point x="84" y="654" type="line"/>
			<point x="171" y="637" type="line"/>
			<point x="146" y="60" type="line"/>
			<point x="57" y="44" type="line"/>
			<point x="52" y="0" type="line"/>
			<point x="286" y="0" type="line" smooth="yes"/>
			<point x="478" y="0"/>
			<point x="592" y="76"/>
			<point x="592" y="205" type="curve" smooth="yes"/>
			<point x="592" y="297"/>
			<point x="531" y="353"/>
			<point x="415" y="369" type="curve"/>
			<point x="415" y="374" type="line"/>
			<point x="507" y="408"/>
			<point x="564" y="475"/>
		</contour>
		<contour>
			<point x="292" y="378" type="curve"/>
			<point x="290" y="328" type="line"/>
			<point x="314" y="333"/>
			<point x="327" y="334"/>
			<point x="350" y="334" type="curve" smooth="yes"/>
			<point x="445" y="334"/>
			<point x="495" y="291"/>
			<point x="495" y="208" type="curve" smooth="yes"/>
			<point x="495" y="106"/>
			<point x="428" y="54"/>
			<point x="298" y="54" type="curve" smooth="yes"/>
			<point x="234" y="54" type="line"/>
			<point x="257" y="646" type="line"/>
			<point x="308" y="646" type="line" smooth="yes"/>
			<point x="419" y="646"/>
			<point x="467" y="613"/>
			<point x="467" y="537" type="curve" smooth="yes"/>
			<point x="467" y="450"/>
			<point x="408" y="396"/>
		</contour>
	</outline>
</glyph>
<glyph name="D" format="2">
	<unicode hex="0044"/>
	<advance width="736"/>
	<outline>
		<contour>
			<point x="52" y="0" type="line"/>
			<point x="270" y="0" type="line" smooth="yes"/>
			<point x="539" y="0"/>
			<point x="695" y="144"/>
			<point x="695" y="392" type="curve" smooth="yes"/>
			<point x="695" y="588"/>
			<point x="572" y="700"/>
			<point x="357" y="700" type="curve" smooth="yes"/>
			<point x="90" y="700" type="line"/>
			<point x="84" y="654" type="line"/>
			<point x="171" y="637" type="line"/>
			<point x="146" y="60" type="line"/>
			<point x="57" y="45" type="line"/>
		</contour>
		<contour>
			<point x="234" y="55" type="line"/>
			<point x="257" y="646" type="line"/>
			<point x="346" y="646" type="line" smooth="yes"/>
			<point x="506" y="646"/>
			<point x="598" y="550"/>
			<point x="598" y="383" type="curve" smooth="yes"/>
			<point x="598" y="171"/>
			<point x="479" y="55"/>
			<point x="262" y="55" type="curve" smooth="yes"/>
		</contour>
	</outline>
	<anchor name="bottom" x="350" y="-30"/>
	<anchor name="top" x="365" y="730"/>
</glyph>
<glyph name="E" format="2">
	<unicode hex="0045"/>
	<advance width="593"/>
	<outline>
		<contour>
			<point x="163" y="637" type="line"/>
			<point x="140" y="59" type="line"/>
			<point x="58" y="46" type="line"/>
			<point x="52" y="0" type="line"/>
			<point x="531" y="0" type="line"/>
			<point x="555" y="184" type="line"/>
			<point x="500" y="184" type="line"/>
			<point x="486" y="143" type="line" smooth="yes"/>
			<point x="461" y="69"/>
			<point x="435" y="58"/>
			<point x="383" y="58" type="curve" smooth="yes"/>
			<point x="226" y="58" type="line"/>
			<point x="237" y="328" type="line"/>
			<point x="484" y="328" type="line"/>
			<point x="489" y="391" type="line"/>
			<point x="240" y="391" type="line"/>
			<point x="250" y="643" type="line"/>
			<point x="389" y="643" type="line" smooth="yes"/>
			<point x="447" y="643"/>
			<point x="464" y="628"/>
			<point x="485" y="559" type="curve" smooth="yes"/>
			<point x="496" y="523" type="line"/>
			<point x="551" y="532" type="line"/>
			<point x="537" y="700" type="line"/>
			<point x="83" y="700" type="line"/>
			<point x="77" y="654" type="line"/>
		</contour>
	</outline>
	<anchor name="bottom" x="309" y="-30"/>
	<anchor name="top" x="339" y="730"/>
</glyph>
<glyph name="G" format="2">
	<unicode hex="0047"/>
	<advance width="642"/>
	<outline>
		<contour>
			<point x="600" y="332" type="line"/>
			<point x="431" y="332" type="line"/>
			<point x="425" y="286" type="line"/>
			<point x="510" y="266" type="line"/>
			<point x="503" y="88" type="line"/>
			<point x="468" y="65"/>
			<point x="415" y="51"/>
			<point x="363" y="51" type="curve" smooth="yes"/>
			<point x="235" y="51"/>
			<point x="153" y="161"/>
			<point x="153" y="333" type="curve" smooth="yes"/>
			<point x="153" y="535"/>
			<point x="240" y="652"/>
			<point x="391" y="652" type="curve" smooth="yes"/>
			<point x="480" y="652"/>
			<point x="531" y="617"/>
			<point x="508" y="571" type="curve" smooth="yes"/>
			<point x="491" y="537" type="line"/>
			<point x="510" y="518"/>
			<point x="536" y="507"/>
			<point x="563" y="507" type="curve" smooth="yes"/>
			<point x="595" y="507"/>
			<point x="618" y="531"/>
			<point x="618" y="566" type="curve" smooth="yes"/>
			<point x="618" y="650"/>
			<point x="520" y="715"/>
			<point x="392" y="715" type="curve" smooth="yes"/>
			<point x="189" y="715"/>
			<point x="59" y="562"/>
			<point x="59" y="325" type="curve" smooth="yes"/>
			<point x="59" y="118"/>
			<point x="176" y="-14"/>
			<point x="359" y="-14" type="curve" smooth="yes"/>
			<point x="436" y="-14"/>
			<point x="530" y="16"/>
			<point x="588" y="59" type="curve"/>
		</contour>
	</outline>
	<anchor name="bottom" x="357" y="-30"/>
	<anchor name="top" x="379" y="730"/>
</glyph>
<glyph name="I" format="2">
	<unicode hex="0049"/>
	<advance width="359"/>
	<outline>
		<contour>
			<point x="165" y="637" type="line"/>
			<point x="140" y="59" type="line"/>
			<point x="58" y="46" type="line"/>
			<point x="52" y="0" type="line"/>
			<point x="317" y="0" type="line"/>
			<point x="323" y="46" type="line"/>
			<point x="228" y="59" type="line"/>
			<point x="250" y="637" type="line"/>
			<point x="335" y="654" type="line"/>
			<point x="341" y="700" type="line"/>
			<point x="85" y="700" type="line"/>
			<point x="79" y="654" type="line"/>
		</contour>
	</outline>
	<anchor name="bottom" x="183" y="-30"/>
	<anchor name="top" x="209" y="730"/>
</glyph>
<glyph name="O" format="2">
	<unicode hex="004F"/>
	<advance width="715"/>
	<outline>
		<contour>
			<point x="59" y="328" type="curve" smooth="yes"/>
			<point x="59" y="120"/>
			<point x="174" y="-14"/>
			<point x="353" y="-14" type="curve" smooth="yes"/>
			<point x="546" y="-14"/>
			<point x="674" y="144"/>
			<point x="674" y="382" type="curve" smooth="yes"/>
			<point x="674" y="586"/>
			<point x="562" y="715"/>
			<point x="385" y="715" type="curve" smooth="yes"/>
			<point x="185" y="715"/>
			<point x="59" y="565"/>
		</contour>
		<contour>
			<point x="154" y="349" type="curve" smooth="yes"/>
			<point x="154" y="541"/>
			<point x="234" y="653"/>
			<point x="371" y="653" type="curve" smooth="yes"/>
			<point x="501" y="653"/>
			<point x="576" y="547"/>
			<point x="576" y="364" type="curve" smooth="yes"/>
			<point x="576" y="165"/>
			<point x="500" y="51"/>
			<point x="366" y="51" type="curve" smooth="yes"/>
			<point x="235" y="51"/>
			<point x="154" y="165"/>
		</contour>
	</outline>
	<anchor name="bottom" x="350" y="-30"/>
	<anchor name="top" x="384" y="730"/>
</glyph>
<glyph name="P" format="2">
	<unicode hex="0050"/>
	<advance width="590"/>
	<outline>
		<contour>
			<point x="289" y="339" type="curve"/>
			<point x="286" y="287" type="line"/>
			<point x="299" y="285"/>
			<point x="312" y="284"/>
			<point x="324" y="284" type="curve" smooth="yes"/>
			<point x="472" y="284"/>
			<point x="571" y="371"/>
			<point x="571" y="502" type="curve" smooth="yes"/>
			<point x="571" y="632"/>
			<point x="484" y="700"/>
			<point x="317" y="700" type="curve" smooth="yes"/>
			<point x="90" y="700" type="line"/>
			<point x="84" y="654" type="line"/>
			<point x="171" y="637" type="line"/>
			<point x="146" y="60" type="line"/>
			<point x="57" y="44" type="line"/>
			<point x="52" y="0" type="line"/>
			<point x="358" y="0" type="line"/>
			<point x="362" y="45" type="line"/>
			<point x="234" y="59" type="line"/>
			<point x="257" y="646" type="line"/>
			<point x="308" y="646" type="line" smooth="yes"/>
			<point x="418" y="646"/>
			<point x="474" y="598"/>
			<point x="474" y="503" type="curve" smooth="yes"/>
			<point x="474" y="394"/>
			<point x="421" y="338"/>
			<point x="320" y="338" type="curve" smooth="yes"/>
			<point x="306" y="338"/>
			<point x="298" y="338"/>
		</contour>
	</outline>
</glyph>
<glyph name="R" format="2">
	<unicode hex="0052"/>
	<advance width="679"/>
	<outline>
		<contour>
			<point x="292" y="370" type="curve"/>
			<point x="288" y="321" type="line"/>
			<point x="329" y="296"/>
			<point x="349" y="259"/>
			<point x="375" y="197" type="curve" smooth="yes"/>
			<point x="417" y="98" type="line" smooth="yes"/>
			<point x="449" y="23"/>
			<point x="495" y="-14"/>
			<point x="572" y="-14" type="curve" smooth="yes"/>
			<point x="610" y="-14"/>
			<point x="651" y="2"/>
			<point x="678" y="28" type="curve"/>
			<point x="658" y="63" type="line"/>
			<point x="634" y="51"/>
			<point x="616" y="45"/>
			<point x="599" y="45" type="curve" smooth="yes"/>
			<point x="556" y="45"/>
			<point x="537" y="65"/>
			<point x="509" y="123" type="curve" smooth="yes"/>
			<point x="451" y="243" type="line" smooth="yes"/>
			<point x="425" y="298"/>
			<point x="402" y="318"/>
			<point x="357" y="338" type="curve"/>
			<point x="357" y="341" type="line"/>
			<point x="477" y="355"/>
			<point x="564" y="435"/>
			<point x="564" y="532" type="curve" smooth="yes"/>
			<point x="564" y="648"/>
			<point x="487" y="700"/>
			<point x="317" y="700" type="curve" smooth="yes"/>
			<point x="90" y="700" type="line"/>
			<point x="84" y="654" type="line"/>
			<point x="171" y="637" type="line"/>
			<point x="146" y="60" type="line"/>
			<point x="57" y="44" type="line"/>
			<point x="52" y="0" type="line"/>
			<point x="338" y="0" type="line"/>
			<point x="343" y="44" type="line"/>
			<point x="235" y="58" type="line"/>
			<point x="257" y="646" type="line"/>
			<point x="308" y="646" type="line" smooth="yes"/>
			<point x="421" y="646"/>
			<point x="467" y="611"/>
			<point x="467" y="523" type="curve" smooth="yes"/>
			<point x="467" y="431"/>
			<point x="400" y="373"/>
		</contour>
	</outline>
	<anchor name="bottom" x="343" y="-31"/>
	<anchor name="top" x="326" y="730"/>
</glyph>
<glyph name="W" format="2">
	<unicode hex="0057"/>
	<advance width="1001"/>
	<outline>
		<contour>
			<point x="703" y="86" type="line"/>
			<point x="539" y="701" type="line"/>
			<point x="443" y="685" type="line"/>
			<point x="491" y="512" type="line"/>
			<point x="326" y="86" type="line"/>
			<point x="322" y="86" type="line"/>
			<point x="197" y="640" type="line"/>
			<point x="285" y="653" type="line"/>
			<point x="291" y="700" type="line"/>
			<point x="28" y="700" type="line"/>
			<point x="21" y="653" type="line"/>
			<point x="98" y="638" type="line"/>
			<point x="256" y="-10" type="line"/>
			<point x="361" y="0" type="line"/>
			<point x="520" y="408" type="line"/>
			<point x="637" y="-10" type="line"/>
			<point x="742" y="0" type="line"/>
			<point x="936" y="635" type="line"/>
			<point x="1016" y="652" type="line"/>
			<point x="1023" y="700" type="line"/>
			<point x="786" y="700" type="line"/>
			<point x="780" y="656" type="line"/>
			<point x="867" y="638" type="line"/>
			<point x="707" y="86" type="line"/>
		</contour>
	</outline>
	<anchor name="top" x="515" y="730"/>
</glyph>
<glyph name="X" format="2">
	<unicode hex="0058"/>
	<advance width="687"/>
	<outline>
		<contour>
			<point x="13" y="0" type="line"/>
			<point x="245" y="0" type="line"/>
			<point x="251" y="44" type="line"/>
			<point x="170" y="61" type="line"/>
			<point x="335" y="297" type="line"/>
			<point x="484" y="59" type="line"/>
			<point x="410" y="47" type="line"/>
			<point x="404" y="0" type="line"/>
			<point x="668" y="0" type="line"/>
			<point x="675" y="47" type="line"/>
			<point x="589" y="62" type="line"/>
			<point x="393" y="367" type="line"/>
			<point x="586" y="635" type="line"/>
			<point x="664" y="652" type="line"/>
			<point x="671" y="700" type="line"/>
			<point x="439" y="700" type="line"/>
			<point x="433" y="656" type="line"/>
			<point x="515" y="638" type="line"/>
			<point x="359" y="413" type="line"/>
			<point x="222" y="641" type="line"/>
			<point x="298" y="653" type="line"/>
			<point x="304" y="700" type="line"/>
			<point x="48" y="700" type="line"/>
			<point x="41" y="653" type="line"/>
			<point x="111" y="639" type="line"/>
			<point x="300" y="344" type="line"/>
			<point x="97" y="64" type="line"/>
			<point x="20" y="48" type="line"/>
		</contour>
	</outline>
</glyph>
<glyph name="Y" format="2">
	<unicode hex="0059"/>
	<advance width="670"/>
	<outline>
		<contour>
			<point x="359" y="327" type="line"/>
			<point x="197" y="640" type="line"/>
			<point x="280" y="653" type="line"/>
			<point x="286" y="700" type="line"/>
			<point x="28" y="700" type="line"/>
			<point x="21" y="653" type="line"/>
			<point x="98" y="638" type="line"/>
			<point x="302" y="259" type="line"/>
			<point x="291" y="59" type="line"/>
			<point x="209" y="46" type="line"/>
			<point x="203" y="0" type="line"/>
			<point x="468" y="0" type="line"/>
			<point x="474" y="46" type="line"/>
			<point x="379" y="59" type="line"/>
			<point x="387" y="261" type="line"/>
			<point x="605" y="635" type="line"/>
			<point x="685" y="652" type="line"/>
			<point x="692" y="700" type="line"/>
			<point x="455" y="700" type="line"/>
			<point x="449" y="656" type="line"/>
			<point x="536" y="638" type="line"/>
			<point x="363" y="327" type="line"/>
		</contour>
	</outline>
	<anchor name="bottom" x="332" y="-30"/>
	<anchor name="top" x="366" y="730"/>
</glyph>
<glyph name="asciicircum" format="2">
	<unicode hex="005E"/>
	<advance width="582"/>
	<outline>
		<contour>
			<point x="545" y="374" type="line"/>
			<point x="334" y="712" type="line"/>
			<point x="292" y="712" type="line"/>
			<point x="59" y="374" type="line"/>
			<point x="107" y="344" type="line"/>
			<point x="311" y="635" type="line"/>
			<point x="495" y="344" type="line"/>
		</contour>
	</outline>
</glyph>
<glyph name="grave" format="2">
	<unicode hex="0060"/>
	<advance width="498"/>
	<outline>
		<contour>
			<point x="350" y="605" type="line"/>
			<point x="225" y="769" type="line"/>
			<point x="183" y="771"/>
			<point x="163" y="751"/>
			<point x="162" y="728" type="curve" smooth="yes"/>
			<point x="161" y="712"/>
			<point x="171" y="693"/>
			<point x="191" y="678" type="curve" smooth="yes"/>
			<point x="325" y="580" type="line"/>
		</contour>
	</outline>
	<anchor name="_top" x="269" y="550"/>
	<guideline x="299" y="580" angle="0"/>
</glyph>
<glyph name="b" format="2">
	<unicode hex="0062"/>
	<advance width="566"/>
	<outline>
		<contour>
			<point x="274" y="-14" type="curve" smooth="yes"/>
			<point x="415" y="-14"/>
			<point x="516" y="100"/>
			<point x="516" y="308" type="curve" smooth="yes"/>
			<point x="516" y="440"/>
			<point x="471" y="521"/>
			<point x="368" y="521" type="curve" smooth="yes"/>
			<point x="278" y="521"/>
			<point x="232" y="462"/>
			<point x="196" y="326" type="curve" smooth="yes"/>
			<point x="159" y="188" type="line"/>
			<point x="151" y="190" type="line"/>
			<point x="178" y="425" type="line"/>
			<point x="190" y="756" type="line"/>
			<point x="174" y="767" type="line"/>
			<point x="18" y="767" type="line"/>
			<point x="12" y="719" type="line"/>
			<point x="105" y="698" type="line"/>
			<point x="82" y="32" type="line"/>
			<point x="125" y="7"/>
			<point x="210" y="-14"/>
		</contour>
		<contour>
			<point x="355" y="451" type="curve" smooth="yes"/>
			<point x="418" y="451"/>
			<point x="426" y="377"/>
			<point x="426" y="301" type="curve" smooth="yes"/>
			<point x="426" y="153"/>
			<point x="366" y="48"/>
			<point x="273" y="48" type="curve" smooth="yes"/>
			<point x="229" y="48"/>
			<point x="197" y="60"/>
			<point x="173" y="71" type="curve"/>
			<point x="206" y="186" type="line" smooth="yes"/>
			<point x="271" y="414"/>
			<point x="292" y="451"/>
		</contour>
	</outline>
</glyph>
<glyph name="c" format="2">
	<unicode hex="0063"/>
	<advance width="486"/>
	<outline>
		<contour>
			<point x="291" y="521" type="curve" smooth="yes"/>
			<point x="143" y="521"/>
			<point x="47" y="397"/>
			<point x="47" y="225" type="curve" smooth="yes"/>
			<point x="47" y="88"/>
			<point x="116" y="-14"/>
			<point x="243" y="-14" type="curve" smooth="yes"/>
			<point x="344" y="-14"/>
			<point x="410" y="61"/>
			<point x="434" y="93" type="curve"/>
			<point x="399" y="129" type="line"/>
			<point x="353" y="78"/>
			<point x="307" y="52"/>
			<point x="261" y="52" type="curve" smooth="yes"/>
			<point x="178" y="52"/>
			<point x="138" y="132"/>
			<point x="138" y="228" type="curve" smooth="yes"/>
			<point x="138" y="387"/>
			<point x="197" y="465"/>
			<point x="289" y="465" type="curve" smooth="yes"/>
			<point x="340" y="465"/>
			<point x="380" y="440"/>
			<point x="341" y="396" type="curve" smooth="yes"/>
			<point x="320" y="372" type="line"/>
			<point x="330" y="348"/>
			<point x="354" y="330"/>
			<point x="382" y="330" type="curve" smooth="yes"/>
			<point x="420" y="330"/>
			<point x="443" y="356"/>
			<point x="443" y="394" type="curve" smooth="yes"/>
			<point x="443" y="473"/>
			<point x="378" y="521"/>
		</contour>
	</outline>
	<anchor name="bottom" x="245" y="-30"/>
	<anchor name="top" x="270" y="550"/>
</glyph>
<glyph name="h" format="2">
	<unicode hex="0068"/>
	<advance width="587"/>
	<outline>
		<contour>
			<point x="573" y="38" type="curve"/>
			<point x="550" y="74" type="line"/>
			<point x="531" y="59"/>
			<point x="509" y="50"/>
			<point x="494" y="50" type="curve" smooth="yes"/>
			<point x="473" y="50"/>
			<point x="468" y="61"/>
			<point x="471" y="93" type="curve" smooth="yes"/>
			<point x="493" y="348" type="line" smooth="yes"/>
			<point x="503" y="460"/>
			<point x="482" y="521"/>
			<point x="390" y="521" type="curve" smooth="yes"/>
			<point x="314" y="521"/>
			<point x="273" y="473"/>
			<point x="237" y="367" type="curve" smooth="yes"/>
			<point x="164" y="150" type="line"/>
			<point x="157" y="152" type="line"/>
			<point x="181" y="409" type="line"/>
			<point x="195" y="756" type="line"/>
			<point x="179" y="767" type="line"/>
			<point x="23" y="767" type="line"/>
			<point x="17" y="719" type="line"/>
			<point x="110" y="698" type="line"/>
			<point x="84" y="0" type="line"/>
			<point x="166" y="0" type="line"/>
			<point x="283" y="330" type="line" smooth="yes"/>
			<point x="310" y="406"/>
			<point x="325" y="447"/>
			<point x="369" y="447" type="curve" smooth="yes"/>
			<point x="402" y="447"/>
			<point x="414" y="425"/>
			<point x="408" y="354" type="curve" smooth="yes"/>
			<point x="383" y="72" type="line" smooth="yes"/>
			<point x="379" y="24"/>
			<point x="396" y="-11"/>
			<point x="456" y="-11" type="curve" smooth="yes"/>
			<point x="497" y="-11"/>
			<point x="550" y="17"/>
		</contour>
	</outline>
	<anchor name="bottom" x="287" y="-30"/>
	<anchor name="top" x="112" y="780"/>
</glyph>
<glyph name="j" format="2">
	<unicode hex="006A"/>
	<advance width="296"/>
	<outline>
		<contour>
			<point x="199" y="122" type="curve" smooth="yes"/>
			<point x="214" y="408" type="line" smooth="yes"/>
			<point x="218" y="486"/>
			<point x="195" y="521"/>
			<point x="141" y="521" type="curve" smooth="yes"/>
			<point x="97" y="521"/>
			<point x="50" y="501"/>
			<point x="25" y="486" type="curve"/>
			<point x="41" y="441" type="line"/>
			<point x="65" y="452"/>
			<point x="86" y="457"/>
			<point x="104" y="457" type="curve" smooth="yes"/>
			<point x="123" y="457"/>
			<point x="131" y="448"/>
			<point x="129" y="416" type="curve" smooth="yes"/>
			<point x="109" y="23" type="line" smooth="yes"/>
			<point x="106" y="-29"/>
			<point x="107" y="-44"/>
			<point x="102" y="-82" type="curve" smooth="yes"/>
			<point x="96" y="-133"/>
			<point x="65" y="-145"/>
			<point x="31" y="-131" type="curve" smooth="yes"/>
			<point x="-10" y="-114" type="line"/>
			<point x="-27" y="-138"/>
			<point x="-34" y="-160"/>
			<point x="-34" y="-179" type="curve" smooth="yes"/>
			<point x="-34" y="-205"/>
			<point x="-9" y="-229"/>
			<point x="33" y="-229" type="curve" smooth="yes"/>
			<point x="62" y="-229"/>
			<point x="90" y="-213"/>
			<point x="114" y="-184" type="curve" smooth="yes"/>
			<point x="164" y="-124"/>
			<point x="193" y="14"/>
		</contour>
		<contour>
			<point x="91" y="686" type="curve" smooth="yes"/>
			<point x="91" y="647"/>
			<point x="117" y="620"/>
			<point x="156" y="620" type="curve" smooth="yes"/>
			<point x="194" y="620"/>
			<point x="220" y="648"/>
			<point x="220" y="687" type="curve" smooth="yes"/>
			<point x="220" y="726"/>
			<point x="194" y="753"/>
			<point x="156" y="753" type="curve" smooth="yes"/>
			<point x="117" y="753"/>
			<point x="91" y="725"/>
		</contour>
	</outline>
</glyph>
<glyph name="k" format="2">
	<unicode hex="006B"/>
	<advance width="549"/>
	<outline>
		<contour>
			<point x="110" y="698" type="line"/>
			<point x="79" y="0" type="line"/>
			<point x="160" y="0" type="line"/>
			<point x="171" y="239" type="line"/>
			<point x="188" y="243"/>
			<point x="204" y="247"/>
			<point x="221" y="253" type="curve"/>
			<point x="328" y="65" type="line" smooth="yes"/>
			<point x="360" y="8"/>
			<point x="388" y="-14"/>
			<point x="433" y="-14" type="curve" smooth="yes"/>
			<point x="480" y="-14"/>
			<point x="523" y="11"/>
			<point x="543" y="30" type="curve"/>
			<point x="521" y="66" type="line"/>
			<point x="504" y="56"/>
			<point x="488" y="47"/>
			<point x="466" y="47" type="curve" smooth="yes"/>
			<point x="440" y="47"/>
			<point x="425" y="65"/>
			<point x="401" y="105" type="curve" smooth="yes"/>
			<point x="296" y="283" type="line"/>
			<point x="319" y="294"/>
			<point x="342" y="306"/>
			<point x="366" y="321" type="curve" smooth="yes"/>
			<point x="436" y="365"/>
			<point x="466" y="399"/>
			<point x="466" y="451" type="curve" smooth="yes"/>
			<point x="466" y="488"/>
			<point x="442" y="521"/>
			<point x="400" y="521" type="curve" smooth="yes"/>
			<point x="362" y="521"/>
			<point x="332" y="497"/>
			<point x="324" y="455" type="curve"/>
			<point x="352" y="438" type="line" smooth="yes"/>
			<point x="379" y="422"/>
			<point x="372" y="391"/>
			<point x="332" y="364" type="curve" smooth="yes"/>
			<point x="280" y="329"/>
			<point x="228" y="309"/>
			<point x="173" y="299" type="curve"/>
			<point x="194" y="756" type="line"/>
			<point x="178" y="767" type="line"/>
			<point x="23" y="767" type="line"/>
			<point x="17" y="719" type="line"/>
		</contour>
	</outline>
	<anchor name="bottom" x="267" y="-30"/>
	<anchor name="top" x="109" y="780"/>
</glyph>
<glyph name="l" format="2">
	<unicode hex="006C"/>
	<advance width="282"/>
	<outline>
		<contour>
			<point x="110" y="698" type="line"/>
			<point x="83" y="77" type="line" smooth="yes"/>
			<point x="81" y="23"/>
			<point x="96" y="-14"/>
			<point x="160" y="-14" type="curve" smooth="yes"/>
			<point x="218" y="-14"/>
			<point x="260" y="22"/>
			<point x="281" y="43" type="curve"/>
			<point x="256" y="81" type="line"/>
			<point x="231" y="59"/>
			<point x="211" y="48"/>
			<point x="196" y="48" type="curve" smooth="yes"/>
			<point x="173" y="48"/>
			<point x="170" y="60"/>
			<point x="171" y="90" type="curve" smooth="yes"/>
			<point x="194" y="756" type="line"/>
			<point x="178" y="767" type="line"/>
			<point x="23" y="767" type="line"/>
			<point x="17" y="719" type="line"/>
		</contour>
	</outline>
	<anchor name="bottom" x="170" y="-30"/>
	<anchor name="top" x="112" y="780"/>
</glyph>
<glyph name="m" format="2">
	<unicode hex="006D"/>
	<advance width="876"/>
	<outline>
		<contour>
			<point x="404" y="354" type="curve" smooth="yes"/>
			<point x="375" y="0" type="line"/>
			<point x="460" y="0" type="line"/>
			<point x="581" y="330" type="line" smooth="yes"/>
			<point x="618" y="432"/>
			<point x="628" y="447"/>
			<point x="660" y="447" type="curve" smooth="yes"/>
			<point x="694" y="447"/>
			<point x="703" y="425"/>
			<point x="697" y="354" type="curve" smooth="yes"/>
			<point x="672" y="69" type="line" smooth="yes"/>
			<point x="668" y="21"/>
			<point x="685" y="-14"/>
			<point x="745" y="-14" type="curve" smooth="yes"/>
			<point x="786" y="-14"/>
			<point x="839" y="14"/>
			<point x="862" y="35" type="curve"/>
			<point x="839" y="71" type="line"/>
			<point x="820" y="56"/>
			<point x="798" y="47"/>
			<point x="783" y="47" type="curve" smooth="yes"/>
			<point x="762" y="47"/>
			<point x="757" y="58"/>
			<point x="760" y="90" type="curve" smooth="yes"/>
			<point x="782" y="348" type="line" smooth="yes"/>
			<point x="792" y="464"/>
			<point x="770" y="521"/>
			<point x="681" y="521" type="curve" smooth="yes"/>
			<point x="605" y="521"/>
			<point x="571" y="474"/>
			<point x="536" y="367" type="curve" smooth="yes"/>
			<point x="464" y="147" type="line"/>
			<point x="456" y="149" type="line"/>
			<point x="478" y="357" type="line" smooth="yes"/>
			<point x="489" y="465"/>
			<point x="463" y="521"/>
			<point x="381" y="521" type="curve" smooth="yes"/>
			<point x="305" y="521"/>
			<point x="269" y="475"/>
			<point x="237" y="367" type="curve" smooth="yes"/>
			<point x="173" y="150" type="line"/>
			<point x="166" y="152" type="line"/>
			<point x="191" y="419" type="line" smooth="yes"/>
			<point x="197" y="486"/>
			<point x="178" y="521"/>
			<point x="121" y="521" type="curve" smooth="yes"/>
			<point x="81" y="521"/>
			<point x="27" y="500"/>
			<point x="6" y="488" type="curve"/>
			<point x="23" y="438" type="line"/>
			<point x="56" y="451"/>
			<point x="71" y="456"/>
			<point x="82" y="456" type="curve" smooth="yes"/>
			<point x="103" y="456"/>
			<point x="110" y="444"/>
			<point x="109" y="416" type="curve" smooth="yes"/>
			<point x="93" y="0" type="line"/>
			<point x="175" y="0" type="line"/>
			<point x="282" y="330" type="line" smooth="yes"/>
			<point x="311" y="420"/>
			<point x="323" y="447"/>
			<point x="362" y="447" type="curve" smooth="yes"/>
			<point x="395" y="447"/>
			<point x="410" y="425"/>
		</contour>
	</outline>
	<anchor name="bottom" x="423" y="-30"/>
</glyph>
<glyph name="o" format="2">
	<unicode hex="006F"/>
	<advance width="539"/>
	<outline>
		<contour>
			<point x="254" y="-14" type="curve" smooth="yes"/>
			<point x="424" y="-14"/>
			<point x="491" y="122"/>
			<point x="491" y="274" type="curve" smooth="yes"/>
			<point x="491" y="423"/>
			<point x="415" y="521"/>
			<point x="283" y="521" type="curve" smooth="yes"/>
			<point x="112" y="521"/>
			<point x="48" y="385"/>
			<point x="48" y="235" type="curve" smooth="yes"/>
			<point x="48" y="84"/>
			<point x="122" y="-14"/>
		</contour>
		<contour>
			<point x="260" y="45" type="curve" smooth="yes"/>
			<point x="179" y="45"/>
			<point x="143" y="120"/>
			<point x="143" y="231" type="curve" smooth="yes"/>
			<point x="143" y="352"/>
			<point x="168" y="463"/>
			<point x="275" y="463" type="curve" smooth="yes"/>
			<point x="366" y="463"/>
			<point x="397" y="384"/>
			<point x="397" y="275" type="curve" smooth="yes"/>
			<point x="397" y="154"/>
			<point x="367" y="45"/>
		</contour>
	</outline>
	<anchor name="bottom" x="258" y="-30"/>
	<anchor name="top" x="281" y="550"/>
</glyph>
<glyph name="v" format="2">
	<unicode hex="0076"/>
	<advance width="533"/>
	<outline>
		<contour>
			<point x="409" y="521" type="curve" smooth="yes"/>
			<point x="360" y="521"/>
			<point x="340" y="480"/>
			<point x="345" y="436" type="curve"/>
			<point x="380" y="423" type="line" smooth="yes"/>
			<point x="407" y="413"/>
			<point x="417" y="399"/>
			<point x="414" y="346" type="curve" smooth="yes"/>
			<point x="407" y="238"/>
			<point x="354" y="51"/>
			<point x="236" y="51" type="curve" smooth="yes"/>
			<point x="179" y="51"/>
			<point x="171" y="92"/>
			<point x="175" y="156" type="curve" smooth="yes"/>
			<point x="191" y="437" type="line" smooth="yes"/>
			<point x="194" y="486"/>
			<point x="173" y="521"/>
			<point x="116" y="521" type="curve" smooth="yes"/>
			<point x="75" y="521"/>
			<point x="23" y="501"/>
			<point x="0" y="488" type="curve"/>
			<point x="17" y="441" type="line"/>
			<point x="62" y="455" type="line" smooth="yes"/>
			<point x="87" y="463"/>
			<point x="104" y="452"/>
			<point x="103" y="421" type="curve" smooth="yes"/>
			<point x="90" y="149" type="line" smooth="yes"/>
			<point x="83" y="4"/>
			<point x="159" y="-14"/>
			<point x="222" y="-14" type="curve" smooth="yes"/>
			<point x="420" y="-14"/>
			<point x="490" y="265"/>
			<point x="490" y="415" type="curve" smooth="yes"/>
			<point x="490" y="474"/>
			<point x="466" y="521"/>
		</contour>
	</outline>
	<anchor name="top" x="281" y="550"/>
</glyph>
<glyph name="x" format="2">
	<unicode hex="0078"/>
	<advance width="531"/>
	<outline>
		<contour>
			<point x="290" y="307" type="line"/>
			<point x="220" y="459" type="line" smooth="yes"/>
			<point x="201" y="500"/>
			<point x="176" y="521"/>
			<point x="128" y="521" type="curve" smooth="yes"/>
			<point x="83" y="521"/>
			<point x="38" y="499"/>
			<point x="16" y="487" type="curve"/>
			<point x="33" y="437" type="line"/>
			<point x="49" y="445"/>
			<point x="77" y="456"/>
			<point x="92" y="456" type="curve" smooth="yes"/>
			<point x="108" y="456"/>
			<point x="123" y="453"/>
			<point x="141" y="415" type="curve" smooth="yes"/>
			<point x="214" y="260" type="line"/>
			<point x="136" y="198" type="line" smooth="yes"/>
			<point x="65" y="142"/>
			<point x="32" y="110"/>
			<point x="32" y="54" type="curve" smooth="yes"/>
			<point x="32" y="18"/>
			<point x="53" y="-14"/>
			<point x="100" y="-14" type="curve" smooth="yes"/>
			<point x="135" y="-14"/>
			<point x="160" y="13"/>
			<point x="167" y="50" type="curve"/>
			<point x="143" y="59" type="line" smooth="yes"/>
			<point x="102" y="74"/>
			<point x="108" y="106"/>
			<point x="153" y="142" type="curve" smooth="yes"/>
			<point x="238" y="210" type="line"/>
			<point x="311" y="55" type="line" smooth="yes"/>
			<point x="334" y="7"/>
			<point x="360" y="-14"/>
			<point x="414" y="-14" type="curve" smooth="yes"/>
			<point x="459" y="-14"/>
			<point x="495" y="8"/>
			<point x="520" y="30" type="curve"/>
			<point x="498" y="66" type="line"/>
			<point x="481" y="56"/>
			<point x="464" y="47"/>
			<point x="442" y="47" type="curve" smooth="yes"/>
			<point x="419" y="47"/>
			<point x="407" y="56"/>
			<point x="387" y="99" type="curve" smooth="yes"/>
			<point x="313" y="258" type="line"/>
			<point x="365" y="303" type="line" smooth="yes"/>
			<point x="464" y="389"/>
			<point x="483" y="414"/>
			<point x="483" y="457" type="curve" smooth="yes"/>
			<point x="483" y="490"/>
			<point x="461" y="521"/>
			<point x="421" y="521" type="curve" smooth="yes"/>
			<point x="386" y="521"/>
			<point x="360" y="498"/>
			<point x="352" y="468" type="curve"/>
			<point x="380" y="447" type="line" smooth="yes"/>
			<point x="410" y="425"/>
			<point x="392" y="396"/>
			<point x="346" y="356" type="curve" smooth="yes"/>
		</contour>
	</outline>
</glyph>
<glyph name="z" format="2">
	<unicode hex="007A"/>
	<advance width="477"/>
	<outline>
		<contour>
			<point x="85" y="507" type="line"/>
			<point x="74" y="496" type="line"/>
			<point x="60" y="339" type="line"/>
			<point x="111" y="342" type="line"/>
			<point x="132" y="426"/>
			<point x="141" y="439"/>
			<point x="194" y="439" type="curve" smooth="yes"/>
			<point x="353" y="439" type="line"/>
			<point x="44" y="41" type="line"/>
			<point x="79" y="-7" type="line"/>
			<point x="98" y="2"/>
			<point x="119" y="9"/>
			<point x="158" y="9" type="curve" smooth="yes"/>
			<point x="235" y="9"/>
			<point x="328" y="-22"/>
			<point x="419" y="0" type="curve"/>
			<point x="446" y="181" type="line"/>
			<point x="397" y="181" type="line"/>
			<point x="363" y="79"/>
			<point x="352" y="66"/>
			<point x="322" y="66" type="curve" smooth="yes"/>
			<point x="289" y="66"/>
			<point x="246" y="79"/>
			<point x="203" y="79" type="curve" smooth="yes"/>
			<point x="182" y="79"/>
			<point x="160" y="77"/>
			<point x="139" y="72" type="curve"/>
			<point x="452" y="470" type="line"/>
			<point x="440" y="507" type="line"/>
		</contour>
	</outline>
	<anchor name="bottom" x="233" y="-30"/>
	<anchor name="top" x="255" y="550"/>
</glyph>
<glyph name="braceleft" format="2">
	<unicode hex="007B"/>
	<advance width="363"/>
	<outline>
		<contour>
			<point x="68" y="335" type="curve"/>
			<point x="65" y="278" type="line"/>
			<point x="132" y="278"/>
			<point x="156" y="253"/>
			<point x="156" y="182" type="curve" smooth="yes"/>
			<point x="156" y="110"/>
			<point x="126" y="-45"/>
			<point x="126" y="-106" type="curve" smooth="yes"/>
			<point x="126" y="-183"/>
			<point x="171" y="-227"/>
			<point x="251" y="-227" type="curve" smooth="yes"/>
			<point x="276" y="-227"/>
			<point x="301" y="-224"/>
			<point x="323" y="-218" type="curve"/>
			<point x="315" y="-169" type="line"/>
			<point x="301" y="-172"/>
			<point x="283" y="-173"/>
			<point x="267" y="-173" type="curve" smooth="yes"/>
			<point x="229" y="-173"/>
			<point x="214" y="-153"/>
			<point x="214" y="-103" type="curve" smooth="yes"/>
			<point x="214" y="-63"/>
			<point x="242" y="109"/>
			<point x="242" y="174" type="curve" smooth="yes"/>
			<point x="242" y="251"/>
			<point x="213" y="289"/>
			<point x="140" y="308" type="curve"/>
			<point x="217" y="326"/>
			<point x="254" y="368"/>
			<point x="254" y="440" type="curve" smooth="yes"/>
			<point x="254" y="507"/>
			<point x="243" y="657"/>
			<point x="243" y="702" type="curve" smooth="yes"/>
			<point x="243" y="746"/>
			<point x="260" y="768"/>
			<point x="294" y="768" type="curve" smooth="yes"/>
			<point x="308" y="768"/>
			<point x="324" y="767"/>
			<point x="343" y="764" type="curve"/>
			<point x="354" y="813" type="line"/>
			<point x="334" y="818"/>
			<point x="305" y="822"/>
			<point x="283" y="822" type="curve" smooth="yes"/>
			<point x="204" y="822"/>
			<point x="156" y="777"/>
			<point x="156" y="703" type="curve" smooth="yes"/>
			<point x="156" y="638"/>
			<point x="168" y="506"/>
			<point x="168" y="431" type="curve" smooth="yes"/>
			<point x="168" y="368"/>
			<point x="136" y="338"/>
		</contour>
	</outline>
</glyph>
<glyph name="asciitilde" format="2">
	<unicode hex="007E"/>
	<advance width="583"/>
	<outline>
		<contour>
			<point x="459" y="241" type="curve" smooth="yes"/>
			<point x="499" y="241"/>
			<point x="522" y="253"/>
			<point x="559" y="333" type="curve"/>
			<point x="508" y="352" type="line"/>
			<point x="489" y="319"/>
			<point x="479" y="308"/>
			<point x="461" y="308" type="curve" smooth="yes"/>
			<point x="398" y="308"/>
			<point x="268" y="350"/>
			<point x="204" y="350" type="curve" smooth="yes"/>
			<point x="159" y="350"/>
			<point x="138" y="331"/>
			<point x="104" y="258" type="curve"/>
			<point x="155" y="239" type="line"/>
			<point x="177" y="277"/>
			<point x="184" y="283"/>
			<point x="204" y="283" type="curve" smooth="yes"/>
			<point x="269" y="283"/>
			<point x="392" y="241"/>
		</contour>
	</outline>
</glyph>
<glyph name="cent" format="2">
	<unicode hex="00A2"/>
	<advance width="486"/>
	<outline>
		<contour>
			<point x="174" y="-29" type="line"/>
			<point x="214" y="-29" type="line"/>
			<point x="226" y="37" type="line"/>
			<point x="232" y="37"/>
			<point x="239" y="36"/>
			<point x="245" y="36" type="curve" smooth="yes"/>
			<point x="346" y="36"/>
			<point x="412" y="111"/>
			<point x="436" y="143" type="curve"/>
			<point x="401" y="179" type="line"/>
			<point x="355" y="128"/>
			<point x="309" y="102"/>
			<point x="263" y="102" type="curve" smooth="yes"/>
			<point x="255" y="102"/>
			<point x="247" y="103"/>
			<point x="239" y="104" type="curve"/>
			<point x="316" y="513" type="line"/>
			<point x="354" y="506"/>
			<point x="375" y="482"/>
			<point x="343" y="446" type="curve" smooth="yes"/>
			<point x="322" y="422" type="line"/>
			<point x="332" y="398"/>
			<point x="356" y="380"/>
			<point x="384" y="380" type="curve" smooth="yes"/>
			<point x="422" y="380"/>
			<point x="445" y="406"/>
			<point x="445" y="444" type="curve" smooth="yes"/>
			<point x="445" y="512"/>
			<point x="396" y="558"/>
			<point x="327" y="568" type="curve"/>
			<point x="340" y="638" type="line"/>
			<point x="300" y="638" type="line"/>
			<point x="287" y="571" type="line"/>
			<point x="143" y="568"/>
			<point x="49" y="445"/>
			<point x="49" y="275" type="curve" smooth="yes"/>
			<point x="49" y="160"/>
			<point x="97" y="70"/>
			<point x="188" y="44" type="curve"/>
		</contour>
		<contour>
			<point x="202" y="120" type="line"/>
			<point x="160" y="149"/>
			<point x="140" y="210"/>
			<point x="140" y="278" type="curve" smooth="yes"/>
			<point x="140" y="429"/>
			<point x="193" y="506"/>
			<point x="277" y="514" type="curve"/>
		</contour>
	</outline>
</glyph>
<glyph name="sterling" format="2">
	<unicode hex="00A3"/>
	<advance width="587"/>
	<outline>
		<contour>
			<point x="65" y="33" type="curve"/>
			<point x="96" y="-14" type="line"/>
			<point x="139" y="17"/>
			<point x="190" y="35"/>
			<point x="239" y="35" type="curve" smooth="yes"/>
			<point x="278" y="35"/>
			<point x="309" y="24"/>
			<point x="341" y="12" type="curve" smooth="yes"/>
			<point x="375" y="-1"/>
			<point x="410" y="-14"/>
			<point x="457" y="-14" type="curve" smooth="yes"/>
			<point x="531" y="-14"/>
			<point x="571" y="40"/>
			<point x="571" y="93" type="curve" smooth="yes"/>
			<point x="571" y="163"/>
			<point x="521" y="201"/>
			<point x="440" y="224" type="curve"/>
			<point x="421" y="177" type="line"/>
			<point x="453" y="164"/>
			<point x="493" y="147"/>
			<point x="493" y="104" type="curve" smooth="yes"/>
			<point x="493" y="71"/>
			<point x="472" y="50"/>
			<point x="439" y="50" type="curve" smooth="yes"/>
			<point x="407" y="50"/>
			<point x="377" y="60"/>
			<point x="348" y="72" type="curve" smooth="yes"/>
			<point x="329" y="80"/>
			<point x="310" y="87"/>
			<point x="289" y="91" type="curve"/>
			<point x="239" y="205"/>
			<point x="213" y="275"/>
			<point x="201" y="335" type="curve"/>
			<point x="423" y="335" type="line"/>
			<point x="427" y="388" type="line"/>
			<point x="192" y="388" type="line"/>
			<point x="190" y="413"/>
			<point x="189" y="439"/>
			<point x="189" y="468" type="curve" smooth="yes"/>
			<point x="189" y="593"/>
			<point x="238" y="659"/>
			<point x="339" y="659" type="curve" smooth="yes"/>
			<point x="417" y="659"/>
			<point x="435" y="619"/>
			<point x="417" y="584" type="curve" smooth="yes"/>
			<point x="398" y="547" type="line"/>
			<point x="409" y="536"/>
			<point x="434" y="523"/>
			<point x="463" y="523" type="curve" smooth="yes"/>
			<point x="498" y="523"/>
			<point x="523" y="548"/>
			<point x="523" y="587" type="curve" smooth="yes"/>
			<point x="523" y="660"/>
			<point x="457" y="715"/>
			<point x="345" y="715" type="curve" smooth="yes"/>
			<point x="194" y="715"/>
			<point x="94" y="618"/>
			<point x="94" y="458" type="curve" smooth="yes"/>
			<point x="94" y="434"/>
			<point x="96" y="411"/>
			<point x="101" y="388" type="curve"/>
			<point x="38" y="388" type="line"/>
			<point x="31" y="335" type="line"/>
			<point x="115" y="335" type="line"/>
			<point x="134" y="276"/>
			<point x="185" y="164"/>
			<point x="224" y="95" type="curve"/>
			<point x="180" y="92"/>
			<point x="127" y="78"/>
		</contour>
	</outline>
</glyph>
<glyph name="brokenbar" format="2">
	<unicode hex="00A6"/>
	<advance width="408"/>
	<outline>
		<contour>
			<point x="167" y="-110" type="line"/>
			<point x="229" y="-110" type="line"/>
			<point x="242" y="289" type="line"/>
			<point x="181" y="289" type="line"/>
		</contour>
		<contour>
			<point x="186" y="432" type="line"/>
			<point x="248" y="432" type="line"/>
			<point x="260" y="803" type="line"/>
			<point x="199" y="803" type="line"/>
		</contour>
	</outline>
</glyph>
<glyph name="ordfeminine" format="2">
	<unicode hex="00AA"/>
	<advance width="444"/>
	<outline>
		<contour>
			<point x="370" y="442" type="curve" smooth="yes"/>
			<point x="379" y="735" type="line"/>
			<point x="366" y="741" type="line"/>
			<point x="311" y="724" type="line"/>
			<point x="294" y="733"/>
			<point x="262" y="742"/>
			<point x="229" y="742" type="curve" smooth="yes"/>
			<point x="133" y="742"/>
			<point x="60" y="649"/>
			<point x="60" y="515" type="curve" smooth="yes"/>
			<point x="60" y="427"/>
			<point x="97" y="362"/>
			<point x="174" y="362" type="curve" smooth="yes"/>
			<point x="244" y="362"/>
			<point x="273" y="414"/>
			<point x="299" y="509" type="curve" smooth="yes"/>
			<point x="315" y="567" type="line"/>
			<point x="320" y="567" type="line"/>
			<point x="308" y="433" type="line" smooth="yes"/>
			<point x="305" y="395"/>
			<point x="314" y="362"/>
			<point x="357" y="362" type="curve" smooth="yes"/>
			<point x="387" y="362"/>
			<point x="425" y="383"/>
			<point x="441" y="398" type="curve"/>
			<point x="423" y="428" type="line"/>
			<point x="409" y="417"/>
			<point x="398" y="411"/>
			<point x="388" y="411" type="curve" smooth="yes"/>
			<point x="372" y="411"/>
			<point x="369" y="421"/>
		</contour>
		<contour>
			<point x="183" y="416" type="curve" smooth="yes"/>
			<point x="149" y="416"/>
			<point x="131" y="443"/>
			<point x="131" y="518" type="curve" smooth="yes"/>
			<point x="131" y="624"/>
			<point x="173" y="695"/>
			<point x="236" y="695" type="curve" smooth="yes"/>
			<point x="262" y="695"/>
			<point x="291" y="687"/>
			<point x="309" y="678" type="curve"/>
			<point x="286" y="597" type="line" smooth="yes"/>
			<point x="250" y="471"/>
			<point x="234" y="416"/>
		</contour>
	</outline>
</glyph>
<glyph name="logicalnot" format="2">
	<unicode hex="00AC"/>
	<advance width="582"/>
	<outline>
		<contour>
			<point x="427" y="154" type="line"/>
			<point x="494" y="154" type="line"/>
			<point x="503" y="367" type="line"/>
			<point x="75" y="367" type="line"/>
			<point x="72" y="304" type="line"/>
			<point x="433" y="304" type="line"/>
		</contour>
	</outline>
</glyph>
<glyph name="registered" format="2">
	<unicode hex="00AE"/>
	<advance width="463"/>
	<outline>
		<contour>
			<point x="240" y="401" type="curve" smooth="yes"/>
			<point x="349" y="401"/>
			<point x="424" y="476"/>
			<point x="424" y="583" type="curve" smooth="yes"/>
			<point x="424" y="690"/>
			<point x="352" y="759"/>
			<point x="241" y="759" type="curve" smooth="yes"/>
			<point x="133" y="759"/>
			<point x="57" y="683"/>
			<point x="57" y="576" type="curve" smooth="yes"/>
			<point x="57" y="468"/>
			<point x="127" y="401"/>
		</contour>
		<contour>
			<point x="319" y="465" type="curve" smooth="yes"/>
			<point x="290" y="465"/>
			<point x="278" y="479"/>
			<point x="260" y="535" type="curve" smooth="yes"/>
			<point x="250" y="565"/>
			<point x="242" y="573"/>
			<point x="223" y="576" type="curve"/>
			<point x="227" y="595" type="line"/>
			<point x="229" y="595" type="line" smooth="yes"/>
			<point x="263" y="595"/>
			<point x="283" y="613"/>
			<point x="283" y="644" type="curve" smooth="yes"/>
			<point x="283" y="672"/>
			<point x="267" y="683"/>
			<point x="228" y="683" type="curve" smooth="yes"/>
			<point x="211" y="683" type="line"/>
			<point x="205" y="490" type="line"/>
			<point x="235" y="485" type="line"/>
			<point x="233" y="469" type="line"/>
			<point x="135" y="469" type="line"/>
			<point x="137" y="485" type="line"/>
			<point x="167" y="489" type="line"/>
			<point x="174" y="683" type="line"/>
			<point x="146" y="687" type="line"/>
			<point x="151" y="703" type="line"/>
			<point x="231" y="703" type="line" smooth="yes"/>
			<point x="291" y="703"/>
			<point x="323" y="682"/>
			<point x="323" y="643" type="curve" smooth="yes"/>
			<point x="323" y="615"/>
			<point x="296" y="591"/>
			<point x="257" y="584" type="curve"/>
			<point x="257" y="581" type="line"/>
			<point x="282" y="572"/>
			<point x="292" y="560"/>
			<point x="302" y="531" type="curve" smooth="yes"/>
			<point x="313" y="498"/>
			<point x="321" y="487"/>
			<point x="334" y="487" type="curve" smooth="yes"/>
			<point x="339" y="487"/>
			<point x="346" y="489"/>
			<point x="351" y="491" type="curve"/>
			<point x="356" y="478" type="line"/>
			<point x="347" y="469"/>
			<point x="334" y="465"/>
		</contour>
	</outline>
</glyph>
<glyph name="twosuperior" format="2">
	<unicode hex="00B2"/>
	<advance width="385"/>
	<outline>
		<contour>
			<point x="193" y="795" type="curve" smooth="yes"/>
			<point x="248" y="795"/>
			<point x="282" y="761"/>
			<point x="282" y="708" type="curve" smooth="yes"/>
			<point x="282" y="642"/>
			<point x="249" y="592"/>
			<point x="55" y="417" type="curve"/>
			<point x="54" y="374" type="line"/>
			<point x="358" y="374" type="line"/>
			<point x="371" y="509" type="line"/>
			<point x="335" y="509" type="line"/>
			<point x="313" y="445"/>
			<point x="302" y="439"/>
			<point x="245" y="439" type="curve" smooth="yes"/>
			<point x="136" y="439" type="line"/>
			<point x="320" y="585"/>
			<point x="360" y="650"/>
			<point x="360" y="715" type="curve" smooth="yes"/>
			<point x="360" y="798"/>
			<point x="301" y="837"/>
			<point x="203" y="837" type="curve" smooth="yes"/>
			<point x="116" y="837"/>
			<point x="46" y="796"/>
			<point x="46" y="728" type="curve" smooth="yes"/>
			<point x="46" y="701"/>
			<point x="64" y="679"/>
			<point x="94" y="679" type="curve" smooth="yes"/>
			<point x="116" y="679"/>
			<point x="136" y="688"/>
			<point x="143" y="707" type="curve"/>
			<point x="127" y="727" type="line" smooth="yes"/>
			<point x="99" y="762"/>
			<point x="121" y="795"/>
		</contour>
	</outline>
</glyph>
<glyph name="threesuperior" format="2">
	<unicode hex="00B3"/>
	<advance width="397"/>
	<outline>
		<contour>
			<point x="357" y="738" type="curve" smooth="yes"/>
			<point x="357" y="802"/>
			<point x="303" y="839"/>
			<point x="212" y="839" type="curve" smooth="yes"/>
			<point x="127" y="839"/>
			<point x="66" y="799"/>
			<point x="66" y="743" type="curve" smooth="yes"/>
			<point x="66" y="714"/>
			<point x="86" y="693"/>
			<point x="115" y="693" type="curve" smooth="yes"/>
			<point x="136" y="693"/>
			<point x="155" y="706"/>
			<point x="163" y="727" type="curve"/>
			<point x="149" y="742" type="line" smooth="yes"/>
			<point x="123" y="770"/>
			<point x="149" y="795"/>
			<point x="200" y="795" type="curve" smooth="yes"/>
			<point x="257" y="795"/>
			<point x="287" y="774"/>
			<point x="287" y="733" type="curve" smooth="yes"/>
			<point x="287" y="674"/>
			<point x="242" y="638"/>
			<point x="157" y="628" type="curve"/>
			<point x="163" y="584" type="line"/>
			<point x="176" y="587"/>
			<point x="190" y="588"/>
			<point x="208" y="588" type="curve" smooth="yes"/>
			<point x="267" y="588"/>
			<point x="296" y="565"/>
			<point x="296" y="518" type="curve" smooth="yes"/>
			<point x="296" y="451"/>
			<point x="249" y="407"/>
			<point x="176" y="407" type="curve" smooth="yes"/>
			<point x="140" y="407"/>
			<point x="121" y="423"/>
			<point x="132" y="444" type="curve" smooth="yes"/>
			<point x="144" y="467" type="line"/>
			<point x="136" y="481"/>
			<point x="114" y="494"/>
			<point x="98" y="494" type="curve" smooth="yes"/>
			<point x="65" y="494"/>
			<point x="46" y="474"/>
			<point x="46" y="441" type="curve" smooth="yes"/>
			<point x="46" y="392"/>
			<point x="93" y="362"/>
			<point x="171" y="362" type="curve" smooth="yes"/>
			<point x="287" y="362"/>
			<point x="374" y="428"/>
			<point x="374" y="517" type="curve" smooth="yes"/>
			<point x="374" y="580"/>
			<point x="341" y="612"/>
			<point x="269" y="619" type="curve"/>
			<point x="269" y="625" type="line"/>
			<point x="324" y="646"/>
			<point x="357" y="688"/>
		</contour>
	</outline>
</glyph>
<glyph name="acute" format="2">
	<unicode hex="00B4"/>
	<advance width="502"/>
	<outline>
		<contour>
			<point x="302" y="744" type="curve" smooth="yes"/>
			<point x="194" y="603" type="line"/>
			<point x="216" y="580" type="line"/>
			<point x="383" y="703" type="line"/>
			<point x="390" y="749"/>
			<point x="376" y="773"/>
			<point x="347" y="773" type="curve" smooth="yes"/>
			<point x="328" y="773"/>
			<point x="318" y="764"/>
		</contour>
	</outline>
	<anchor name="_top" x="269" y="550"/>
</glyph>
<glyph name="cedilla" format="2">
	<unicode hex="00B8"/>
	<advance width="501"/>
	<outline>
		<contour>
			<point x="278" y="13" type="line"/>
			<point x="232" y="13" type="line"/>
			<point x="204" y="-76" type="line"/>
			<point x="212" y="-97" type="line"/>
			<point x="241" y="-94"/>
			<point x="280" y="-98"/>
			<point x="280" y="-135" type="curve" smooth="yes"/>
			<point x="280" y="-164"/>
			<point x="259" y="-177"/>
			<point x="228" y="-177" type="curve" smooth="yes"/>
			<point x="208" y="-177"/>
			<point x="182" y="-170"/>
			<point x="171" y="-166" type="curve"/>
			<point x="156" y="-212" type="line"/>
			<point x="177" y="-222"/>
			<point x="210" y="-229"/>
			<point x="238" y="-229" type="curve" smooth="yes"/>
			<point x="305" y="-229"/>
			<point x="356" y="-190"/>
			<point x="356" y="-130" type="curve" smooth="yes"/>
			<point x="356" y="-74"/>
			<point x="313" y="-54"/>
			<point x="257" y="-52" type="curve"/>
		</contour>
	</outline>
	<anchor name="_bottom" x="248" y="-30"/>
</glyph>
<glyph name="onesuperior" format="2">
	<unicode hex="00B9"/>
	<advance width="295"/>
	<outline>
		<contour>
			<point x="199" y="427" type="line"/>
			<point x="218" y="830" type="line"/>
			<point x="203" y="836" type="line"/>
			<point x="61" y="820" type="line"/>
			<point x="55" y="778" type="line"/>
			<point x="145" y="778" type="line"/>
			<point x="128" y="427" type="line"/>
			<point x="44" y="414" type="line"/>
			<point x="41" y="374" type="line"/>
			<point x="276" y="374" type="line"/>
			<point x="278" y="414" type="line"/>
		</contour>
	</outline>
</glyph>
<glyph name="AE" format="2">
	<unicode hex="00C6"/>
	<advance width="923"/>
	<outline>
		<contour>
			<point x="12" y="0" type="line"/>
			<point x="246" y="0" type="line"/>
			<point x="252" y="46" type="line"/>
			<point x="161" y="58" type="line"/>
			<point x="221" y="231" type="line"/>
			<point x="461" y="231" type="line"/>
			<point x="507" y="58" type="line"/>
			<point x="426" y="46" type="line"/>
			<point x="420" y="0" type="line"/>
			<point x="861" y="0" type="line"/>
			<point x="885" y="184" type="line"/>
			<point x="830" y="184" type="line"/>
			<point x="816" y="143" type="line" smooth="yes"/>
			<point x="794" y="78"/>
			<point x="774" y="58"/>
			<point x="713" y="58" type="curve" smooth="yes"/>
			<point x="602" y="58" type="line"/>
			<point x="531" y="328" type="line"/>
			<point x="752" y="328" type="line"/>
			<point x="757" y="391" type="line"/>
			<point x="513" y="391" type="line"/>
			<point x="443" y="643" type="line"/>
			<point x="622" y="643" type="line" smooth="yes"/>
			<point x="690" y="643"/>
			<point x="702" y="613"/>
			<point x="718" y="559" type="curve" smooth="yes"/>
			<point x="729" y="523" type="line"/>
			<point x="784" y="532" type="line"/>
			<point x="770" y="700" type="line"/>
			<point x="326" y="700" type="line"/>
			<point x="97" y="58" type="line"/>
			<point x="18" y="46" type="line"/>
		</contour>
		<contour>
			<point x="241" y="288" type="line"/>
			<point x="356" y="619" type="line"/>
			<point x="359" y="619" type="line"/>
			<point x="446" y="288" type="line"/>
		</contour>
	</outline>
	<anchor name="top" x="558" y="730"/>
</glyph>
<glyph name="Thorn" format="2">
	<unicode hex="00DE"/>
	<advance width="600"/>
	<outline>
		<contour>
			<point x="52" y="0" type="line"/>
			<point x="358" y="0" type="line"/>
			<point x="362" y="45" type="line"/>
			<point x="234" y="59" type="line"/>
			<point x="238" y="152" type="line"/>
			<point x="319" y="152" type="line" smooth="yes"/>
			<point x="471" y="152"/>
			<point x="566" y="234"/>
			<point x="566" y="361" type="curve" smooth="yes"/>
			<point x="566" y="504"/>
			<point x="462" y="559"/>
			<point x="312" y="559" type="curve" smooth="yes"/>
			<point x="253" y="559" type="line"/>
			<point x="256" y="640" type="line"/>
			<point x="367" y="654" type="line"/>
			<point x="373" y="700" type="line"/>
			<point x="90" y="700" type="line"/>
			<point x="84" y="654" type="line"/>
			<point x="171" y="637" type="line"/>
			<point x="146" y="60" type="line"/>
			<point x="57" y="44" type="line"/>
		</contour>
		<contour>
			<point x="240" y="206" type="line"/>
			<point x="252" y="505" type="line"/>
			<point x="303" y="505" type="line" smooth="yes"/>
			<point x="402" y="505"/>
			<point x="469" y="467"/>
			<point x="469" y="362" type="curve" smooth="yes"/>
			<point x="469" y="256"/>
			<point x="419" y="206"/>
			<point x="315" y="206" type="curve" smooth="yes"/>
		</contour>
	</outline>
</glyph>
<glyph name="ccedilla" format="2">
	<unicode hex="00E7"/>
	<advance width="486"/>
	<outline>
		<contour>
			<point x="235" y="-229" type="curve" smooth="yes"/>
			<point x="302" y="-229"/>
			<point x="353" y="-190"/>
			<point x="353" y="-130" type="curve" smooth="yes"/>
			<point x="353" y="-74"/>
			<point x="310" y="-54"/>
			<point x="254" y="-52" type="curve"/>
			<point x="267" y="-13" type="line"/>
			<point x="354" y="-2"/>
			<point x="412" y="64"/>
			<point x="434" y="93" type="curve"/>
			<point x="399" y="129" type="line"/>
			<point x="353" y="78"/>
			<point x="307" y="52"/>
			<point x="261" y="52" type="curve" smooth="yes"/>
			<point x="178" y="52"/>
			<point x="138" y="132"/>
			<point x="138" y="228" type="curve" smooth="yes"/>
			<point x="138" y="387"/>
			<point x="197" y="465"/>
			<point x="289" y="465" type="curve" smooth="yes"/>
			<point x="340" y="465"/>
			<point x="380" y="440"/>
			<point x="341" y="396" type="curve" smooth="yes"/>
			<point x="320" y="372" type="line"/>
			<point x="330" y="348"/>
			<point x="354" y="330"/>
			<point x="382" y="330" type="curve" smooth="yes"/>
			<point x="420" y="330"/>
			<point x="443" y="356"/>
			<point x="443" y="394" type="curve" smooth="yes"/>
			<point x="443" y="473"/>
			<point x="378" y="521"/>
			<point x="291" y="521" type="curve" smooth="yes"/>
			<point x="143" y="521"/>
			<point x="47" y="397"/>
			<point x="47" y="225" type="curve" smooth="yes"/>
			<point x="47" y="96"/>
			<point x="108" y="-2"/>
			<point x="221" y="-13" type="curve"/>
			<point x="201" y="-76" type="line"/>
			<point x="209" y="-97" type="line"/>
			<point x="238" y="-94"/>
			<point x="277" y="-98"/>
			<point x="277" y="-135" type="curve" smooth="yes"/>
			<point x="277" y="-164"/>
			<point x="256" y="-177"/>
			<point x="225" y="-177" type="curve" smooth="yes"/>
			<point x="205" y="-177"/>
			<point x="179" y="-170"/>
			<point x="168" y="-166" type="curve"/>
			<point x="153" y="-212" type="line"/>
			<point x="174" y="-222"/>
			<point x="207" y="-229"/>
		</contour>
	</outline>
</glyph>
<glyph name="eth" format="2">
	<unicode hex="00F0"/>
	<advance width="541"/>
	<outline>
		<contour>
			<point x="254" y="-14" type="curve" smooth="yes"/>
			<point x="419" y="-14"/>
			<point x="485" y="134"/>
			<point x="485" y="330" type="curve" smooth="yes"/>
			<point x="485" y="448"/>
			<point x="472" y="586"/>
			<point x="381" y="677" type="curve"/>
			<point x="475" y="728" type="line"/>
			<point x="455" y="774" type="line"/>
			<point x="340" y="711" type="line"/>
			<point x="296" y="741"/>
			<point x="240" y="762"/>
			<point x="168" y="771" type="curve"/>
			<point x="158" y="727" type="line"/>
			<point x="206" y="717"/>
			<point x="245" y="700"/>
			<point x="276" y="676" type="curve"/>
			<point x="195" y="632" type="line"/>
			<point x="215" y="586" type="line"/>
			<point x="314" y="640" type="line"/>
			<point x="357" y="589"/>
			<point x="378" y="524"/>
			<point x="389" y="457" type="curve"/>
			<point x="385" y="455" type="line"/>
			<point x="359" y="496"/>
			<point x="314" y="521"/>
			<point x="263" y="521" type="curve" smooth="yes"/>
			<point x="107" y="521"/>
			<point x="48" y="385"/>
			<point x="48" y="235" type="curve" smooth="yes"/>
			<point x="48" y="84"/>
			<point x="122" y="-14"/>
		</contour>
		<contour>
			<point x="260" y="45" type="curve" smooth="yes"/>
			<point x="179" y="45"/>
			<point x="143" y="120"/>
			<point x="143" y="231" type="curve" smooth="yes"/>
			<point x="143" y="352"/>
			<point x="163" y="463"/>
			<point x="270" y="463" type="curve" smooth="yes"/>
			<point x="361" y="463"/>
			<point x="393" y="385"/>
			<point x="393" y="276" type="curve" smooth="yes"/>
			<point x="393" y="155"/>
			<point x="367" y="45"/>
		</contour>
	</outline>
</glyph>
<glyph name="divide" format="2">
	<unicode hex="00F7"/>
	<advance width="582"/>
	<outline>
		<contour>
			<point x="78" y="275" type="line"/>
			<point x="506" y="275" type="line"/>
			<point x="509" y="338" type="line"/>
			<point x="81" y="338" type="line"/>
		</contour>
		<contour>
			<point x="283" y="89" type="curve" smooth="yes"/>
			<point x="319" y="89"/>
			<point x="352" y="116"/>
			<point x="352" y="151" type="curve" smooth="yes"/>
			<point x="352" y="186"/>
			<point x="324" y="212"/>
			<point x="288" y="212" type="curve" smooth="yes"/>
			<point x="253" y="212"/>
			<point x="221" y="185"/>
			<point x="221" y="150" type="curve" smooth="yes"/>
			<point x="221" y="115"/>
			<point x="248" y="89"/>
		</contour>
		<contour>
			<point x="297" y="397" type="curve" smooth="yes"/>
			<point x="333" y="397"/>
			<point x="365" y="424"/>
			<point x="365" y="459" type="curve" smooth="yes"/>
			<point x="365" y="494"/>
			<point x="338" y="520"/>
			<point x="302" y="520" type="curve" smooth="yes"/>
			<point x="267" y="520"/>
			<point x="234" y="493"/>
			<point x="234" y="458" type="curve" smooth="yes"/>
			<point x="234" y="423"/>
			<point x="262" y="397"/>
		</contour>
	</outline>
</glyph>
<glyph name="Aogonek" format="2">
	<unicode hex="0104"/>
	<advance width="691"/>
	<outline>
		<contour>
			<point x="502" y="-229" type="curve" smooth="yes"/>
			<point x="557" y="-229"/>
			<point x="600" y="-195"/>
			<point x="626" y="-156" type="curve"/>
			<point x="598" y="-128" type="line"/>
			<point x="580" y="-147"/>
			<point x="559" y="-161"/>
			<point x="541" y="-161" type="curve" smooth="yes"/>
			<point x="520" y="-161"/>
			<point x="510" y="-150"/>
			<point x="510" y="-128" type="curve" smooth="yes"/>
			<point x="510" y="-81"/>
			<point x="553" y="-33"/>
			<point x="592" y="0" type="curve"/>
			<point x="686" y="0" type="line"/>
			<point x="692" y="46" type="line"/>
			<point x="607" y="57" type="line"/>
			<point x="425" y="706" type="line"/>
			<point x="326" y="695" type="line"/>
			<point x="97" y="58" type="line"/>
			<point x="18" y="46" type="line"/>
			<point x="12" y="0" type="line"/>
			<point x="246" y="0" type="line"/>
			<point x="252" y="46" type="line"/>
			<point x="161" y="58" type="line"/>
			<point x="221" y="231" type="line"/>
			<point x="461" y="231" type="line"/>
			<point x="507" y="58" type="line"/>
			<point x="426" y="46" type="line"/>
			<point x="420" y="0" type="line"/>
			<point x="535" y="0" type="line"/>
			<point x="485" y="-37"/>
			<point x="427" y="-92"/>
			<point x="427" y="-155" type="curve" smooth="yes"/>
			<point x="427" y="-204"/>
			<point x="462" y="-229"/>
		</contour>
		<contour>
			<point x="241" y="288" type="line"/>
			<point x="356" y="619" type="line"/>
			<point x="359" y="619" type="line"/>
			<point x="446" y="288" type="line"/>
		</contour>
	</outline>
</glyph>
<glyph name="Eogonek" format="2">
	<unicode hex="0118"/>
	<advance width="593"/>
	<outline>
		<contour>
			<point x="52" y="0" type="line"/>
			<point x="460" y="0" type="line"/>
			<point x="405" y="-30"/>
			<point x="325" y="-88"/>
			<point x="325" y="-155" type="curve" smooth="yes"/>
			<point x="325" y="-204"/>
			<point x="360" y="-229"/>
			<point x="400" y="-229" type="curve" smooth="yes"/>
			<point x="455" y="-229"/>
			<point x="498" y="-195"/>
			<point x="524" y="-156" type="curve"/>
			<point x="496" y="-128" type="line"/>
			<point x="478" y="-147"/>
			<point x="457" y="-161"/>
			<point x="439" y="-161" type="curve" smooth="yes"/>
			<point x="418" y="-161"/>
			<point x="408" y="-150"/>
			<point x="408" y="-128" type="curve" smooth="yes"/>
			<point x="408" y="-82"/>
			<point x="461" y="-32"/>
			<point x="531" y="0" type="curve"/>
			<point x="555" y="184" type="line"/>
			<point x="500" y="184" type="line"/>
			<point x="486" y="143" type="line" smooth="yes"/>
			<point x="464" y="78"/>
			<point x="444" y="58"/>
			<point x="383" y="58" type="curve" smooth="yes"/>
			<point x="226" y="58" type="line"/>
			<point x="237" y="328" type="line"/>
			<point x="484" y="328" type="line"/>
			<point x="489" y="391" type="line"/>
			<point x="240" y="391" type="line"/>
			<point x="250" y="643" type="line"/>
			<point x="389" y="643" type="line" smooth="yes"/>
			<point x="452" y="643"/>
			<point x="466" y="622"/>
			<point x="485" y="559" type="curve" smooth="yes"/>
			<point x="496" y="523" type="line"/>
			<point x="551" y="532" type="line"/>
			<point x="537" y="700" type="line"/>
			<point x="83" y="700" type="line"/>
			<point x="77" y="654" type="line"/>
			<point x="163" y="637" type="line"/>
			<point x="140" y="59" type="line"/>
			<point x="58" y="46" type="line"/>
		</contour>
	</outline>
</glyph>
<glyph name="eogonek" format="2">
	<unicode hex="0119"/>
	<advance width="477"/>
	<outline>
		<contour>
			<point x="47" y="225" type="curve" smooth="yes"/>
			<point x="47" y="79"/>
			<point x="124" y="-14"/>
			<point x="245" y="-14" type="curve" smooth="yes"/>
			<point x="267" y="-14"/>
			<point x="287" y="-11"/>
			<point x="306" y="-5" type="curve"/>
			<point x="234" y="-73"/>
			<point x="210" y="-112"/>
			<point x="210" y="-160" type="curve" smooth="yes"/>
			<point x="210" y="-201"/>
			<point x="241" y="-229"/>
			<point x="285" y="-229" type="curve" smooth="yes"/>
			<point x="333" y="-229"/>
			<point x="378" y="-202"/>
			<point x="409" y="-156" type="curve"/>
			<point x="381" y="-128" type="line"/>
			<point x="363" y="-148"/>
			<point x="340" y="-161"/>
			<point x="324" y="-161" type="curve" smooth="yes"/>
			<point x="303" y="-161"/>
			<point x="293" y="-150"/>
			<point x="293" y="-127" type="curve" smooth="yes"/>
			<point x="293" y="-85"/>
			<point x="330" y="-22"/>
			<point x="392" y="40" type="curve" smooth="yes"/>
			<point x="408" y="56"/>
			<point x="421" y="70"/>
			<point x="429" y="80" type="curve"/>
			<point x="395" y="117" type="line"/>
			<point x="345" y="71"/>
			<point x="307" y="52"/>
			<point x="265" y="52" type="curve" smooth="yes"/>
			<point x="198" y="52"/>
			<point x="146" y="112"/>
			<point x="138" y="199" type="curve"/>
			<point x="249" y="226" type="line" smooth="yes"/>
			<point x="374" y="257"/>
			<point x="432" y="311"/>
			<point x="432" y="394" type="curve" smooth="yes"/>
			<point x="432" y="476"/>
			<point x="381" y="521"/>
			<point x="287" y="521" type="curve" smooth="yes"/>
			<point x="145" y="521"/>
			<point x="47" y="400"/>
		</contour>
		<contour>
			<point x="138" y="256" type="line"/>
			<point x="145" y="388"/>
			<point x="197" y="465"/>
			<point x="280" y="465" type="curve" smooth="yes"/>
			<point x="320" y="465"/>
			<point x="343" y="438"/>
			<point x="343" y="391" type="curve" smooth="yes"/>
			<point x="343" y="331"/>
			<point x="315" y="302"/>
			<point x="239" y="282" type="curve" smooth="yes"/>
		</contour>
	</outline>
</glyph>
<glyph name="Hbar" format="2">
	<unicode hex="0126"/>
	<advance width="760"/>
	<outline>
		<contour>
			<point x="52" y="0" type="line"/>
			<point x="317" y="0" type="line"/>
			<point x="323" y="46" type="line"/>
			<point x="228" y="59" type="line"/>
			<point x="238" y="328" type="line"/>
			<point x="552" y="328" type="line"/>
			<point x="541" y="59" type="line"/>
			<point x="459" y="46" type="line"/>
			<point x="453" y="0" type="line"/>
			<point x="718" y="0" type="line"/>
			<point x="724" y="46" type="line"/>
			<point x="629" y="59" type="line"/>
			<point x="645" y="489" type="line"/>
			<point x="754" y="489" type="line"/>
			<point x="760" y="546" type="line"/>
			<point x="648" y="546" type="line"/>
			<point x="651" y="637" type="line"/>
			<point x="736" y="654" type="line"/>
			<point x="742" y="700" type="line"/>
			<point x="485" y="700" type="line"/>
			<point x="479" y="654" type="line"/>
			<point x="565" y="637" type="line"/>
			<point x="561" y="546" type="line"/>
			<point x="246" y="546" type="line"/>
			<point x="250" y="637" type="line"/>
			<point x="335" y="654" type="line"/>
			<point x="341" y="700" type="line"/>
			<point x="83" y="700" type="line"/>
			<point x="77" y="654" type="line"/>
			<point x="163" y="637" type="line"/>
			<point x="159" y="546" type="line"/>
			<point x="50" y="546" type="line"/>
			<point x="43" y="489" type="line"/>
			<point x="157" y="489" type="line"/>
			<point x="140" y="59" type="line"/>
			<point x="58" y="46" type="line"/>
		</contour>
		<contour>
			<point x="240" y="391" type="line"/>
			<point x="244" y="489" type="line"/>
			<point x="558" y="489" type="line"/>
			<point x="554" y="391" type="line"/>
		</contour>
	</outline>
</glyph>
<glyph name="idotless" format="2">
	<unicode hex="0131"/>
	<advance width="298"/>
	<outline>
		<contour>
			<point x="119" y="416" type="curve" smooth="yes"/>
			<point x="93" y="77" type="line" smooth="yes"/>
			<point x="89" y="29"/>
			<point x="105" y="-14"/>
			<point x="168" y="-14" type="curve" smooth="yes"/>
			<point x="226" y="-14"/>
			<point x="270" y="22"/>
			<point x="291" y="43" type="curve"/>
			<point x="266" y="81" type="line"/>
			<point x="239" y="58"/>
			<point x="219" y="47"/>
			<point x="204" y="47" type="curve" smooth="yes"/>
			<point x="182" y="47"/>
			<point x="179" y="60"/>
			<point x="181" y="90" type="curve" smooth="yes"/>
			<point x="204" y="408" type="line" smooth="yes"/>
			<point x="210" y="486"/>
			<point x="185" y="521"/>
			<point x="131" y="521" type="curve" smooth="yes"/>
			<point x="87" y="521"/>
			<point x="40" y="501"/>
			<point x="15" y="486" type="curve"/>
			<point x="31" y="441" type="line"/>
			<point x="59" y="453"/>
			<point x="77" y="457"/>
			<point x="94" y="457" type="curve" smooth="yes"/>
			<point x="115" y="457"/>
			<point x="121" y="447"/>
		</contour>
	</outline>
	<anchor name="bottom" x="169" y="-30"/>
	<anchor name="top" x="123" y="550"/>
</glyph>
<glyph name="lslash" format="2">
	<unicode hex="0142"/>
	<advance width="319"/>
	<outline>
		<contour>
			<point x="181" y="-14" type="curve" smooth="yes"/>
			<point x="239" y="-14"/>
			<point x="281" y="22"/>
			<point x="302" y="43" type="curve"/>
			<point x="277" y="81" type="line"/>
			<point x="252" y="59"/>
			<point x="232" y="48"/>
			<point x="217" y="48" type="curve" smooth="yes"/>
			<point x="194" y="48"/>
			<point x="191" y="60"/>
			<point x="192" y="90" type="curve" smooth="yes"/>
			<point x="202" y="374" type="line"/>
			<point x="311" y="437" type="line"/>
			<point x="318" y="507" type="line"/>
			<point x="204" y="442" type="line"/>
			<point x="215" y="756" type="line"/>
			<point x="199" y="767" type="line"/>
			<point x="44" y="767" type="line"/>
			<point x="38" y="719" type="line"/>
			<point x="131" y="698" type="line"/>
			<point x="118" y="407" type="line"/>
			<point x="28" y="359" type="line"/>
			<point x="21" y="289" type="line"/>
			<point x="115" y="340" type="line"/>
			<point x="104" y="77" type="line" smooth="yes"/>
			<point x="102" y="23"/>
			<point x="117" y="-14"/>
		</contour>
	</outline>
</glyph>
<glyph name="Eng" format="2">
	<unicode hex="014A"/>
	<advance width="747"/>
	<outline>
		<contour>
			<point x="52" y="0" type="line"/>
			<point x="295" y="0" type="line"/>
			<point x="301" y="46" type="line"/>
			<point x="207" y="59" type="line"/>
			<point x="227" y="619" type="line"/>
			<point x="525" y="2" type="line"/>
			<point x="517" y="-81"/>
			<point x="493" y="-140"/>
			<point x="430" y="-188" type="curve"/>
			<point x="456" y="-229" type="line"/>
			<point x="575" y="-165"/>
			<point x="621" y="-84"/>
			<point x="627" y="95" type="curve" smooth="yes"/>
			<point x="648" y="637" type="line"/>
			<point x="733" y="654" type="line"/>
			<point x="739" y="700" type="line"/>
			<point x="502" y="700" type="line"/>
			<point x="496" y="654" type="line"/>
			<point x="581" y="637" type="line"/>
			<point x="563" y="119" type="line"/>
			<point x="287" y="700" type="line"/>
			<point x="90" y="700" type="line"/>
			<point x="84" y="652" type="line"/>
			<point x="163" y="641" type="line"/>
			<point x="139" y="59" type="line"/>
			<point x="58" y="46" type="line"/>
		</contour>
	</outline>
</glyph>
<glyph name="eng" format="2">
	<unicode hex="014B"/>
	<advance width="591"/>
	<outline>
		<contour>
			<point x="313" y="-229" type="curve" smooth="yes"/>
			<point x="342" y="-229"/>
			<point x="370" y="-213"/>
			<point x="394" y="-184" type="curve" smooth="yes"/>
			<point x="444" y="-124"/>
			<point x="474" y="13"/>
			<point x="483" y="122" type="curve" smooth="yes"/>
			<point x="502" y="348" type="line" smooth="yes"/>
			<point x="512" y="465"/>
			<point x="488" y="521"/>
			<point x="399" y="521" type="curve" smooth="yes"/>
			<point x="322" y="521"/>
			<point x="282" y="473"/>
			<point x="246" y="367" type="curve" smooth="yes"/>
			<point x="173" y="150" type="line"/>
			<point x="166" y="152" type="line"/>
			<point x="191" y="419" type="line" smooth="yes"/>
			<point x="197" y="486"/>
			<point x="178" y="521"/>
			<point x="121" y="521" type="curve" smooth="yes"/>
			<point x="81" y="521"/>
			<point x="27" y="500"/>
			<point x="6" y="488" type="curve"/>
			<point x="23" y="438" type="line"/>
			<point x="51" y="450"/>
			<point x="69" y="456"/>
			<point x="82" y="456" type="curve" smooth="yes"/>
			<point x="103" y="456"/>
			<point x="110" y="445"/>
			<point x="109" y="416" type="curve" smooth="yes"/>
			<point x="93" y="0" type="line"/>
			<point x="175" y="0" type="line"/>
			<point x="292" y="330" type="line" smooth="yes"/>
			<point x="322" y="416"/>
			<point x="338" y="447"/>
			<point x="378" y="447" type="curve" smooth="yes"/>
			<point x="412" y="447"/>
			<point x="422" y="421"/>
			<point x="417" y="354" type="curve" smooth="yes"/>
			<point x="382" y="-82" type="line" smooth="yes"/>
			<point x="378" y="-133"/>
			<point x="344" y="-145"/>
			<point x="311" y="-131" type="curve" smooth="yes"/>
			<point x="270" y="-114" type="line"/>
			<point x="253" y="-138"/>
			<point x="246" y="-160"/>
			<point x="246" y="-179" type="curve" smooth="yes"/>
			<point x="246" y="-209"/>
			<point x="271" y="-229"/>
		</contour>
	</outline>
</glyph>
<glyph name="OE" format="2">
	<unicode hex="0152"/>
	<advance width="993"/>
	<outline>
		<contour>
			<point x="59" y="328" type="curve" smooth="yes"/>
			<point x="59" y="138"/>
			<point x="158" y="-14"/>
			<point x="353" y="-14" type="curve" smooth="yes"/>
			<point x="385" y="-14"/>
			<point x="417" y="-9"/>
			<point x="447" y="0" type="curve"/>
			<point x="931" y="0" type="line"/>
			<point x="955" y="184" type="line"/>
			<point x="900" y="184" type="line"/>
			<point x="886" y="143" type="line" smooth="yes"/>
			<point x="864" y="78"/>
			<point x="843" y="58"/>
			<point x="783" y="58" type="curve" smooth="yes"/>
			<point x="550" y="58" type="line"/>
			<point x="616" y="115"/>
			<point x="661" y="206"/>
			<point x="671" y="328" type="curve"/>
			<point x="884" y="328" type="line"/>
			<point x="889" y="391" type="line"/>
			<point x="674" y="391" type="line"/>
			<point x="672" y="504"/>
			<point x="636" y="588"/>
			<point x="578" y="643" type="curve"/>
			<point x="789" y="643" type="line" smooth="yes"/>
			<point x="857" y="643"/>
			<point x="869" y="613"/>
			<point x="885" y="559" type="curve" smooth="yes"/>
			<point x="896" y="523" type="line"/>
			<point x="951" y="532" type="line"/>
			<point x="937" y="700" type="line"/>
			<point x="482" y="700" type="line"/>
			<point x="452" y="710"/>
			<point x="419" y="715"/>
			<point x="385" y="715" type="curve" smooth="yes"/>
			<point x="223" y="715"/>
			<point x="59" y="610"/>
		</contour>
		<contour>
			<point x="154" y="349" type="curve" smooth="yes"/>
			<point x="154" y="568"/>
			<point x="253" y="653"/>
			<point x="371" y="653" type="curve" smooth="yes"/>
			<point x="500" y="653"/>
			<point x="576" y="549"/>
			<point x="576" y="364" type="curve" smooth="yes"/>
			<point x="576" y="149"/>
			<point x="489" y="51"/>
			<point x="366" y="51" type="curve" smooth="yes"/>
			<point x="229" y="51"/>
			<point x="154" y="173"/>
		</contour>
	</outline>
</glyph>
<glyph name="oe" format="2">
	<unicode hex="0153"/>
	<advance width="820"/>
	<outline>
		<contour>
			<point x="630" y="521" type="curve" smooth="yes"/>
			<point x="551" y="521"/>
			<point x="482" y="474"/>
			<point x="447" y="407" type="curve"/>
			<point x="420" y="474"/>
			<point x="364" y="521"/>
			<point x="283" y="521" type="curve" smooth="yes"/>
			<point x="112" y="521"/>
			<point x="48" y="385"/>
			<point x="48" y="235" type="curve" smooth="yes"/>
			<point x="48" y="84"/>
			<point x="122" y="-14"/>
			<point x="254" y="-14" type="curve" smooth="yes"/>
			<point x="340" y="-14"/>
			<point x="397" y="31"/>
			<point x="434" y="96" type="curve"/>
			<point x="458" y="32"/>
			<point x="513" y="-14"/>
			<point x="588" y="-14" type="curve" smooth="yes"/>
			<point x="654" y="-14"/>
			<point x="727" y="23"/>
			<point x="772" y="80" type="curve"/>
			<point x="738" y="117" type="line"/>
			<point x="690" y="72"/>
			<point x="650" y="52"/>
			<point x="608" y="52" type="curve" smooth="yes"/>
			<point x="525" y="52"/>
			<point x="487" y="132"/>
			<point x="481" y="199" type="curve"/>
			<point x="592" y="226" type="line" smooth="yes"/>
			<point x="717" y="256"/>
			<point x="775" y="311"/>
			<point x="775" y="394" type="curve" smooth="yes"/>
			<point x="775" y="471"/>
			<point x="730" y="521"/>
		</contour>
		<contour>
			<point x="260" y="45" type="curve" smooth="yes"/>
			<point x="179" y="45"/>
			<point x="143" y="120"/>
			<point x="143" y="231" type="curve" smooth="yes"/>
			<point x="143" y="352"/>
			<point x="168" y="463"/>
			<point x="275" y="463" type="curve" smooth="yes"/>
			<point x="366" y="463"/>
			<point x="397" y="384"/>
			<point x="397" y="275" type="curve" smooth="yes"/>
			<point x="397" y="154"/>
			<point x="367" y="45"/>
		</contour>
		<contour>
			<point x="686" y="391" type="curve" smooth="yes"/>
			<point x="686" y="331"/>
			<point x="658" y="302"/>
			<point x="582" y="282" type="curve" smooth="yes"/>
			<point x="481" y="256" type="line"/>
			<point x="488" y="387"/>
			<point x="540" y="465"/>
			<point x="623" y="465" type="curve" smooth="yes"/>
			<point x="669" y="465"/>
			<point x="686" y="430"/>
		</contour>
	</outline>
</glyph>
<glyph name="tcedilla" format="2">
	<unicode hex="0163"/>
	<advance width="402"/>
	<outline>
		<contour>
			<point x="218" y="-229" type="curve" smooth="yes"/>
			<point x="285" y="-229"/>
			<point x="336" y="-190"/>
			<point x="336" y="-130" type="curve" smooth="yes"/>
			<point x="336" y="-74"/>
			<point x="293" y="-54"/>
			<point x="237" y="-52" type="curve"/>
			<point x="250" y="-13" type="line"/>
			<point x="307" y="-7"/>
			<point x="354" y="27"/>
			<point x="386" y="70" type="curve"/>
			<point x="354" y="105" type="line"/>
			<point x="323" y="75"/>
			<point x="291" y="52"/>
			<point x="253" y="52" type="curve" smooth="yes"/>
			<point x="206" y="52"/>
			<point x="185" y="81"/>
			<point x="188" y="137" type="curve" smooth="yes"/>
			<point x="203" y="448" type="line"/>
			<point x="358" y="448" type="line"/>
			<point x="362" y="507" type="line"/>
			<point x="206" y="507" type="line"/>
			<point x="216" y="674" type="line"/>
			<point x="161" y="674" type="line"/>
			<point x="120" y="509" type="line"/>
			<point x="44" y="501" type="line"/>
			<point x="36" y="448" type="line"/>
			<point x="116" y="448" type="line"/>
			<point x="102" y="133" type="line" smooth="yes"/>
			<point x="98" y="52"/>
			<point x="127" y="-2"/>
			<point x="204" y="-12" type="curve"/>
			<point x="184" y="-76" type="line"/>
			<point x="192" y="-97" type="line"/>
			<point x="221" y="-94"/>
			<point x="260" y="-98"/>
			<point x="260" y="-135" type="curve" smooth="yes"/>
			<point x="260" y="-164"/>
			<point x="239" y="-177"/>
			<point x="208" y="-177" type="curve" smooth="yes"/>
			<point x="188" y="-177"/>
			<point x="162" y="-170"/>
			<point x="151" y="-166" type="curve"/>
			<point x="136" y="-212" type="line"/>
			<point x="157" y="-222"/>
			<point x="190" y="-229"/>
		</contour>
	</outline>
</glyph>
<glyph name="Tbar" format="2">
	<unicode hex="0166"/>
	<advance width="621"/>
	<outline>
		<contour>
			<point x="158" y="0" type="line"/>
			<point x="456" y="0" type="line"/>
			<point x="462" y="46" type="line"/>
			<point x="353" y="58" type="line"/>
			<point x="363" y="315" type="line"/>
			<point x="519" y="315" type="line"/>
			<point x="523" y="377" type="line"/>
			<point x="365" y="377" type="line"/>
			<point x="375" y="643" type="line"/>
			<point x="464" y="643" type="line" smooth="yes"/>
			<point x="519" y="643"/>
			<point x="537" y="628"/>
			<point x="559" y="562" type="curve" smooth="yes"/>
			<point x="572" y="523" type="line"/>
			<point x="626" y="533" type="line"/>
			<point x="612" y="700" type="line"/>
			<point x="59" y="700" type="line"/>
			<point x="35" y="534" type="line"/>
			<point x="91" y="523" type="line"/>
			<point x="104" y="562" type="line" smooth="yes"/>
			<point x="129" y="637"/>
			<point x="149" y="643"/>
			<point x="202" y="643" type="curve" smooth="yes"/>
			<point x="290" y="643" type="line"/>
			<point x="280" y="377" type="line"/>
			<point x="122" y="377" type="line"/>
			<point x="117" y="315" type="line"/>
			<point x="278" y="315" type="line"/>
			<point x="269" y="59" type="line"/>
			<point x="164" y="46" type="line"/>
		</contour>
	</outline>
</glyph>
<glyph name="Uogonek" format="2">
	<unicode hex="0172"/>
	<advance width="748"/>
	<outline>
		<contour>
			<point x="550" y="-229" type="curve" smooth="yes"/>
			<point x="605" y="-229"/>
			<point x="648" y="-195"/>
			<point x="674" y="-156" type="curve"/>
			<point x="646" y="-128" type="line"/>
			<point x="628" y="-147"/>
			<point x="607" y="-161"/>
			<point x="589" y="-161" type="curve" smooth="yes"/>
			<point x="568" y="-161"/>
			<point x="558" y="-150"/>
			<point x="558" y="-128" type="curve" smooth="yes"/>
			<point x="558" y="-81"/>
			<point x="601" y="-33"/>
			<point x="640" y="0" type="curve"/>
			<point x="689" y="0" type="line"/>
			<point x="696" y="47" type="line"/>
			<point x="610" y="60" type="line"/>
			<point x="641" y="637" type="line"/>
			<point x="714" y="654" type="line"/>
			<point x="720" y="700" type="line"/>
			<point x="488" y="700" type="line"/>
			<point x="482" y="654" type="line"/>
			<point x="565" y="637" type="line"/>
			<point x="556" y="570" type="line" smooth="yes"/>
			<point x="526" y="345"/>
			<point x="457" y="58"/>
			<point x="306" y="58" type="curve" smooth="yes"/>
			<point x="230" y="58"/>
			<point x="201" y="108"/>
			<point x="207" y="230" type="curve" smooth="yes"/>
			<point x="228" y="637" type="line"/>
			<point x="313" y="654" type="line"/>
			<point x="319" y="700" type="line"/>
			<point x="71" y="700" type="line"/>
			<point x="65" y="654" type="line"/>
			<point x="141" y="639" type="line"/>
			<point x="119" y="222" type="line" smooth="yes"/>
			<point x="111" y="67"/>
			<point x="170" y="-14"/>
			<point x="293" y="-14" type="curve" smooth="yes"/>
			<point x="424" y="-14"/>
			<point x="498" y="90"/>
			<point x="561" y="365" type="curve"/>
			<point x="565" y="365" type="line"/>
			<point x="530" y="12" type="line"/>
			<point x="537" y="0" type="line"/>
			<point x="583" y="0" type="line"/>
			<point x="533" y="-37"/>
			<point x="475" y="-92"/>
			<point x="475" y="-155" type="curve" smooth="yes"/>
			<point x="475" y="-204"/>
			<point x="510" y="-229"/>
		</contour>
	</outline>
</glyph>
<glyph name="uogonek" format="2">
	<unicode hex="0173"/>
	<advance width="593"/>
	<outline>
		<contour>
			<point x="16" y="472" type="curve"/>
			<point x="39" y="436" type="line"/>
			<point x="56" y="451"/>
			<point x="79" y="460"/>
			<point x="95" y="460" type="curve" smooth="yes"/>
			<point x="116" y="460"/>
			<point x="121" y="450"/>
			<point x="118" y="417" type="curve" smooth="yes"/>
			<point x="96" y="162" type="line" smooth="yes"/>
			<point x="85" y="35"/>
			<point x="113" y="-14"/>
			<point x="195" y="-14" type="curve" smooth="yes"/>
			<point x="269" y="-14"/>
			<point x="314" y="30"/>
			<point x="348" y="140" type="curve" smooth="yes"/>
			<point x="416" y="359" type="line"/>
			<point x="424" y="358" type="line"/>
			<point x="399" y="88" type="line" smooth="yes"/>
			<point x="393" y="18"/>
			<point x="416" y="-14"/>
			<point x="472" y="-14" type="curve"/>
			<point x="407" y="-69"/>
			<point x="379" y="-112"/>
			<point x="379" y="-155" type="curve" smooth="yes"/>
			<point x="379" y="-199"/>
			<point x="409" y="-229"/>
			<point x="454" y="-229" type="curve" smooth="yes"/>
			<point x="502" y="-229"/>
			<point x="547" y="-202"/>
			<point x="578" y="-156" type="curve"/>
			<point x="550" y="-128" type="line"/>
			<point x="530" y="-149"/>
			<point x="509" y="-161"/>
			<point x="493" y="-161" type="curve" smooth="yes"/>
			<point x="472" y="-161"/>
			<point x="462" y="-150"/>
			<point x="462" y="-128" type="curve" smooth="yes"/>
			<point x="462" y="-75"/>
			<point x="503" y="-26"/>
			<point x="584" y="19" type="curve"/>
			<point x="567" y="69" type="line"/>
			<point x="545" y="59"/>
			<point x="524" y="51"/>
			<point x="508" y="51" type="curve" smooth="yes"/>
			<point x="488" y="51"/>
			<point x="480" y="62"/>
			<point x="481" y="91" type="curve" smooth="yes"/>
			<point x="497" y="508" type="line"/>
			<point x="415" y="508" type="line"/>
			<point x="302" y="180" type="line" smooth="yes"/>
			<point x="268" y="82"/>
			<point x="252" y="60"/>
			<point x="216" y="60" type="curve" smooth="yes"/>
			<point x="184" y="60"/>
			<point x="175" y="84"/>
			<point x="181" y="156" type="curve" smooth="yes"/>
			<point x="206" y="438" type="line" smooth="yes"/>
			<point x="211" y="493"/>
			<point x="186" y="521"/>
			<point x="133" y="521" type="curve" smooth="yes"/>
			<point x="99" y="521"/>
			<point x="45" y="498"/>
		</contour>
	</outline>
</glyph>
<glyph name="Uhorn" format="2">
	<unicode hex="01AF"/>
	<advance width="812"/>
	<outline>
		<contour>
			<point x="293" y="-14" type="curve" smooth="yes"/>
			<point x="445" y="-14"/>
			<point x="508" y="134"/>
			<point x="561" y="365" type="curve"/>
			<point x="565" y="365" type="line"/>
			<point x="530" y="12" type="line"/>
			<point x="537" y="0" type="line"/>
			<point x="689" y="0" type="line"/>
			<point x="696" y="47" type="line"/>
			<point x="610" y="60" type="line"/>
			<point x="631" y="460" type="line"/>
			<point x="764" y="491"/>
			<point x="827" y="596"/>
			<point x="827" y="682" type="curve" smooth="yes"/>
			<point x="827" y="727"/>
			<point x="800" y="759"/>
			<point x="758" y="759" type="curve" smooth="yes"/>
			<point x="715" y="759"/>
			<point x="692" y="730"/>
			<point x="692" y="695" type="curve" smooth="yes"/>
			<point x="692" y="682"/>
			<point x="695" y="670"/>
			<point x="702" y="660" type="curve"/>
			<point x="734" y="655" type="line" smooth="yes"/>
			<point x="749" y="653"/>
			<point x="755" y="645"/>
			<point x="755" y="630" type="curve" smooth="yes"/>
			<point x="755" y="573"/>
			<point x="692" y="525"/>
			<point x="634" y="511" type="curve"/>
			<point x="644" y="700" type="line"/>
			<point x="488" y="700" type="line"/>
			<point x="482" y="654" type="line"/>
			<point x="565" y="637" type="line"/>
			<point x="556" y="570" type="line" smooth="yes"/>
			<point x="539" y="444"/>
			<point x="497" y="267"/>
			<point x="445" y="162" type="curve" smooth="yes"/>
			<point x="408" y="88"/>
			<point x="362" y="58"/>
			<point x="306" y="58" type="curve" smooth="yes"/>
			<point x="233" y="58"/>
			<point x="200" y="102"/>
			<point x="207" y="230" type="curve" smooth="yes"/>
			<point x="228" y="637" type="line"/>
			<point x="313" y="654" type="line"/>
			<point x="319" y="700" type="line"/>
			<point x="71" y="700" type="line"/>
			<point x="65" y="654" type="line"/>
			<point x="141" y="639" type="line"/>
			<point x="119" y="222" type="line" smooth="yes"/>
			<point x="112" y="92"/>
			<point x="150" y="-14"/>
		</contour>
	</outline>
	<anchor name="bottom" x="349" y="-30"/>
	<anchor name="top" x="396" y="730"/>
</glyph>
<glyph name="Oogonek" format="2">
	<unicode hex="01EA"/>
	<advance width="715"/>
	<outline>
		<contour>
			<point x="365" y="-229" type="curve" smooth="yes"/>
			<point x="420" y="-229"/>
			<point x="463" y="-195"/>
			<point x="489" y="-156" type="curve"/>
			<point x="461" y="-128" type="line"/>
			<point x="443" y="-147"/>
			<point x="422" y="-161"/>
			<point x="404" y="-161" type="curve" smooth="yes"/>
			<point x="383" y="-161"/>
			<point x="373" y="-150"/>
			<point x="373" y="-128" type="curve" smooth="yes"/>
			<point x="373" y="-78"/>
			<point x="419" y="-29"/>
			<point x="460" y="4" type="curve"/>
			<point x="592" y="52"/>
			<point x="674" y="191"/>
			<point x="674" y="382" type="curve" smooth="yes"/>
			<point x="674" y="586"/>
			<point x="562" y="715"/>
			<point x="385" y="715" type="curve" smooth="yes"/>
			<point x="185" y="715"/>
			<point x="59" y="565"/>
			<point x="59" y="328" type="curve" smooth="yes"/>
			<point x="59" y="120"/>
			<point x="174" y="-14"/>
			<point x="353" y="-14" type="curve" smooth="yes"/>
			<point x="363" y="-14"/>
			<point x="372" y="-14"/>
			<point x="381" y="-13" type="curve"/>
			<point x="336" y="-49"/>
			<point x="290" y="-99"/>
			<point x="290" y="-155" type="curve" smooth="yes"/>
			<point x="290" y="-204"/>
			<point x="325" y="-229"/>
		</contour>
		<contour>
			<point x="366" y="51" type="curve" smooth="yes"/>
			<point x="235" y="51"/>
			<point x="154" y="165"/>
			<point x="154" y="349" type="curve" smooth="yes"/>
			<point x="154" y="541"/>
			<point x="234" y="653"/>
			<point x="371" y="653" type="curve" smooth="yes"/>
			<point x="501" y="653"/>
			<point x="576" y="547"/>
			<point x="576" y="364" type="curve" smooth="yes"/>
			<point x="576" y="165"/>
			<point x="500" y="51"/>
		</contour>
	</outline>
</glyph>
<glyph name="oogonek" format="2">
	<unicode hex="01EB"/>
	<advance width="539"/>
	<outline>
		<contour>
			<point x="258" y="-229" type="curve" smooth="yes"/>
			<point x="313" y="-229"/>
			<point x="356" y="-195"/>
			<point x="382" y="-156" type="curve"/>
			<point x="354" y="-128" type="line"/>
			<point x="336" y="-147"/>
			<point x="315" y="-161"/>
			<point x="297" y="-161" type="curve" smooth="yes"/>
			<point x="276" y="-161"/>
			<point x="266" y="-150"/>
			<point x="266" y="-128" type="curve" smooth="yes"/>
			<point x="266" y="-77"/>
			<point x="314" y="-27"/>
			<point x="355" y="6" type="curve"/>
			<point x="451" y="49"/>
			<point x="491" y="157"/>
			<point x="491" y="274" type="curve" smooth="yes"/>
			<point x="491" y="423"/>
			<point x="415" y="521"/>
			<point x="283" y="521" type="curve" smooth="yes"/>
			<point x="112" y="521"/>
			<point x="48" y="385"/>
			<point x="48" y="235" type="curve" smooth="yes"/>
			<point x="48" y="84"/>
			<point x="122" y="-14"/>
			<point x="254" y="-14" type="curve" smooth="yes"/>
			<point x="261" y="-14"/>
			<point x="267" y="-14"/>
			<point x="274" y="-13" type="curve"/>
			<point x="228" y="-50"/>
			<point x="183" y="-100"/>
			<point x="183" y="-155" type="curve" smooth="yes"/>
			<point x="183" y="-204"/>
			<point x="218" y="-229"/>
		</contour>
		<contour>
			<point x="260" y="45" type="curve" smooth="yes"/>
			<point x="179" y="45"/>
			<point x="143" y="120"/>
			<point x="143" y="231" type="curve" smooth="yes"/>
			<point x="143" y="352"/>
			<point x="168" y="463"/>
			<point x="275" y="463" type="curve" smooth="yes"/>
			<point x="366" y="463"/>
			<point x="397" y="384"/>
			<point x="397" y="275" type="curve" smooth="yes"/>
			<point x="397" y="154"/>
			<point x="367" y="45"/>
		</contour>
	</outline>
</glyph>
<glyph name="commaturnedmod" format="2">
	<unicode hex="02BB"/>
	<outline>
		<contour>
			<point x="48" y="790" type="line"/>
			<point x="-18" y="746"/>
			<point x="-52" y="687"/>
			<point x="-52" y="644" type="curve" smooth="yes"/>
			<point x="-52" y="610"/>
			<point x="-28" y="578"/>
			<point x="11" y="578" type="curve" smooth="yes"/>
			<point x="60" y="578"/>
			<point x="80" y="627"/>
			<point x="67" y="660" type="curve"/>
			<point x="39" y="670" type="line" smooth="yes"/>
			<point x="27" y="674"/>
			<point x="24" y="680"/>
			<point x="24" y="689" type="curve" smooth="yes"/>
			<point x="24" y="714"/>
			<point x="49" y="742"/>
			<point x="72" y="760" type="curve"/>
		</contour>
	</outline>
	<anchor name="_top" x="10" y="550"/>
</glyph>
<glyph name="ringhalfleft" format="2">
	<unicode hex="02BF"/>
	<advance width="501"/>
	<outline>
		<contour>
			<point x="307" y="582" type="curve" smooth="yes"/>
			<point x="310" y="582" type="line"/>
			<point x="311" y="628" type="line"/>
			<point x="309" y="628" type="line" smooth="yes"/>
			<point x="272" y="628"/>
			<point x="261" y="654"/>
			<point x="261" y="677" type="curve" smooth="yes"/>
			<point x="261" y="709"/>
			<point x="276" y="736"/>
			<point x="311" y="736" type="curve" smooth="yes"/>
			<point x="315" y="736" type="line"/>
			<point x="317" y="781" type="line"/>
			<point x="315" y="781" type="line"/>
			<point x="243" y="781"/>
			<point x="205" y="736"/>
			<point x="205" y="677" type="curve" smooth="yes"/>
			<point x="205" y="622"/>
			<point x="234" y="582"/>
		</contour>
	</outline>
	<anchor name="_top" x="269" y="550"/>
</glyph>
<glyph name="circumflex" format="2">
	<unicode hex="02C6"/>
	<advance width="500"/>
	<outline>
		<contour>
			<point x="425" y="605" type="line"/>
			<point x="306" y="773" type="line"/>
			<point x="297" y="776"/>
			<point x="290" y="777"/>
			<point x="278" y="777" type="curve" smooth="yes"/>
			<point x="263" y="777"/>
			<point x="250" y="769"/>
			<point x="233" y="746" type="curve" smooth="yes"/>
			<point x="125" y="605" type="line"/>
			<point x="147" y="582" type="line"/>
			<point x="274" y="682" type="line"/>
			<point x="400" y="580" type="line"/>
		</contour>
	</outline>
	<anchor name="_top" x="269" y="550"/>
</glyph>
<glyph name="ring" format="2">
	<unicode hex="02DA"/>
	<advance width="507"/>
	<outline>
		<contour>
			<point x="271" y="582" type="curve" smooth="yes"/>
			<point x="338" y="582"/>
			<point x="380" y="628"/>
			<point x="380" y="690" type="curve" smooth="yes"/>
			<point x="380" y="750"/>
			<point x="347" y="787"/>
			<point x="281" y="787" type="curve" smooth="yes"/>
			<point x="210" y="787"/>
			<point x="170" y="738"/>
			<point x="170" y="682" type="curve" smooth="yes"/>
			<point x="170" y="620"/>
			<point x="200" y="582"/>
		</contour>
		<contour>
			<point x="275" y="629" type="curve" smooth="yes"/>
			<point x="240" y="629"/>
			<point x="229" y="654"/>
			<point x="229" y="683" type="curve" smooth="yes"/>
			<point x="229" y="712"/>
			<point x="244" y="741"/>
			<point x="277" y="741" type="curve" smooth="yes"/>
			<point x="309" y="741"/>
			<point x="322" y="717"/>
			<point x="322" y="687" type="curve" smooth="yes"/>
			<point x="322" y="656"/>
			<point x="309" y="629"/>
		</contour>
	</outline>
	<anchor name="_top" x="269" y="550"/>
</glyph>
<glyph name="ogonek" format="2">
	<unicode hex="02DB"/>
	<advance width="500"/>
	<outline>
		<contour>
			<point x="324" y="9" type="curve"/>
			<point x="269" y="9" type="line"/>
			<point x="216" y="-27"/>
			<point x="148" y="-87"/>
			<point x="148" y="-155" type="curve" smooth="yes"/>
			<point x="148" y="-204"/>
			<point x="183" y="-229"/>
			<point x="223" y="-229" type="curve" smooth="yes"/>
			<point x="278" y="-229"/>
			<point x="321" y="-195"/>
			<point x="347" y="-156" type="curve"/>
			<point x="319" y="-128" type="line"/>
			<point x="301" y="-147"/>
			<point x="280" y="-161"/>
			<point x="262" y="-161" type="curve" smooth="yes"/>
			<point x="241" y="-161"/>
			<point x="231" y="-150"/>
			<point x="231" y="-128" type="curve" smooth="yes"/>
			<point x="231" y="-76"/>
			<point x="282" y="-24"/>
		</contour>
	</outline>
	<anchor name="_bottom" x="241" y="-30"/>
</glyph>
<glyph name="tilde" format="2">
	<unicode hex="02DC"/>
	<advance width="501"/>
	<outline>
		<contour>
			<point x="347" y="615" type="curve" smooth="yes"/>
			<point x="383" y="615"/>
			<point x="404" y="636"/>
			<point x="441" y="707" type="curve"/>
			<point x="410" y="726" type="line"/>
			<point x="389" y="696"/>
			<point x="380" y="689"/>
			<point x="365" y="689" type="curve" smooth="yes"/>
			<point x="354" y="689"/>
			<point x="328" y="698"/>
			<point x="292" y="713" type="curve" smooth="yes"/>
			<point x="237" y="736"/>
			<point x="221" y="741"/>
			<point x="207" y="741" type="curve" smooth="yes"/>
			<point x="167" y="741"/>
			<point x="146" y="721"/>
			<point x="110" y="650" type="curve"/>
			<point x="141" y="631" type="line"/>
			<point x="162" y="662"/>
			<point x="170" y="668"/>
			<point x="187" y="668" type="curve" smooth="yes"/>
			<point x="193" y="668"/>
			<point x="215" y="659"/>
			<point x="258" y="639" type="curve" smooth="yes"/>
			<point x="294" y="622"/>
			<point x="318" y="615"/>
		</contour>
	</outline>
	<anchor name="_top" x="269" y="550"/>
</glyph>
<glyph name="dblgravecomb" format="2">
	<unicode hex="030F"/>
	<outline>
		<contour>
			<point x="-25" y="682" type="curve" smooth="yes"/>
			<point x="96" y="580" type="line"/>
			<point x="123" y="606" type="line"/>
			<point x="16" y="767" type="line"/>
			<point x="-17" y="777"/>
			<point x="-49" y="764"/>
			<point x="-49" y="724" type="curve" smooth="yes"/>
			<point x="-49" y="707"/>
			<point x="-41" y="695"/>
		</contour>
		<contour>
			<point x="-175" y="671" type="curve" smooth="yes"/>
			<point x="-45" y="580" type="line"/>
			<point x="-21" y="606" type="line"/>
			<point x="-135" y="757" type="line"/>
			<point x="-172" y="762"/>
			<point x="-202" y="755"/>
			<point x="-202" y="714" type="curve" smooth="yes"/>
			<point x="-202" y="699"/>
			<point x="-195" y="685"/>
		</contour>
	</outline>
	<anchor name="_top" x="10" y="550"/>
</glyph>
<glyph name="ypogegrammeni" format="2">
	<unicode hex="037A"/>
	<advance width="236"/>
	<outline>
		<contour>
			<point x="104" y="-229" type="curve" smooth="yes"/>
			<point x="132" y="-229"/>
			<point x="162" y="-218"/>
			<point x="187" y="-199" type="curve"/>
			<point x="182" y="-163" type="line"/>
			<point x="159" y="-167"/>
			<point x="150" y="-168"/>
			<point x="144" y="-168" type="curve" smooth="yes"/>
			<point x="110" y="-168"/>
			<point x="96" y="-154"/>
			<point x="98" y="-123" type="curve" smooth="yes"/>
			<point x="99" y="-100"/>
			<point x="101" y="-80"/>
			<point x="107" y="-48" type="curve"/>
			<point x="98" y="-44" type="line"/>
			<point x="24" y="-51" type="line"/>
			<point x="20" y="-136" type="line" smooth="yes"/>
			<point x="17" y="-202"/>
			<point x="41" y="-229"/>
		</contour>
	</outline>
	<anchor name="_bottom" x="70" y="-30"/>
</glyph>
<glyph name="dieresistonos" format="2">
	<unicode hex="0385"/>
	<advance width="622"/>
	<outline>
		<contour>
			<point x="289" y="576" type="line"/>
			<point x="424" y="749" type="line"/>
			<point x="424" y="763" type="line"/>
			<point x="408" y="794"/>
			<point x="390" y="808"/>
			<point x="364" y="808" type="curve" smooth="yes"/>
			<point x="337" y="808"/>
			<point x="324" y="796"/>
			<point x="312" y="761" type="curve" smooth="yes"/>
			<point x="253" y="593" type="line"/>
		</contour>
		<contour>
			<point x="114" y="682" type="curve" smooth="yes"/>
			<point x="114" y="646"/>
			<point x="137" y="622"/>
			<point x="173" y="622" type="curve" smooth="yes"/>
			<point x="211" y="622"/>
			<point x="238" y="650"/>
			<point x="238" y="687" type="curve" smooth="yes"/>
			<point x="238" y="724"/>
			<point x="215" y="747"/>
			<point x="178" y="747" type="curve" smooth="yes"/>
			<point x="142" y="747"/>
			<point x="114" y="718"/>
		</contour>
		<contour>
			<point x="433" y="682" type="curve" smooth="yes"/>
			<point x="433" y="646"/>
			<point x="457" y="622"/>
			<point x="493" y="622" type="curve" smooth="yes"/>
			<point x="530" y="622"/>
			<point x="557" y="650"/>
			<point x="557" y="687" type="curve" smooth="yes"/>
			<point x="557" y="724"/>
			<point x="534" y="747"/>
			<point x="498" y="747" type="curve" smooth="yes"/>
			<point x="462" y="747"/>
			<point x="433" y="719"/>
		</contour>
	</outline>
	<anchor name="_top" x="287" y="550"/>
</glyph>
<glyph name="Gamma" format="2">
	<unicode hex="0393"/>
	<advance width="551"/>
	<outline>
		<contour>
			<point x="52" y="0" type="line"/>
			<point x="347" y="0" type="line"/>
			<point x="353" y="46" type="line"/>
			<point x="224" y="58" type="line"/>
			<point x="250" y="643" type="line"/>
			<point x="379" y="643" type="line" smooth="yes"/>
			<point x="434" y="643"/>
			<point x="452" y="627"/>
			<point x="474" y="562" type="curve" smooth="yes"/>
			<point x="487" y="523" type="line"/>
			<point x="541" y="533" type="line"/>
			<point x="527" y="700" type="line"/>
			<point x="83" y="700" type="line"/>
			<point x="77" y="654" type="line"/>
			<point x="163" y="637" type="line"/>
			<point x="140" y="59" type="line"/>
			<point x="58" y="46" type="line"/>
		</contour>
	</outline>
</glyph>
<glyph name="Theta" format="2">
	<unicode hex="0398"/>
	<advance width="715"/>
	<outline>
		<contour>
			<point x="353" y="-14" type="curve" smooth="yes"/>
			<point x="546" y="-14"/>
			<point x="674" y="144"/>
			<point x="674" y="382" type="curve" smooth="yes"/>
			<point x="674" y="586"/>
			<point x="562" y="715"/>
			<point x="385" y="715" type="curve" smooth="yes"/>
			<point x="185" y="715"/>
			<point x="59" y="565"/>
			<point x="59" y="328" type="curve" smooth="yes"/>
			<point x="59" y="120"/>
			<point x="174" y="-14"/>
		</contour>
		<contour>
			<point x="366" y="51" type="curve" smooth="yes"/>
			<point x="235" y="51"/>
			<point x="154" y="165"/>
			<point x="154" y="349" type="curve" smooth="yes"/>
			<point x="154" y="541"/>
			<point x="234" y="653"/>
			<point x="371" y="653" type="curve" smooth="yes"/>
			<point x="501" y="653"/>
			<point x="576" y="547"/>
			<point x="576" y="364" type="curve" smooth="yes"/>
			<point x="576" y="165"/>
			<point x="500" y="51"/>
		</contour>
		<contour>
			<point x="241" y="323" type="line"/>
			<point x="488" y="323" type="line"/>
			<point x="491" y="396" type="line"/>
			<point x="244" y="396" type="line"/>
		</contour>
	</outline>
</glyph>
<glyph name="Lambda" format="2">
	<unicode hex="039B"/>
	<advance width="671"/>
	<outline>
		<contour>
			<point x="12" y="0" type="line"/>
			<point x="246" y="0" type="line"/>
			<point x="252" y="46" type="line"/>
			<point x="161" y="58" type="line"/>
			<point x="346" y="619" type="line"/>
			<point x="349" y="619" type="line"/>
			<point x="487" y="58" type="line"/>
			<point x="406" y="46" type="line"/>
			<point x="400" y="0" type="line"/>
			<point x="666" y="0" type="line"/>
			<point x="672" y="46" type="line"/>
			<point x="587" y="57" type="line"/>
			<point x="415" y="706" type="line"/>
			<point x="316" y="695" type="line"/>
			<point x="97" y="58" type="line"/>
			<point x="18" y="46" type="line"/>
		</contour>
	</outline>
</glyph>
<glyph name="Pi" format="2">
	<unicode hex="03A0"/>
	<advance width="750"/>
	<outline>
		<contour>
			<point x="52" y="0" type="line"/>
			<point x="317" y="0" type="line"/>
			<point x="323" y="46" type="line"/>
			<point x="228" y="59" type="line"/>
			<point x="250" y="637" type="line"/>
			<point x="555" y="637" type="line"/>
			<point x="531" y="59" type="line"/>
			<point x="449" y="46" type="line"/>
			<point x="443" y="0" type="line"/>
			<point x="708" y="0" type="line"/>
			<point x="714" y="46" type="line"/>
			<point x="619" y="59" type="line"/>
			<point x="641" y="637" type="line"/>
			<point x="726" y="654" type="line"/>
			<point x="732" y="700" type="line"/>
			<point x="83" y="700" type="line"/>
			<point x="77" y="654" type="line"/>
			<point x="163" y="637" type="line"/>
			<point x="140" y="59" type="line"/>
			<point x="58" y="46" type="line"/>
		</contour>
	</outline>
</glyph>
<glyph name="Omega" format="2">
	<unicode hex="03A9"/>
	<advance width="706"/>
	<outline>
		<contour>
			<point x="48" y="0" type="line"/>
			<point x="310" y="0" type="line"/>
			<point x="318" y="153" type="line"/>
			<point x="223" y="174"/>
			<point x="159" y="272"/>
			<point x="159" y="397" type="curve" smooth="yes"/>
			<point x="159" y="566"/>
			<point x="232" y="656"/>
			<point x="368" y="656" type="curve" smooth="yes"/>
			<point x="492" y="656"/>
			<point x="564" y="576"/>
			<point x="564" y="439" type="curve" smooth="yes"/>
			<point x="564" y="286"/>
			<point x="510" y="184"/>
			<point x="414" y="156" type="curve"/>
			<point x="406" y="0" type="line"/>
			<point x="646" y="0" type="line"/>
			<point x="672" y="194" type="line"/>
			<point x="617" y="194" type="line"/>
			<point x="601" y="143" type="line" smooth="yes"/>
			<point x="579" y="76"/>
			<point x="557" y="58"/>
			<point x="498" y="58" type="curve" smooth="yes"/>
			<point x="472" y="58" type="line"/>
			<point x="474" y="114" type="line"/>
			<point x="588" y="163"/>
			<point x="659" y="291"/>
			<point x="659" y="450" type="curve" smooth="yes"/>
			<point x="659" y="611"/>
			<point x="550" y="715"/>
			<point x="382" y="715" type="curve" smooth="yes"/>
			<point x="186" y="715"/>
			<point x="68" y="588"/>
			<point x="68" y="379" type="curve" smooth="yes"/>
			<point x="68" y="243"/>
			<point x="140" y="134"/>
			<point x="254" y="99" type="curve"/>
			<point x="252" y="58" type="line"/>
			<point x="199" y="58" type="line" smooth="yes"/>
			<point x="139" y="58"/>
			<point x="117" y="77"/>
			<point x="99" y="143" type="curve" smooth="yes"/>
			<point x="85" y="194" type="line"/>
			<point x="30" y="194" type="line"/>
		</contour>
	</outline>
	<anchor name="bottom" x="359" y="-45"/>
	<anchor name="side" x="724" y="217"/>
	<anchor name="topleft" x="48" y="700"/>
</glyph>
<glyph name="alpha" format="2">
	<unicode hex="03B1"/>
	<advance width="626"/>
	<outline>
		<contour>
			<point x="229" y="-14" type="curve" smooth="yes"/>
			<point x="302" y="-14"/>
			<point x="348" y="26"/>
			<point x="390" y="125" type="curve"/>
			<point x="391" y="125" type="line"/>
			<point x="392" y="35"/>
			<point x="425" y="-14"/>
			<point x="483" y="-14" type="curve" smooth="yes"/>
			<point x="514" y="-14"/>
			<point x="554" y="3"/>
			<point x="593" y="33" type="curve"/>
			<point x="572" y="72" type="line"/>
			<point x="555" y="62"/>
			<point x="528" y="52"/>
			<point x="517" y="52" type="curve" smooth="yes"/>
			<point x="475" y="52"/>
			<point x="458" y="84"/>
			<point x="449" y="182" type="curve" smooth="yes"/>
			<point x="446" y="214" type="line"/>
			<point x="489" y="301"/>
			<point x="536" y="416"/>
			<point x="567" y="511" type="curve"/>
			<point x="556" y="516" type="line"/>
			<point x="478" y="508" type="line"/>
			<point x="463" y="450"/>
			<point x="446" y="387"/>
			<point x="432" y="340" type="curve"/>
			<point x="431" y="340" type="line"/>
			<point x="419" y="461"/>
			<point x="363" y="521"/>
			<point x="262" y="521" type="curve" smooth="yes"/>
			<point x="138" y="521"/>
			<point x="54" y="405"/>
			<point x="54" y="233" type="curve" smooth="yes"/>
			<point x="54" y="81"/>
			<point x="121" y="-14"/>
		</contour>
		<contour>
			<point x="240" y="45" type="curve" smooth="yes"/>
			<point x="177" y="45"/>
			<point x="148" y="104"/>
			<point x="148" y="234" type="curve" smooth="yes"/>
			<point x="148" y="381"/>
			<point x="190" y="463"/>
			<point x="265" y="463" type="curve" smooth="yes"/>
			<point x="333" y="463"/>
			<point x="370" y="396"/>
			<point x="378" y="261" type="curve" smooth="yes"/>
			<point x="380" y="228" type="line"/>
			<point x="335" y="101"/>
			<point x="292" y="45"/>
		</contour>
	</outline>
	<anchor name="bottom" x="239" y="-30"/>
	<anchor name="top" x="268" y="550"/>
</glyph>
<glyph name="beta" format="2">
	<unicode hex="03B2"/>
	<advance width="545"/>
	<outline>
		<contour>
			<point x="260" y="-14" type="curve" smooth="yes"/>
			<point x="381" y="-14"/>
			<point x="472" y="79"/>
			<point x="472" y="204" type="curve" smooth="yes"/>
			<point x="472" y="292"/>
			<point x="430" y="364"/>
			<point x="363" y="392" type="curve"/>
			<point x="455" y="446"/>
			<point x="510" y="535"/>
			<point x="510" y="631" type="curve" smooth="yes"/>
			<point x="510" y="723"/>
			<point x="444" y="782"/>
			<point x="343" y="782" type="curve" smooth="yes"/>
			<point x="169" y="782"/>
			<point x="46" y="586"/>
			<point x="46" y="309" type="curve" smooth="yes"/>
			<point x="46" y="101"/>
			<point x="122" y="-14"/>
		</contour>
		<contour>
			<point x="271" y="45" type="curve" smooth="yes"/>
			<point x="178" y="45"/>
			<point x="136" y="132"/>
			<point x="136" y="327" type="curve"/>
			<point x="194" y="332"/>
			<point x="270" y="349"/>
			<point x="314" y="367" type="curve"/>
			<point x="353" y="338"/>
			<point x="383" y="264"/>
			<point x="383" y="197" type="curve" smooth="yes"/>
			<point x="383" y="100"/>
			<point x="342" y="45"/>
		</contour>
		<contour>
			<point x="137" y="371" type="curve"/>
			<point x="150" y="572"/>
			<point x="241" y="734"/>
			<point x="341" y="734" type="curve" smooth="yes"/>
			<point x="392" y="734"/>
			<point x="421" y="699"/>
			<point x="421" y="638" type="curve" smooth="yes"/>
			<point x="421" y="506"/>
			<point x="309" y="401"/>
		</contour>
	</outline>
</glyph>
<glyph name="eta" format="2">
	<unicode hex="03B7"/>
	<advance width="538"/>
	<outline>
		<contour>
			<point x="441" y="-230" type="line"/>
			<point x="452" y="-225" type="line"/>
			<point x="477" y="-72"/>
			<point x="508" y="256"/>
			<point x="508" y="373" type="curve" smooth="yes"/>
			<point x="508" y="483"/>
			<point x="483" y="521"/>
			<point x="409" y="521" type="curve" smooth="yes"/>
			<point x="316" y="521"/>
			<point x="251" y="438"/>
			<point x="189" y="241" type="curve"/>
			<point x="187" y="242" type="line"/>
			<point x="208" y="336"/>
			<point x="218" y="404"/>
			<point x="218" y="444" type="curve" smooth="yes"/>
			<point x="218" y="496"/>
			<point x="193" y="521"/>
			<point x="140" y="521" type="curve" smooth="yes"/>
			<point x="106" y="521"/>
			<point x="61" y="501"/>
			<point x="27" y="472" type="curve"/>
			<point x="50" y="436" type="line"/>
			<point x="71" y="452"/>
			<point x="90" y="460"/>
			<point x="106" y="460" type="curve" smooth="yes"/>
			<point x="139" y="460"/>
			<point x="155" y="415"/>
			<point x="155" y="321" type="curve" smooth="yes"/>
			<point x="155" y="282"/>
			<point x="153" y="241"/>
			<point x="148" y="198" type="curve"/>
			<point x="114" y="136"/>
			<point x="96" y="66"/>
			<point x="96" y="-2" type="curve"/>
			<point x="99" y="-9"/>
			<point x="116" y="-14"/>
			<point x="138" y="-14" type="curve" smooth="yes"/>
			<point x="209" y="-14"/>
			<point x="202" y="45"/>
			<point x="201" y="143" type="curve"/>
			<point x="211" y="264"/>
			<point x="320" y="442"/>
			<point x="384" y="442" type="curve" smooth="yes"/>
			<point x="419" y="442"/>
			<point x="434" y="419"/>
			<point x="434" y="362" type="curve" smooth="yes"/>
			<point x="434" y="231"/>
			<point x="388" y="-73"/>
			<point x="347" y="-212" type="curve"/>
		</contour>
	</outline>
	<anchor name="bottom" x="138" y="-30"/>
	<anchor name="top" x="269" y="551"/>
</glyph>
<glyph name="kappa" format="2">
	<unicode hex="03BA"/>
	<advance width="601"/>
	<outline>
		<contour>
			<point x="441" y="-14" type="curve" smooth="yes"/>
			<point x="475" y="-14"/>
			<point x="516" y="4"/>
			<point x="550" y="34" type="curve"/>
			<point x="525" y="72" type="line"/>
			<point x="510" y="58"/>
			<point x="486" y="47"/>
			<point x="469" y="47" type="curve" smooth="yes"/>
			<point x="419" y="47"/>
			<point x="381" y="126"/>
			<point x="381" y="229" type="curve" smooth="yes"/>
			<point x="381" y="297"/>
			<point x="387" y="336"/>
			<point x="405" y="374" type="curve"/>
			<point x="455" y="411"/>
			<point x="502" y="428"/>
			<point x="563" y="431" type="curve"/>
			<point x="568" y="442" type="line"/>
			<point x="544" y="515" type="line"/>
			<point x="402" y="521"/>
			<point x="316" y="443"/>
			<point x="184" y="188" type="curve"/>
			<point x="182" y="189" type="line"/>
			<point x="218" y="332"/>
			<point x="238" y="424"/>
			<point x="238" y="450" type="curve" smooth="yes"/>
			<point x="238" y="496"/>
			<point x="211" y="521"/>
			<point x="160" y="521" type="curve" smooth="yes"/>
			<point x="128" y="521"/>
			<point x="80" y="507"/>
			<point x="47" y="488" type="curve"/>
			<point x="65" y="441" type="line"/>
			<point x="87" y="451"/>
			<point x="109" y="457"/>
			<point x="125" y="457" type="curve" smooth="yes"/>
			<point x="142" y="457"/>
			<point x="150" y="446"/>
			<point x="150" y="424" type="curve" smooth="yes"/>
			<point x="150" y="410"/>
			<point x="126" y="280"/>
			<point x="73" y="0" type="curve"/>
			<point x="144" y="0" type="line"/>
			<point x="197" y="125"/>
			<point x="265" y="234"/>
			<point x="345" y="325" type="curve"/>
			<point x="315" y="259"/>
			<point x="302" y="206"/>
			<point x="302" y="149" type="curve" smooth="yes"/>
			<point x="302" y="43"/>
			<point x="351" y="-14"/>
		</contour>
	</outline>
</glyph>
<glyph name="lambda" format="2">
	<unicode hex="03BB"/>
	<advance width="537"/>
	<outline>
		<contour>
			<point x="373" y="-14" type="curve" smooth="yes"/>
			<point x="411" y="-14"/>
			<point x="446" y="1"/>
			<point x="482" y="34" type="curve"/>
			<point x="457" y="72" type="line"/>
			<point x="435" y="54"/>
			<point x="421" y="47"/>
			<point x="400" y="47" type="curve" smooth="yes"/>
			<point x="374" y="47"/>
			<point x="362" y="72"/>
			<point x="354" y="142" type="curve" smooth="yes"/>
			<point x="300" y="614" type="line" smooth="yes"/>
			<point x="286" y="739"/>
			<point x="248" y="782"/>
			<point x="151" y="782" type="curve" smooth="yes"/>
			<point x="66" y="782"/>
			<point x="10" y="739"/>
			<point x="10" y="673" type="curve" smooth="yes"/>
			<point x="10" y="638"/>
			<point x="34" y="613"/>
			<point x="69" y="613" type="curve" smooth="yes"/>
			<point x="89" y="613"/>
			<point x="109" y="623"/>
			<point x="121" y="639" type="curve"/>
			<point x="116" y="652" type="line" smooth="yes"/>
			<point x="108" y="675"/>
			<point x="105" y="686"/>
			<point x="105" y="699" type="curve" smooth="yes"/>
			<point x="105" y="723"/>
			<point x="122" y="737"/>
			<point x="150" y="737" type="curve" smooth="yes"/>
			<point x="195" y="737"/>
			<point x="212" y="712"/>
			<point x="220" y="634" type="curve" smooth="yes"/>
			<point x="235" y="499" type="line"/>
			<point x="-21" y="5" type="line"/>
			<point x="-10" y="0" type="line"/>
			<point x="74" y="0" type="line"/>
			<point x="241" y="391" type="line"/>
			<point x="245" y="400" type="line"/>
			<point x="278" y="105" type="line" smooth="yes"/>
			<point x="288" y="16"/>
			<point x="312" y="-14"/>
		</contour>
	</outline>
</glyph>
<glyph name="mu" format="2">
	<unicode hex="03BC"/>
	<advance width="564"/>
	<outline>
		<contour>
			<point x="46" y="-230" type="line"/>
			<point x="145" y="-211" type="line"/>
			<point x="133" y="-173"/>
			<point x="118" y="-45"/>
			<point x="118" y="21" type="curve"/>
			<point x="119" y="21" type="line"/>
			<point x="141" y="1"/>
			<point x="178" y="-14"/>
			<point x="207" y="-14" type="curve" smooth="yes"/>
			<point x="254" y="-14"/>
			<point x="306" y="25"/>
			<point x="339" y="84" type="curve"/>
			<point x="340" y="84" type="line"/>
			<point x="340" y="27"/>
			<point x="377" y="-14"/>
			<point x="427" y="-14" type="curve" smooth="yes"/>
			<point x="456" y="-14"/>
			<point x="500" y="-1"/>
			<point x="536" y="19" type="curve"/>
			<point x="519" y="69" type="line"/>
			<point x="498" y="59"/>
			<point x="473" y="51"/>
			<point x="459" y="51" type="curve" smooth="yes"/>
			<point x="426" y="51"/>
			<point x="409" y="77"/>
			<point x="409" y="127" type="curve" smooth="yes"/>
			<point x="409" y="180"/>
			<point x="430" y="377"/>
			<point x="450" y="511" type="curve"/>
			<point x="439" y="516" type="line"/>
			<point x="352" y="508" type="line"/>
			<point x="331" y="221" type="line" smooth="yes"/>
			<point x="323" y="117"/>
			<point x="276" y="60"/>
			<point x="197" y="60" type="curve" smooth="yes"/>
			<point x="176" y="60"/>
			<point x="141" y="72"/>
			<point x="121" y="86" type="curve"/>
			<point x="121" y="157"/>
			<point x="134" y="281"/>
			<point x="165" y="511" type="curve"/>
			<point x="153" y="516" type="line"/>
			<point x="66" y="508" type="line"/>
			<point x="44" y="215"/>
			<point x="35" y="52"/>
			<point x="35" y="-29" type="curve" smooth="yes"/>
			<point x="35" y="-128"/>
			<point x="33" y="-173"/>
			<point x="35" y="-225" type="curve"/>
		</contour>
	</outline>
</glyph>
<glyph name="omicron" format="2">
	<unicode hex="03BF"/>
	<advance width="521"/>
	<outline>
		<contour>
			<point x="234" y="-14" type="curve" smooth="yes"/>
			<point x="384" y="-14"/>
			<point x="474" y="96"/>
			<point x="474" y="280" type="curve" smooth="yes"/>
			<point x="474" y="431"/>
			<point x="403" y="521"/>
			<point x="284" y="521" type="curve" smooth="yes"/>
			<point x="136" y="521"/>
			<point x="47" y="411"/>
			<point x="47" y="227" type="curve" smooth="yes"/>
			<point x="47" y="77"/>
			<point x="117" y="-14"/>
		</contour>
		<contour>
			<point x="245" y="45" type="curve" smooth="yes"/>
			<point x="176" y="45"/>
			<point x="141" y="104"/>
			<point x="141" y="221" type="curve" smooth="yes"/>
			<point x="141" y="375"/>
			<point x="190" y="463"/>
			<point x="276" y="463" type="curve" smooth="yes"/>
			<point x="344" y="463"/>
			<point x="380" y="404"/>
			<point x="380" y="291" type="curve" smooth="yes"/>
			<point x="380" y="131"/>
			<point x="333" y="45"/>
		</contour>
	</outline>
	<anchor name="top" x="284" y="550"/>
</glyph>
<glyph name="pi" format="2">
	<unicode hex="03C0"/>
	<advance width="650"/>
	<outline>
		<contour>
			<point x="450" y="-14" type="curve" smooth="yes"/>
			<point x="484" y="-14"/>
			<point x="522" y="2"/>
			<point x="563" y="33" type="curve"/>
			<point x="542" y="72" type="line"/>
			<point x="524" y="62"/>
			<point x="498" y="52"/>
			<point x="486" y="52" type="curve" smooth="yes"/>
			<point x="458" y="52"/>
			<point x="446" y="70"/>
			<point x="446" y="115" type="curve" smooth="yes"/>
			<point x="446" y="175"/>
			<point x="455" y="326"/>
			<point x="464" y="426" type="curve"/>
			<point x="503" y="425"/>
			<point x="540" y="424"/>
			<point x="555" y="424" type="curve" smooth="yes"/>
			<point x="592" y="424"/>
			<point x="618" y="451"/>
			<point x="618" y="488" type="curve" smooth="yes"/>
			<point x="618" y="505"/>
			<point x="609" y="520"/>
			<point x="591" y="534" type="curve"/>
			<point x="476" y="506" type="line"/>
			<point x="91" y="521" type="line" smooth="yes"/>
			<point x="46" y="523"/>
			<point x="14" y="491"/>
			<point x="14" y="444" type="curve" smooth="yes"/>
			<point x="14" y="400"/>
			<point x="53" y="372"/>
			<point x="101" y="381" type="curve"/>
			<point x="113" y="414" type="line" smooth="yes"/>
			<point x="120" y="433"/>
			<point x="132" y="441"/>
			<point x="152" y="441" type="curve" smooth="yes"/>
			<point x="161" y="441"/>
			<point x="175" y="440"/>
			<point x="202" y="439" type="curve"/>
			<point x="100" y="5" type="line"/>
			<point x="111" y="0" type="line"/>
			<point x="192" y="0" type="line"/>
			<point x="259" y="438" type="line"/>
			<point x="309" y="435"/>
			<point x="358" y="433"/>
			<point x="408" y="430" type="curve"/>
			<point x="380" y="249"/>
			<point x="363" y="119"/>
			<point x="363" y="77" type="curve" smooth="yes"/>
			<point x="363" y="17"/>
			<point x="393" y="-14"/>
		</contour>
	</outline>
</glyph>
<glyph name="rho" format="2">
	<unicode hex="03C1"/>
	<advance width="496"/>
	<outline>
		<contour>
			<point x="30" y="-230" type="line"/>
			<point x="127" y="-211" type="line"/>
			<point x="113" y="-144"/>
			<point x="103" y="-41"/>
			<point x="103" y="31" type="curve"/>
			<point x="104" y="31" type="line"/>
			<point x="127" y="6"/>
			<point x="171" y="-14"/>
			<point x="204" y="-14" type="curve" smooth="yes"/>
			<point x="344" y="-14"/>
			<point x="449" y="112"/>
			<point x="449" y="281" type="curve" smooth="yes"/>
			<point x="449" y="436"/>
			<point x="381" y="521"/>
			<point x="258" y="521" type="curve" smooth="yes"/>
			<point x="82" y="521"/>
			<point x="14" y="352"/>
			<point x="14" y="-82" type="curve" smooth="yes"/>
			<point x="14" y="-113"/>
			<point x="15" y="-148"/>
			<point x="19" y="-225" type="curve"/>
		</contour>
		<contour>
			<point x="201" y="45" type="curve" smooth="yes"/>
			<point x="164" y="45"/>
			<point x="136" y="57"/>
			<point x="106" y="86" type="curve"/>
			<point x="117" y="347"/>
			<point x="163" y="463"/>
			<point x="255" y="463" type="curve" smooth="yes"/>
			<point x="325" y="463"/>
			<point x="360" y="404"/>
			<point x="360" y="288" type="curve" smooth="yes"/>
			<point x="360" y="146"/>
			<point x="294" y="45"/>
		</contour>
	</outline>
	<anchor name="top" x="236" y="550"/>
</glyph>
<glyph name="upsilon" format="2">
	<unicode hex="03C5"/>
	<advance width="559"/>
	<outline>
		<contour>
			<point x="255" y="-14" type="curve" smooth="yes"/>
			<point x="406" y="-14"/>
			<point x="506" y="155"/>
			<point x="506" y="411" type="curve" smooth="yes"/>
			<point x="506" y="480"/>
			<point x="474" y="521"/>
			<point x="420" y="521" type="curve" smooth="yes"/>
			<point x="375" y="521"/>
			<point x="347" y="482"/>
			<point x="359" y="436" type="curve"/>
			<point x="395" y="423" type="line" smooth="yes"/>
			<point x="440" y="407"/>
			<point x="450" y="391"/>
			<point x="450" y="339" type="curve" smooth="yes"/>
			<point x="450" y="176"/>
			<point x="375" y="60"/>
			<point x="271" y="60" type="curve" smooth="yes"/>
			<point x="208" y="60"/>
			<point x="175" y="90"/>
			<point x="175" y="147" type="curve" smooth="yes"/>
			<point x="175" y="218"/>
			<point x="218" y="394"/>
			<point x="218" y="453" type="curve" smooth="yes"/>
			<point x="218" y="499"/>
			<point x="193" y="521"/>
			<point x="142" y="521" type="curve" smooth="yes"/>
			<point x="108" y="521"/>
			<point x="60" y="501"/>
			<point x="27" y="472" type="curve"/>
			<point x="50" y="436" type="line"/>
			<point x="70" y="451"/>
			<point x="90" y="460"/>
			<point x="104" y="460" type="curve" smooth="yes"/>
			<point x="122" y="460"/>
			<point x="130" y="453"/>
			<point x="130" y="436" type="curve" smooth="yes"/>
			<point x="130" y="417"/>
			<point x="88" y="185"/>
			<point x="88" y="140" type="curve" smooth="yes"/>
			<point x="88" y="36"/>
			<point x="142" y="-14"/>
		</contour>
	</outline>
	<anchor name="top" x="290" y="550"/>
</glyph>
<glyph name="psi" format="2">
	<unicode hex="03C8"/>
	<advance width="732"/>
	<outline>
		<contour>
			<point x="258" y="-230" type="line"/>
			<point x="335" y="-215" type="line"/>
			<point x="365" y="-14" type="line"/>
			<point x="562" y="2"/>
			<point x="679" y="157"/>
			<point x="679" y="403" type="curve" smooth="yes"/>
			<point x="679" y="478"/>
			<point x="648" y="521"/>
			<point x="593" y="521" type="curve" smooth="yes"/>
			<point x="548" y="521"/>
			<point x="524" y="489"/>
			<point x="531" y="437" type="curve"/>
			<point x="566" y="423" type="line" smooth="yes"/>
			<point x="611" y="404"/>
			<point x="623" y="389"/>
			<point x="623" y="353" type="curve" smooth="yes"/>
			<point x="623" y="182"/>
			<point x="526" y="69"/>
			<point x="376" y="59" type="curve"/>
			<point x="471" y="700" type="line"/>
			<point x="420" y="700" type="line"/>
			<point x="300" y="61" type="line"/>
			<point x="212" y="70"/>
			<point x="174" y="101"/>
			<point x="174" y="162" type="curve" smooth="yes"/>
			<point x="174" y="220"/>
			<point x="217" y="394"/>
			<point x="217" y="453" type="curve" smooth="yes"/>
			<point x="217" y="499"/>
			<point x="193" y="521"/>
			<point x="142" y="521" type="curve" smooth="yes"/>
			<point x="101" y="521"/>
			<point x="61" y="504"/>
			<point x="27" y="472" type="curve"/>
			<point x="50" y="436" type="line"/>
			<point x="70" y="451"/>
			<point x="90" y="460"/>
			<point x="105" y="460" type="curve" smooth="yes"/>
			<point x="122" y="460"/>
			<point x="130" y="453"/>
			<point x="130" y="437" type="curve" smooth="yes"/>
			<point x="130" y="403"/>
			<point x="87" y="194"/>
			<point x="87" y="147" type="curve" smooth="yes"/>
			<point x="87" y="49"/>
			<point x="154" y="-6"/>
			<point x="286" y="-15" type="curve"/>
			<point x="247" y="-225" type="line"/>
		</contour>
	</outline>
</glyph>
<glyph name="omega" format="2">
	<unicode hex="03C9"/>
	<advance width="735"/>
	<outline>
		<contour>
			<point x="209" y="-14" type="curve" smooth="yes"/>
			<point x="270" y="-14"/>
			<point x="332" y="35"/>
			<point x="355" y="102" type="curve"/>
			<point x="358" y="102" type="line"/>
			<point x="376" y="25"/>
			<point x="421" y="-14"/>
			<point x="491" y="-14" type="curve" smooth="yes"/>
			<point x="609" y="-14"/>
			<point x="682" y="89"/>
			<point x="682" y="255" type="curve" smooth="yes"/>
			<point x="682" y="348"/>
			<point x="652" y="446"/>
			<point x="602" y="516" type="curve"/>
			<point x="591" y="521" type="line"/>
			<point x="504" y="499" type="line"/>
			<point x="554" y="431"/>
			<point x="590" y="321"/>
			<point x="590" y="240" type="curve" smooth="yes"/>
			<point x="590" y="129"/>
			<point x="549" y="58"/>
			<point x="485" y="58" type="curve" smooth="yes"/>
			<point x="440" y="58"/>
			<point x="407" y="93"/>
			<point x="389" y="160" type="curve"/>
			<point x="420" y="199"/>
			<point x="438" y="242"/>
			<point x="438" y="279" type="curve" smooth="yes"/>
			<point x="438" y="331"/>
			<point x="413" y="363"/>
			<point x="372" y="363" type="curve" smooth="yes"/>
			<point x="328" y="363"/>
			<point x="299" y="324"/>
			<point x="299" y="263" type="curve" smooth="yes"/>
			<point x="299" y="229"/>
			<point x="309" y="197"/>
			<point x="331" y="160" type="curve"/>
			<point x="303" y="92"/>
			<point x="266" y="58"/>
			<point x="221" y="58" type="curve" smooth="yes"/>
			<point x="169" y="58"/>
			<point x="140" y="103"/>
			<point x="140" y="184" type="curve" smooth="yes"/>
			<point x="140" y="296"/>
			<point x="186" y="408"/>
			<point x="267" y="494" type="curve"/>
			<point x="234" y="521" type="line"/>
			<point x="125" y="456"/>
			<point x="51" y="323"/>
			<point x="51" y="190" type="curve" smooth="yes"/>
			<point x="51" y="57"/>
			<point x="106" y="-14"/>
		</contour>
	</outline>
	<anchor name="bottom" x="351" y="-30"/>
	<anchor name="top" x="389" y="550"/>
</glyph>
<glyph name="koppaArchaic" format="2">
	<unicode hex="03D9"/>
	<advance width="539"/>
	<outline>
		<contour>
			<point x="217" y="-161" type="line"/>
			<point x="280" y="-155" type="line"/>
			<point x="280" y="-99"/>
			<point x="282" y="-55"/>
			<point x="285" y="-12" type="curve"/>
			<point x="432" y="3"/>
			<point x="491" y="131"/>
			<point x="491" y="274" type="curve" smooth="yes"/>
			<point x="491" y="423"/>
			<point x="415" y="521"/>
			<point x="283" y="521" type="curve" smooth="yes"/>
			<point x="112" y="521"/>
			<point x="48" y="385"/>
			<point x="48" y="235" type="curve" smooth="yes"/>
			<point x="48" y="97"/>
			<point x="110" y="3"/>
			<point x="221" y="-12" type="curve"/>
			<point x="217" y="-64"/>
			<point x="212" y="-113"/>
			<point x="207" y="-157" type="curve"/>
		</contour>
		<contour>
			<point x="290" y="48" type="curve"/>
			<point x="293" y="77"/>
			<point x="296" y="107"/>
			<point x="301" y="141" type="curve"/>
			<point x="290" y="146" type="line"/>
			<point x="229" y="137" type="line"/>
			<point x="228" y="107"/>
			<point x="227" y="78"/>
			<point x="225" y="50" type="curve"/>
			<point x="169" y="70"/>
			<point x="143" y="138"/>
			<point x="143" y="231" type="curve" smooth="yes"/>
			<point x="143" y="352"/>
			<point x="168" y="463"/>
			<point x="275" y="463" type="curve" smooth="yes"/>
			<point x="366" y="463"/>
			<point x="397" y="384"/>
			<point x="397" y="275" type="curve" smooth="yes"/>
			<point x="397" y="166"/>
			<point x="373" y="67"/>
		</contour>
	</outline>
</glyph>
<glyph name="Stigma" format="2">
	<unicode hex="03DA"/>
	<advance width="614"/>
	<outline>
		<contour>
			<point x="413" y="-210" type="line"/>
			<point x="476" y="-153"/>
			<point x="508" y="-95"/>
			<point x="508" y="-39" type="curve" smooth="yes"/>
			<point x="508" y="40"/>
			<point x="465" y="79"/>
			<point x="339" y="113" type="curve" smooth="yes"/>
			<point x="215" y="147"/>
			<point x="154" y="226"/>
			<point x="154" y="351" type="curve" smooth="yes"/>
			<point x="154" y="540"/>
			<point x="236" y="652"/>
			<point x="374" y="652" type="curve" smooth="yes"/>
			<point x="445" y="652"/>
			<point x="493" y="628"/>
			<point x="493" y="592" type="curve" smooth="yes"/>
			<point x="493" y="585"/>
			<point x="491" y="578"/>
			<point x="488" y="571" type="curve" smooth="yes"/>
			<point x="471" y="537" type="line"/>
			<point x="490" y="518"/>
			<point x="516" y="507"/>
			<point x="543" y="507" type="curve" smooth="yes"/>
			<point x="575" y="507"/>
			<point x="597" y="531"/>
			<point x="597" y="566" type="curve" smooth="yes"/>
			<point x="597" y="649"/>
			<point x="500" y="715"/>
			<point x="378" y="715" type="curve" smooth="yes"/>
			<point x="186" y="715"/>
			<point x="60" y="570"/>
			<point x="60" y="349" type="curve" smooth="yes"/>
			<point x="60" y="167"/>
			<point x="138" y="69"/>
			<point x="328" y="12" type="curve" smooth="yes"/>
			<point x="404" y="-11"/>
			<point x="419" y="-26"/>
			<point x="419" y="-81" type="curve" smooth="yes"/>
			<point x="419" y="-108"/>
			<point x="409" y="-129"/>
			<point x="373" y="-179" type="curve"/>
		</contour>
	</outline>
</glyph>
<glyph name="koppa" format="2">
	<unicode hex="03DF"/>
	<advance width="445"/>
	<outline>
		<contour>
			<point x="245" y="-59" type="curve" smooth="yes"/>
			<point x="277" y="-59"/>
			<point x="314" y="-45"/>
			<point x="335" y="-25" type="curve"/>
			<point x="330" y="11" type="line"/>
			<point x="315" y="5"/>
			<point x="305" y="3"/>
			<point x="289" y="3" type="curve" smooth="yes"/>
			<point x="267" y="3"/>
			<point x="255" y="14"/>
			<point x="255" y="34" type="curve" smooth="yes"/>
			<point x="255" y="56"/>
			<point x="265" y="73"/>
			<point x="310" y="128" type="curve" smooth="yes"/>
			<point x="416" y="257" type="line"/>
			<point x="418" y="287" type="line"/>
			<point x="171" y="287" type="line"/>
			<point x="240" y="370" type="line" smooth="yes"/>
			<point x="286" y="424"/>
			<point x="302" y="455"/>
			<point x="302" y="490" type="curve" smooth="yes"/>
			<point x="302" y="530"/>
			<point x="271" y="556"/>
			<point x="221" y="556" type="curve" smooth="yes"/>
			<point x="189" y="556"/>
			<point x="154" y="543"/>
			<point x="132" y="522" type="curve"/>
			<point x="137" y="486" type="line"/>
			<point x="153" y="492"/>
			<point x="164" y="494"/>
			<point x="178" y="494" type="curve" smooth="yes"/>
			<point x="200" y="494"/>
			<point x="212" y="483"/>
			<point x="212" y="463" type="curve" smooth="yes"/>
			<point x="212" y="441"/>
			<point x="201" y="422"/>
			<point x="157" y="369" type="curve" smooth="yes"/>
			<point x="51" y="240" type="line"/>
			<point x="49" y="210" type="line"/>
			<point x="296" y="210" type="line"/>
			<point x="234" y="136" type="line" smooth="yes"/>
			<point x="178" y="67"/>
			<point x="165" y="43"/>
			<point x="165" y="7" type="curve" smooth="yes"/>
			<point x="165" y="-33"/>
			<point x="196" y="-59"/>
		</contour>
	</outline>
</glyph>
<glyph name="Dje-cy" format="2">
	<unicode hex="0402"/>
	<advance width="770"/>
	<outline>
		<contour>
			<point x="150" y="46" type="line"/>
			<point x="144" y="0" type="line"/>
			<point x="422" y="0" type="line"/>
			<point x="424" y="47" type="line"/>
			<point x="329" y="58" type="line"/>
			<point x="343" y="314" type="line"/>
			<point x="389" y="345"/>
			<point x="449" y="365"/>
			<point x="498" y="365" type="curve" smooth="yes"/>
			<point x="586" y="365"/>
			<point x="639" y="307"/>
			<point x="639" y="210" type="curve" smooth="yes"/>
			<point x="639" y="101"/>
			<point x="591" y="11"/>
			<point x="491" y="-68" type="curve"/>
			<point x="519" y="-106" type="line"/>
			<point x="649" y="-35"/>
			<point x="731" y="92"/>
			<point x="731" y="223" type="curve" smooth="yes"/>
			<point x="731" y="348"/>
			<point x="652" y="429"/>
			<point x="531" y="429" type="curve" smooth="yes"/>
			<point x="470" y="429"/>
			<point x="407" y="410"/>
			<point x="344" y="373" type="curve"/>
			<point x="355" y="643" type="line"/>
			<point x="464" y="643" type="line" smooth="yes"/>
			<point x="519" y="643"/>
			<point x="537" y="627"/>
			<point x="559" y="562" type="curve" smooth="yes"/>
			<point x="572" y="523" type="line"/>
			<point x="626" y="533" type="line"/>
			<point x="612" y="700" type="line"/>
			<point x="59" y="700" type="line"/>
			<point x="35" y="534" type="line"/>
			<point x="91" y="523" type="line"/>
			<point x="104" y="562" type="line" smooth="yes"/>
			<point x="126" y="630"/>
			<point x="142" y="643"/>
			<point x="202" y="643" type="curve" smooth="yes"/>
			<point x="270" y="643" type="line"/>
			<point x="245" y="59" type="line"/>
		</contour>
	</outline>
</glyph>
<glyph name="Dzhe-cy" format="2">
	<unicode hex="040F"/>
	<advance width="757"/>
	<outline>
		<contour>
			<point x="360" y="-155" type="line"/>
			<point x="411" y="-155" type="line"/>
			<point x="444" y="0" type="line"/>
			<point x="718" y="0" type="line"/>
			<point x="724" y="46" type="line"/>
			<point x="629" y="59" type="line"/>
			<point x="651" y="641" type="line"/>
			<point x="733" y="654" type="line"/>
			<point x="739" y="700" type="line"/>
			<point x="474" y="700" type="line"/>
			<point x="468" y="654" type="line"/>
			<point x="563" y="641" type="line"/>
			<point x="541" y="60" type="line"/>
			<point x="227" y="60" type="line"/>
			<point x="251" y="641" type="line"/>
			<point x="333" y="654" type="line"/>
			<point x="339" y="700" type="line"/>
			<point x="74" y="700" type="line"/>
			<point x="68" y="654" type="line"/>
			<point x="163" y="641" type="line"/>
			<point x="141" y="63" type="line"/>
			<point x="56" y="46" type="line"/>
			<point x="50" y="0" type="line"/>
			<point x="342" y="0" type="line"/>
		</contour>
	</outline>
</glyph>
<glyph name="Be-cy" format="2">
	<unicode hex="0411"/>
	<advance width="621"/>
	<outline>
		<contour>
			<point x="57" y="44" type="line"/>
			<point x="52" y="0" type="line"/>
			<point x="286" y="0" type="line" smooth="yes"/>
			<point x="483" y="0"/>
			<point x="592" y="82"/>
			<point x="592" y="230" type="curve" smooth="yes"/>
			<point x="592" y="329"/>
			<point x="513" y="399"/>
			<point x="402" y="399" type="curve" smooth="yes"/>
			<point x="369" y="399"/>
			<point x="351" y="398"/>
			<point x="283" y="390" type="curve"/>
			<point x="281" y="340" type="line"/>
			<point x="305" y="345"/>
			<point x="325" y="347"/>
			<point x="350" y="347" type="curve" smooth="yes"/>
			<point x="449" y="347"/>
			<point x="495" y="305"/>
			<point x="495" y="215" type="curve" smooth="yes"/>
			<point x="495" y="109"/>
			<point x="427" y="54"/>
			<point x="298" y="54" type="curve" smooth="yes"/>
			<point x="234" y="54" type="line"/>
			<point x="257" y="643" type="line"/>
			<point x="381" y="643" type="line" smooth="yes"/>
			<point x="436" y="643"/>
			<point x="454" y="627"/>
			<point x="476" y="562" type="curve" smooth="yes"/>
			<point x="489" y="523" type="line"/>
			<point x="543" y="533" type="line"/>
			<point x="529" y="700" type="line"/>
			<point x="90" y="700" type="line"/>
			<point x="84" y="654" type="line"/>
			<point x="171" y="637" type="line"/>
			<point x="146" y="60" type="line"/>
		</contour>
	</outline>
</glyph>
<glyph name="Ge-cy" format="2">
	<unicode hex="0413"/>
	<advance width="561"/>
	<outline>
		<contour>
			<point x="58" y="46" type="line"/>
			<point x="52" y="0" type="line"/>
			<point x="347" y="0" type="line"/>
			<point x="353" y="46" type="line"/>
			<point x="224" y="58" type="line"/>
			<point x="250" y="643" type="line"/>
			<point x="374" y="643" type="line" smooth="yes"/>
			<point x="429" y="643"/>
			<point x="447" y="627"/>
			<point x="469" y="562" type="curve" smooth="yes"/>
			<point x="482" y="523" type="line"/>
			<point x="536" y="533" type="line"/>
			<point x="522" y="700" type="line"/>
			<point x="83" y="700" type="line"/>
			<point x="77" y="654" type="line"/>
			<point x="163" y="637" type="line"/>
			<point x="140" y="59" type="line"/>
		</contour>
	</outline>
	<anchor name="top" x="322" y="730"/>
</glyph>
<glyph name="Ka-cy" format="2">
	<unicode hex="041A"/>
	<advance width="703"/>
	<outline>
		<contour>
			<point x="269" y="397" type="curve"/>
			<point x="267" y="347" type="line"/>
			<point x="332" y="347"/>
			<point x="384" y="323"/>
			<point x="416" y="243" type="curve" smooth="yes"/>
			<point x="438" y="188"/>
			<point x="459" y="134"/>
			<point x="473" y="99" type="curve" smooth="yes"/>
			<point x="505" y="16"/>
			<point x="535" y="-14"/>
			<point x="592" y="-14" type="curve" smooth="yes"/>
			<point x="638" y="-14"/>
			<point x="679" y="12"/>
			<point x="706" y="38" type="curve"/>
			<point x="686" y="73" type="line"/>
			<point x="666" y="60"/>
			<point x="647" y="49"/>
			<point x="626" y="49" type="curve" smooth="yes"/>
			<point x="601" y="49"/>
			<point x="588" y="69"/>
			<point x="564" y="126" type="curve" smooth="yes"/>
			<point x="548" y="165"/>
			<point x="525" y="220"/>
			<point x="493" y="293" type="curve" smooth="yes"/>
			<point x="473" y="339"/>
			<point x="440" y="369"/>
			<point x="358" y="375" type="curve"/>
			<point x="358" y="379" type="line"/>
			<point x="419" y="406"/>
			<point x="444" y="450"/>
			<point x="479" y="525" type="curve" smooth="yes"/>
			<point x="510" y="592"/>
			<point x="524" y="613"/>
			<point x="544" y="613" type="curve" smooth="yes"/>
			<point x="553" y="613"/>
			<point x="558" y="610"/>
			<point x="564" y="605" type="curve" smooth="yes"/>
			<point x="597" y="575" type="line"/>
			<point x="628" y="588"/>
			<point x="644" y="617"/>
			<point x="644" y="643" type="curve" smooth="yes"/>
			<point x="644" y="684"/>
			<point x="616" y="707"/>
			<point x="573" y="707" type="curve" smooth="yes"/>
			<point x="500" y="707"/>
			<point x="478" y="646"/>
			<point x="436" y="552" type="curve" smooth="yes"/>
			<point x="394" y="458"/>
			<point x="355" y="407"/>
		</contour>
		<contour>
			<point x="166" y="637" type="line"/>
			<point x="141" y="59" type="line"/>
			<point x="59" y="46" type="line"/>
			<point x="53" y="0" type="line"/>
			<point x="318" y="0" type="line"/>
			<point x="324" y="46" type="line"/>
			<point x="229" y="59" type="line"/>
			<point x="251" y="637" type="line"/>
			<point x="336" y="654" type="line"/>
			<point x="342" y="700" type="line"/>
			<point x="86" y="700" type="line"/>
			<point x="80" y="654" type="line"/>
		</contour>
	</outline>
	<anchor name="top" x="396" y="730"/>
</glyph>
<glyph name="El-cy" format="2">
	<unicode hex="041B"/>
	<advance width="720"/>
	<outline>
		<contour>
			<point x="525" y="640" type="line"/>
			<point x="501" y="59" type="line"/>
			<point x="419" y="46" type="line"/>
			<point x="413" y="0" type="line"/>
			<point x="678" y="0" type="line"/>
			<point x="684" y="46" type="line"/>
			<point x="589" y="59" type="line"/>
			<point x="611" y="637" type="line"/>
			<point x="696" y="654" type="line"/>
			<point x="702" y="700" type="line"/>
			<point x="187" y="700" type="line"/>
			<point x="181" y="654" type="line"/>
			<point x="267" y="637" type="line"/>
			<point x="252" y="361"/>
			<point x="198" y="79"/>
			<point x="134" y="77" type="curve"/>
			<point x="83" y="132" type="line"/>
			<point x="41" y="123"/>
			<point x="18" y="101"/>
			<point x="18" y="62" type="curve" smooth="yes"/>
			<point x="18" y="27"/>
			<point x="44" y="-12"/>
			<point x="101" y="-12" type="curve" smooth="yes"/>
			<point x="227" y="-12"/>
			<point x="299" y="170"/>
			<point x="335" y="640" type="curve"/>
		</contour>
	</outline>
</glyph>
<glyph name="U-cy" format="2">
	<unicode hex="0423"/>
	<advance width="634"/>
	<outline>
		<contour>
			<point x="355" y="250" type="line"/>
			<point x="194" y="640" type="line"/>
			<point x="277" y="653" type="line"/>
			<point x="283" y="700" type="line"/>
			<point x="30" y="700" type="line"/>
			<point x="23" y="653" type="line"/>
			<point x="100" y="638" type="line"/>
			<point x="306" y="158" type="line"/>
			<point x="272" y="95"/>
			<point x="242" y="64"/>
			<point x="213" y="64" type="curve" smooth="yes"/>
			<point x="201" y="64"/>
			<point x="194" y="66"/>
			<point x="187" y="68" type="curve"/>
			<point x="159" y="135" type="line"/>
			<point x="109" y="133"/>
			<point x="82" y="105"/>
			<point x="82" y="62" type="curve" smooth="yes"/>
			<point x="82" y="31"/>
			<point x="106" y="-11"/>
			<point x="175" y="-11" type="curve" smooth="yes"/>
			<point x="277" y="-11"/>
			<point x="342" y="92"/>
			<point x="396" y="199" type="curve" smooth="yes"/>
			<point x="456" y="319"/>
			<point x="505" y="430"/>
			<point x="590" y="635" type="curve"/>
			<point x="670" y="652" type="line"/>
			<point x="677" y="700" type="line"/>
			<point x="440" y="700" type="line"/>
			<point x="434" y="656" type="line"/>
			<point x="521" y="638" type="line"/>
			<point x="453" y="457"/>
			<point x="406" y="343"/>
			<point x="359" y="250" type="curve"/>
		</contour>
	</outline>
	<anchor name="top" x="365" y="730"/>
</glyph>
<glyph name="Che-cy" format="2">
	<unicode hex="0427"/>
	<advance width="721"/>
	<outline>
		<contour>
			<point x="513" y="331" type="curve"/>
			<point x="502" y="59" type="line"/>
			<point x="420" y="46" type="line"/>
			<point x="414" y="0" type="line"/>
			<point x="679" y="0" type="line"/>
			<point x="685" y="46" type="line"/>
			<point x="590" y="59" type="line"/>
			<point x="612" y="637" type="line"/>
			<point x="697" y="654" type="line"/>
			<point x="703" y="700" type="line"/>
			<point x="446" y="700" type="line"/>
			<point x="440" y="654" type="line"/>
			<point x="526" y="637" type="line"/>
			<point x="515" y="391" type="line"/>
			<point x="435" y="334"/>
			<point x="384" y="314"/>
			<point x="328" y="314" type="curve" smooth="yes"/>
			<point x="236" y="314"/>
			<point x="204" y="371"/>
			<point x="208" y="459" type="curve" smooth="yes"/>
			<point x="211" y="518"/>
			<point x="214" y="578"/>
			<point x="216" y="637" type="curve"/>
			<point x="301" y="654" type="line"/>
			<point x="307" y="700" type="line"/>
			<point x="49" y="700" type="line"/>
			<point x="43" y="654" type="line"/>
			<point x="129" y="637" type="line"/>
			<point x="122" y="537"/>
			<point x="120" y="479"/>
			<point x="120" y="423" type="curve" smooth="yes"/>
			<point x="120" y="313"/>
			<point x="192" y="250"/>
			<point x="300" y="250" type="curve" smooth="yes"/>
			<point x="374" y="250"/>
			<point x="445" y="284"/>
		</contour>
	</outline>
</glyph>
<glyph name="Yeru-cy" format="2">
	<unicode hex="042B"/>
	<advance width="907"/>
	<outline>
		<contour>
			<point x="171" y="637" type="line"/>
			<point x="146" y="60" type="line"/>
			<point x="57" y="44" type="line"/>
			<point x="52" y="0" type="line"/>
			<point x="286" y="0" type="line" smooth="yes"/>
			<point x="496" y="0"/>
			<point x="582" y="91"/>
			<point x="582" y="223" type="curve" smooth="yes"/>
			<point x="582" y="301"/>
			<point x="523" y="399"/>
			<point x="397" y="399" type="curve" smooth="yes"/>
			<point x="344" y="399"/>
			<point x="335" y="398"/>
			<point x="283" y="390" type="curve"/>
			<point x="281" y="340" type="line"/>
			<point x="305" y="345"/>
			<point x="320" y="347"/>
			<point x="345" y="347" type="curve" smooth="yes"/>
			<point x="441" y="347"/>
			<point x="485" y="298"/>
			<point x="485" y="215" type="curve" smooth="yes"/>
			<point x="485" y="122"/>
			<point x="443" y="54"/>
			<point x="298" y="54" type="curve" smooth="yes"/>
			<point x="234" y="54" type="line"/>
			<point x="257" y="637" type="line"/>
			<point x="342" y="654" type="line"/>
			<point x="348" y="700" type="line"/>
			<point x="92" y="700" type="line"/>
			<point x="86" y="654" type="line"/>
		</contour>
		<contour>
			<point x="713" y="637" type="line"/>
			<point x="688" y="59" type="line"/>
			<point x="606" y="46" type="line"/>
			<point x="600" y="0" type="line"/>
			<point x="865" y="0" type="line"/>
			<point x="871" y="46" type="line"/>
			<point x="776" y="59" type="line"/>
			<point x="798" y="637" type="line"/>
			<point x="883" y="654" type="line"/>
			<point x="889" y="700" type="line"/>
			<point x="633" y="700" type="line"/>
			<point x="627" y="654" type="line"/>
		</contour>
	</outline>
	<anchor name="top" x="489" y="730"/>
</glyph>
<glyph name="Ia-cy" format="2">
	<unicode hex="042F"/>
	<advance width="707"/>
	<outline>
		<contour>
			<point x="506" y="646" type="line"/>
			<point x="481" y="59" type="line"/>
			<point x="399" y="46" type="line"/>
			<point x="393" y="0" type="line"/>
			<point x="658" y="0" type="line"/>
			<point x="664" y="46" type="line"/>
			<point x="569" y="59" type="line"/>
			<point x="594" y="640" type="line"/>
			<point x="683" y="656" type="line"/>
			<point x="688" y="700" type="line"/>
			<point x="454" y="700" type="line" smooth="yes"/>
			<point x="250" y="700"/>
			<point x="161" y="616"/>
			<point x="161" y="495" type="curve" smooth="yes"/>
			<point x="161" y="406"/>
			<point x="207" y="332"/>
			<point x="336" y="316" type="curve"/>
			<point x="336" y="311" type="line"/>
			<point x="259" y="285"/>
			<point x="241" y="270"/>
			<point x="200" y="195" type="curve" smooth="yes"/>
			<point x="135" y="77"/>
			<point x="119" y="53"/>
			<point x="91" y="53" type="curve" smooth="yes"/>
			<point x="75" y="53"/>
			<point x="55" y="64"/>
			<point x="35" y="77" type="curve"/>
			<point x="9" y="42" type="line"/>
			<point x="45" y="2"/>
			<point x="81" y="-14"/>
			<point x="118" y="-14" type="curve" smooth="yes"/>
			<point x="186" y="-14"/>
			<point x="213" y="47"/>
			<point x="294" y="192" type="curve" smooth="yes"/>
			<point x="343" y="279"/>
			<point x="373" y="297"/>
			<point x="412" y="302" type="curve" smooth="yes"/>
			<point x="458" y="308" type="line"/>
			<point x="460" y="362" type="line"/>
			<point x="438" y="358"/>
			<point x="419" y="357"/>
			<point x="391" y="357" type="curve" smooth="yes"/>
			<point x="303" y="357"/>
			<point x="255" y="409"/>
			<point x="255" y="492" type="curve" smooth="yes"/>
			<point x="255" y="585"/>
			<point x="300" y="645"/>
			<point x="442" y="646" type="curve" smooth="yes"/>
		</contour>
	</outline>
	<anchor name="top" x="445" y="730"/>
</glyph>
<glyph name="be-cy" format="2">
	<unicode hex="0431"/>
	<advance width="521"/>
	<outline>
		<contour>
			<point x="222" y="-14" type="curve" smooth="yes"/>
			<point x="363" y="-14"/>
			<point x="473" y="105"/>
			<point x="473" y="313" type="curve" smooth="yes"/>
			<point x="473" y="445"/>
			<point x="427" y="521"/>
			<point x="324" y="521" type="curve" smooth="yes"/>
			<point x="251" y="521"/>
			<point x="181" y="479"/>
			<point x="149" y="370" type="curve" smooth="yes"/>
			<point x="115" y="254" type="line"/>
			<point x="107" y="256" type="line"/>
			<point x="125" y="438"/>
			<point x="142" y="532"/>
			<point x="214" y="585" type="curve" smooth="yes"/>
			<point x="241" y="605"/>
			<point x="271" y="615"/>
			<point x="395" y="627" type="curve" smooth="yes"/>
			<point x="448" y="632"/>
			<point x="472" y="667"/>
			<point x="484" y="768" type="curve"/>
			<point x="439" y="778" type="line"/>
			<point x="430" y="729"/>
			<point x="420" y="715"/>
			<point x="393" y="711" type="curve" smooth="yes"/>
			<point x="254" y="691"/>
			<point x="201" y="674"/>
			<point x="165" y="638" type="curve" smooth="yes"/>
			<point x="89" y="562"/>
			<point x="49" y="403"/>
			<point x="49" y="251" type="curve" smooth="yes"/>
			<point x="49" y="33"/>
			<point x="158" y="-14"/>
		</contour>
		<contour>
			<point x="311" y="451" type="curve" smooth="yes"/>
			<point x="381" y="451"/>
			<point x="383" y="362"/>
			<point x="383" y="306" type="curve" smooth="yes"/>
			<point x="383" y="158"/>
			<point x="314" y="48"/>
			<point x="235" y="48" type="curve" smooth="yes"/>
			<point x="177" y="48"/>
			<point x="147" y="140"/>
			<point x="151" y="205" type="curve"/>
			<point x="201" y="376"/>
			<point x="232" y="451"/>
		</contour>
	</outline>
</glyph>
<glyph name="de-cy" format="2">
	<unicode hex="0434"/>
	<advance width="520"/>
	<outline>
		<contour>
			<point x="135" y="716" type="curve"/>
			<point x="152" y="668" type="line"/>
			<point x="203" y="690"/>
			<point x="244" y="707"/>
			<point x="291" y="707" type="curve" smooth="yes"/>
			<point x="337" y="707"/>
			<point x="361" y="692"/>
			<point x="373" y="585" type="curve" smooth="yes"/>
			<point x="376" y="558"/>
			<point x="378" y="531"/>
			<point x="379" y="487" type="curve"/>
			<point x="354" y="505"/>
			<point x="310" y="521"/>
			<point x="270" y="521" type="curve" smooth="yes"/>
			<point x="129" y="521"/>
			<point x="48" y="414"/>
			<point x="48" y="216" type="curve" smooth="yes"/>
			<point x="48" y="61"/>
			<point x="123" y="-14"/>
			<point x="217" y="-14" type="curve" smooth="yes"/>
			<point x="410" y="-14"/>
			<point x="467" y="216"/>
			<point x="467" y="509" type="curve" smooth="yes"/>
			<point x="467" y="708"/>
			<point x="404" y="769"/>
			<point x="314" y="769" type="curve" smooth="yes"/>
			<point x="247" y="769"/>
			<point x="189" y="742"/>
		</contour>
		<contour>
			<point x="235" y="40" type="curve" smooth="yes"/>
			<point x="171" y="40"/>
			<point x="138" y="104"/>
			<point x="138" y="212" type="curve" smooth="yes"/>
			<point x="138" y="355"/>
			<point x="183" y="460"/>
			<point x="268" y="460" type="curve" smooth="yes"/>
			<point x="308" y="460"/>
			<point x="339" y="450"/>
			<point x="375" y="430" type="curve"/>
			<point x="375" y="414"/>
			<point x="373" y="385"/>
			<point x="369" y="345" type="curve" smooth="yes"/>
			<point x="349" y="153"/>
			<point x="310" y="40"/>
		</contour>
	</outline>
</glyph>
<glyph name="zhe-cy" format="2">
	<unicode hex="0436"/>
	<advance width="762"/>
	<outline>
		<contour>
			<point x="396" y="207" type="line"/>
			<point x="429" y="515" type="line"/>
			<point x="346" y="515" type="line"/>
			<point x="332" y="354" type="line"/>
			<point x="267" y="301" type="line"/>
			<point x="246" y="355"/>
			<point x="228" y="400"/>
			<point x="204" y="454" type="curve" smooth="yes"/>
			<point x="179" y="511"/>
			<point x="170" y="522"/>
			<point x="141" y="522" type="curve" smooth="yes"/>
			<point x="110" y="522"/>
			<point x="65" y="494"/>
			<point x="21" y="447" type="curve"/>
			<point x="50" y="413" type="line"/>
			<point x="80" y="439"/>
			<point x="90" y="445"/>
			<point x="103" y="445" type="curve" smooth="yes"/>
			<point x="116" y="445"/>
			<point x="124" y="435"/>
			<point x="137" y="404" type="curve" smooth="yes"/>
			<point x="160" y="351"/>
			<point x="182" y="297"/>
			<point x="199" y="251" type="curve"/>
			<point x="81" y="161"/>
			<point x="38" y="107"/>
			<point x="38" y="50" type="curve" smooth="yes"/>
			<point x="38" y="14"/>
			<point x="66" y="-14"/>
			<point x="102" y="-14" type="curve" smooth="yes"/>
			<point x="143" y="-14"/>
			<point x="172" y="13"/>
			<point x="175" y="52" type="curve"/>
			<point x="147" y="68" type="line" smooth="yes"/>
			<point x="135" y="75"/>
			<point x="130" y="83"/>
			<point x="130" y="95" type="curve" smooth="yes"/>
			<point x="130" y="123"/>
			<point x="164" y="156"/>
			<point x="326" y="287" type="curve"/>
			<point x="309" y="0" type="line"/>
			<point x="391" y="0" type="line"/>
			<point x="398" y="99" type="line"/>
			<point x="412" y="126"/>
			<point x="437" y="170"/>
			<point x="474" y="233" type="curve"/>
			<point x="508" y="175"/>
			<point x="551" y="93"/>
			<point x="579" y="46" type="curve" smooth="yes"/>
			<point x="609" y="-4"/>
			<point x="620" y="-13"/>
			<point x="648" y="-13" type="curve" smooth="yes"/>
			<point x="677" y="-13"/>
			<point x="720" y="19"/>
			<point x="757" y="68" type="curve"/>
			<point x="728" y="102" type="line"/>
			<point x="705" y="78"/>
			<point x="694" y="70"/>
			<point x="681" y="70" type="curve" smooth="yes"/>
			<point x="662" y="70"/>
			<point x="657" y="79"/>
			<point x="617" y="147" type="curve" smooth="yes"/>
			<point x="590" y="193"/>
			<point x="549" y="262"/>
			<point x="522" y="306" type="curve"/>
			<point x="551" y="356"/>
			<point x="566" y="380"/>
			<point x="581" y="397" type="curve" smooth="yes"/>
			<point x="612" y="434"/>
			<point x="632" y="440"/>
			<point x="649" y="417" type="curve" smooth="yes"/>
			<point x="668" y="391" type="line"/>
			<point x="702" y="402"/>
			<point x="721" y="428"/>
			<point x="721" y="463" type="curve" smooth="yes"/>
			<point x="721" y="496"/>
			<point x="695" y="522"/>
			<point x="661" y="522" type="curve" smooth="yes"/>
			<point x="615" y="522"/>
			<point x="583" y="499"/>
			<point x="539" y="435" type="curve" smooth="yes"/>
			<point x="506" y="386"/>
			<point x="468" y="321"/>
			<point x="406" y="206" type="curve"/>
		</contour>
	</outline>
</glyph>
<glyph name="ze-cy" format="2">
	<unicode hex="0437"/>
	<advance width="452"/>
	<outline>
		<contour>
			<point x="192" y="-14" type="curve" smooth="yes"/>
			<point x="337" y="-14"/>
			<point x="414" y="77"/>
			<point x="414" y="162" type="curve" smooth="yes"/>
			<point x="414" y="235"/>
			<point x="373" y="284"/>
			<point x="258" y="272" type="curve"/>
			<point x="258" y="283" type="line"/>
			<point x="325" y="296"/>
			<point x="397" y="337"/>
			<point x="397" y="414" type="curve" smooth="yes"/>
			<point x="397" y="471"/>
			<point x="362" y="521"/>
			<point x="262" y="521" type="curve" smooth="yes"/>
			<point x="183" y="521"/>
			<point x="111" y="492"/>
			<point x="67" y="407" type="curve"/>
			<point x="110" y="380" type="line"/>
			<point x="138" y="438"/>
			<point x="197" y="460"/>
			<point x="234" y="460" type="curve" smooth="yes"/>
			<point x="271" y="460"/>
			<point x="308" y="444"/>
			<point x="308" y="402" type="curve" smooth="yes"/>
			<point x="308" y="349"/>
			<point x="262" y="307"/>
			<point x="167" y="298" type="curve" smooth="yes"/>
			<point x="117" y="293" type="line"/>
			<point x="116" y="238" type="line"/>
			<point x="189" y="238" type="line" smooth="yes"/>
			<point x="247" y="238"/>
			<point x="324" y="230"/>
			<point x="324" y="155" type="curve" smooth="yes"/>
			<point x="324" y="95"/>
			<point x="278" y="37"/>
			<point x="212" y="37" type="curve" smooth="yes"/>
			<point x="162" y="37"/>
			<point x="130" y="55"/>
			<point x="136" y="88" type="curve" smooth="yes"/>
			<point x="146" y="143" type="line"/>
			<point x="130" y="149"/>
			<point x="114" y="152"/>
			<point x="101" y="152" type="curve" smooth="yes"/>
			<point x="67" y="152"/>
			<point x="44" y="129"/>
			<point x="44" y="92" type="curve" smooth="yes"/>
			<point x="44" y="30"/>
			<point x="101" y="-14"/>
		</contour>
	</outline>
</glyph>
<glyph name="ef-cy" format="2">
	<unicode hex="0444"/>
	<advance width="814"/>
	<outline>
		<contour>
			<point x="446" y="360" type="line"/>
			<point x="464" y="756" type="line"/>
			<point x="448" y="767" type="line"/>
			<point x="292" y="767" type="line"/>
			<point x="286" y="719" type="line"/>
			<point x="379" y="698" type="line"/>
			<point x="371" y="496" type="line"/>
			<point x="343" y="511"/>
			<point x="299" y="521"/>
			<point x="265" y="521" type="curve" smooth="yes"/>
			<point x="133" y="521"/>
			<point x="49" y="398"/>
			<point x="49" y="206" type="curve" smooth="yes"/>
			<point x="49" y="68"/>
			<point x="104" y="-14"/>
			<point x="195" y="-14" type="curve" smooth="yes"/>
			<point x="266" y="-14"/>
			<point x="312" y="28"/>
			<point x="356" y="131" type="curve"/>
			<point x="363" y="130" type="line"/>
			<point x="342" y="-215" type="line"/>
			<point x="358" y="-227" type="line"/>
			<point x="515" y="-224" type="line"/>
			<point x="520" y="-176" type="line"/>
			<point x="427" y="-166" type="line"/>
			<point x="435" y="13" type="line"/>
			<point x="468" y="-5"/>
			<point x="506" y="-14"/>
			<point x="543" y="-14" type="curve" smooth="yes"/>
			<point x="678" y="-14"/>
			<point x="766" y="113"/>
			<point x="766" y="308" type="curve" smooth="yes"/>
			<point x="766" y="448"/>
			<point x="717" y="521"/>
			<point x="623" y="521" type="curve" smooth="yes"/>
			<point x="542" y="521"/>
			<point x="487" y="468"/>
			<point x="454" y="358" type="curve"/>
		</contour>
		<contour>
			<point x="218" y="54" type="curve" smooth="yes"/>
			<point x="170" y="54"/>
			<point x="136" y="119"/>
			<point x="136" y="211" type="curve" smooth="yes"/>
			<point x="136" y="364"/>
			<point x="189" y="460"/>
			<point x="273" y="460" type="curve" smooth="yes"/>
			<point x="304" y="460"/>
			<point x="348" y="450"/>
			<point x="371" y="437" type="curve"/>
			<point x="358" y="254" type="line"/>
			<point x="315" y="117"/>
			<point x="271" y="54"/>
		</contour>
		<contour>
			<point x="605" y="451" type="curve" smooth="yes"/>
			<point x="654" y="451"/>
			<point x="679" y="403"/>
			<point x="679" y="307" type="curve" smooth="yes"/>
			<point x="679" y="148"/>
			<point x="624" y="48"/>
			<point x="536" y="48" type="curve" smooth="yes"/>
			<point x="504" y="48"/>
			<point x="474" y="55"/>
			<point x="439" y="71" type="curve"/>
			<point x="452" y="233" type="line"/>
			<point x="500" y="391"/>
			<point x="542" y="451"/>
		</contour>
	</outline>
</glyph>
<glyph name="che-cy" format="2">
	<unicode hex="0447"/>
	<advance width="536"/>
	<outline>
		<contour>
			<point x="2" y="472" type="curve"/>
			<point x="25" y="436" type="line"/>
			<point x="42" y="450"/>
			<point x="65" y="460"/>
			<point x="81" y="460" type="curve" smooth="yes"/>
			<point x="102" y="460"/>
			<point x="109" y="448"/>
			<point x="104" y="417" type="curve" smooth="yes"/>
			<point x="90" y="332"/>
			<point x="84" y="281"/>
			<point x="84" y="246" type="curve" smooth="yes"/>
			<point x="84" y="183"/>
			<point x="120" y="147"/>
			<point x="185" y="147" type="curve" smooth="yes"/>
			<point x="256" y="147"/>
			<point x="304" y="207"/>
			<point x="362" y="367" type="curve"/>
			<point x="370" y="366" type="line"/>
			<point x="330" y="88" type="line" smooth="yes"/>
			<point x="321" y="22"/>
			<point x="346" y="-14"/>
			<point x="403" y="-14" type="curve" smooth="yes"/>
			<point x="429" y="-14"/>
			<point x="471" y="1"/>
			<point x="515" y="26" type="curve"/>
			<point x="496" y="74" type="line"/>
			<point x="476" y="61"/>
			<point x="456" y="53"/>
			<point x="441" y="53" type="curve" smooth="yes"/>
			<point x="420" y="53"/>
			<point x="412" y="65"/>
			<point x="415" y="93" type="curve" smooth="yes"/>
			<point x="462" y="508" type="line"/>
			<point x="380" y="508" type="line"/>
			<point x="279" y="264"/>
			<point x="253" y="221"/>
			<point x="206" y="221" type="curve" smooth="yes"/>
			<point x="181" y="221"/>
			<point x="169" y="234"/>
			<point x="169" y="259" type="curve" smooth="yes"/>
			<point x="169" y="302"/>
			<point x="192" y="426"/>
			<point x="192" y="453" type="curve" smooth="yes"/>
			<point x="192" y="498"/>
			<point x="167" y="521"/>
			<point x="118" y="521" type="curve" smooth="yes"/>
			<point x="84" y="521"/>
			<point x="31" y="499"/>
		</contour>
	</outline>
</glyph>
<glyph name="iu-cy" format="2">
	<unicode hex="044E"/>
	<advance width="769"/>
	<outline>
		<contour>
			<point x="487" y="-14" type="curve" smooth="yes"/>
			<point x="642" y="-14"/>
			<point x="721" y="124"/>
			<point x="721" y="276" type="curve" smooth="yes"/>
			<point x="721" y="425"/>
			<point x="658" y="521"/>
			<point x="526" y="521" type="curve" smooth="yes"/>
			<point x="387" y="521"/>
			<point x="316" y="413"/>
			<point x="299" y="294" type="curve"/>
			<point x="184" y="294" type="line"/>
			<point x="187" y="336"/>
			<point x="190" y="377"/>
			<point x="194" y="419" type="curve" smooth="yes"/>
			<point x="200" y="486"/>
			<point x="181" y="521"/>
			<point x="124" y="521" type="curve" smooth="yes"/>
			<point x="84" y="521"/>
			<point x="30" y="500"/>
			<point x="9" y="488" type="curve"/>
			<point x="26" y="438" type="line"/>
			<point x="53" y="450"/>
			<point x="72" y="456"/>
			<point x="85" y="456" type="curve" smooth="yes"/>
			<point x="106" y="456"/>
			<point x="114" y="444"/>
			<point x="112" y="416" type="curve" smooth="yes"/>
			<point x="81" y="0" type="line"/>
			<point x="163" y="0" type="line"/>
			<point x="179" y="228" type="line"/>
			<point x="294" y="241" type="line"/>
			<point x="294" y="94"/>
			<point x="355" y="-14"/>
		</contour>
		<contour>
			<point x="493" y="45" type="curve" smooth="yes"/>
			<point x="422" y="45"/>
			<point x="389" y="118"/>
			<point x="389" y="229" type="curve" smooth="yes"/>
			<point x="389" y="350"/>
			<point x="421" y="463"/>
			<point x="518" y="463" type="curve" smooth="yes"/>
			<point x="599" y="463"/>
			<point x="627" y="386"/>
			<point x="627" y="277" type="curve" smooth="yes"/>
			<point x="627" y="151"/>
			<point x="585" y="45"/>
		</contour>
	</outline>
	<anchor name="top" x="530" y="550"/>
</glyph>
<glyph name="dje-cy" format="2">
	<unicode hex="0452"/>
	<advance width="559"/>
	<outline>
		<contour>
			<point x="98" y="579" type="line"/>
			<point x="77" y="0" type="line"/>
			<point x="159" y="0" type="line"/>
			<point x="276" y="330" type="line" smooth="yes"/>
			<point x="310" y="427"/>
			<point x="325" y="447"/>
			<point x="362" y="447" type="curve" smooth="yes"/>
			<point x="396" y="447"/>
			<point x="407" y="421"/>
			<point x="401" y="354" type="curve" smooth="yes"/>
			<point x="373" y="23" type="line" smooth="yes"/>
			<point x="370" y="-16"/>
			<point x="367" y="-47"/>
			<point x="363" y="-82" type="curve" smooth="yes"/>
			<point x="358" y="-129"/>
			<point x="333" y="-147"/>
			<point x="294" y="-131" type="curve" smooth="yes"/>
			<point x="253" y="-114" type="line"/>
			<point x="238" y="-130"/>
			<point x="230" y="-150"/>
			<point x="230" y="-171" type="curve" smooth="yes"/>
			<point x="230" y="-206"/>
			<point x="256" y="-229"/>
			<point x="296" y="-229" type="curve" smooth="yes"/>
			<point x="325" y="-229"/>
			<point x="353" y="-213"/>
			<point x="377" y="-184" type="curve" smooth="yes"/>
			<point x="418" y="-134"/>
			<point x="443" y="-49"/>
			<point x="458" y="71" type="curve" smooth="yes"/>
			<point x="470" y="170"/>
			<point x="487" y="353"/>
			<point x="487" y="387" type="curve" smooth="yes"/>
			<point x="487" y="483"/>
			<point x="457" y="521"/>
			<point x="383" y="521" type="curve" smooth="yes"/>
			<point x="310" y="521"/>
			<point x="268" y="479"/>
			<point x="230" y="367" type="curve" smooth="yes"/>
			<point x="157" y="150" type="line"/>
			<point x="150" y="152" type="line"/>
			<point x="174" y="409" type="line"/>
			<point x="181" y="579" type="line"/>
			<point x="346" y="579" type="line"/>
			<point x="351" y="636" type="line"/>
			<point x="183" y="636" type="line"/>
			<point x="188" y="756" type="line"/>
			<point x="172" y="767" type="line"/>
			<point x="16" y="767" type="line"/>
			<point x="10" y="719" type="line"/>
			<point x="103" y="698" type="line"/>
			<point x="100" y="636" type="line"/>
			<point x="11" y="636" type="line"/>
			<point x="7" y="579" type="line"/>
		</contour>
	</outline>
</glyph>
<glyph name="e-cy" format="2">
	<unicode hex="0454"/>
	<advance width="487"/>
	<outline>
		<contour>
			<point x="292" y="521" type="curve" smooth="yes"/>
			<point x="147" y="521"/>
			<point x="48" y="401"/>
			<point x="48" y="225" type="curve" smooth="yes"/>
			<point x="48" y="79"/>
			<point x="124" y="-14"/>
			<point x="244" y="-14" type="curve" smooth="yes"/>
			<point x="315" y="-14"/>
			<point x="383" y="25"/>
			<point x="435" y="93" type="curve"/>
			<point x="400" y="129" type="line"/>
			<point x="353" y="77"/>
			<point x="307" y="52"/>
			<point x="262" y="52" type="curve" smooth="yes"/>
			<point x="188" y="52"/>
			<point x="140" y="119"/>
			<point x="139" y="225" type="curve"/>
			<point x="356" y="225" type="line"/>
			<point x="361" y="288" type="line"/>
			<point x="141" y="279" type="line"/>
			<point x="152" y="400"/>
			<point x="204" y="465"/>
			<point x="290" y="465" type="curve" smooth="yes"/>
			<point x="352" y="465"/>
			<point x="375" y="434"/>
			<point x="342" y="396" type="curve" smooth="yes"/>
			<point x="321" y="372" type="line"/>
			<point x="332" y="346"/>
			<point x="357" y="330"/>
			<point x="383" y="330" type="curve" smooth="yes"/>
			<point x="420" y="330"/>
			<point x="444" y="355"/>
			<point x="444" y="394" type="curve" smooth="yes"/>
			<point x="444" y="470"/>
			<point x="383" y="521"/>
		</contour>
	</outline>
</glyph>
<glyph name="nje-cy" format="2">
	<unicode hex="045A"/>
	<advance width="734"/>
	<outline>
		<contour>
			<point x="475" y="507" type="line"/>
			<point x="392" y="507" type="line"/>
			<point x="375" y="294" type="line"/>
			<point x="186" y="294" type="line"/>
			<point x="189" y="336"/>
			<point x="192" y="377"/>
			<point x="196" y="419" type="curve" smooth="yes"/>
			<point x="202" y="490"/>
			<point x="180" y="521"/>
			<point x="126" y="521" type="curve" smooth="yes"/>
			<point x="95" y="521"/>
			<point x="41" y="506"/>
			<point x="11" y="488" type="curve"/>
			<point x="28" y="438" type="line"/>
			<point x="54" y="450"/>
			<point x="74" y="456"/>
			<point x="87" y="456" type="curve" smooth="yes"/>
			<point x="108" y="456"/>
			<point x="116" y="444"/>
			<point x="114" y="416" type="curve" smooth="yes"/>
			<point x="83" y="0" type="line"/>
			<point x="165" y="0" type="line"/>
			<point x="182" y="228" type="line"/>
			<point x="370" y="240" type="line"/>
			<point x="367" y="208"/>
			<point x="365" y="166"/>
			<point x="365" y="132" type="curve" smooth="yes"/>
			<point x="365" y="40"/>
			<point x="414" y="-14"/>
			<point x="497" y="-14" type="curve" smooth="yes"/>
			<point x="611" y="-14"/>
			<point x="703" y="81"/>
			<point x="703" y="200" type="curve" smooth="yes"/>
			<point x="703" y="282"/>
			<point x="666" y="322"/>
			<point x="592" y="322" type="curve" smooth="yes"/>
			<point x="566" y="322"/>
			<point x="524" y="311"/>
			<point x="455" y="286" type="curve"/>
		</contour>
		<contour>
			<point x="451" y="237" type="curve"/>
			<point x="507" y="259"/>
			<point x="534" y="266"/>
			<point x="557" y="266" type="curve" smooth="yes"/>
			<point x="598" y="266"/>
			<point x="613" y="245"/>
			<point x="613" y="187" type="curve" smooth="yes"/>
			<point x="613" y="107"/>
			<point x="568" y="40"/>
			<point x="514" y="40" type="curve" smooth="yes"/>
			<point x="464" y="40"/>
			<point x="447" y="65"/>
			<point x="447" y="138" type="curve" smooth="yes"/>
			<point x="447" y="184"/>
			<point x="448" y="211"/>
		</contour>
	</outline>
</glyph>
<glyph name="tshe-cy" format="2">
	<unicode hex="045B"/>
	<advance width="587"/>
	<outline>
		<contour>
			<point x="353" y="579" type="line"/>
			<point x="358" y="636" type="line"/>
			<point x="190" y="636" type="line"/>
			<point x="195" y="756" type="line"/>
			<point x="179" y="767" type="line"/>
			<point x="23" y="767" type="line"/>
			<point x="17" y="719" type="line"/>
			<point x="110" y="698" type="line"/>
			<point x="107" y="636" type="line"/>
			<point x="18" y="636" type="line"/>
			<point x="14" y="579" type="line"/>
			<point x="105" y="579" type="line"/>
			<point x="84" y="0" type="line"/>
			<point x="166" y="0" type="line"/>
			<point x="283" y="330" type="line" smooth="yes"/>
			<point x="317" y="427"/>
			<point x="332" y="447"/>
			<point x="369" y="447" type="curve" smooth="yes"/>
			<point x="403" y="447"/>
			<point x="414" y="421"/>
			<point x="408" y="354" type="curve" smooth="yes"/>
			<point x="383" y="69" type="line" smooth="yes"/>
			<point x="378" y="14"/>
			<point x="403" y="-14"/>
			<point x="456" y="-14" type="curve" smooth="yes"/>
			<point x="490" y="-14"/>
			<point x="544" y="9"/>
			<point x="573" y="35" type="curve"/>
			<point x="550" y="71" type="line"/>
			<point x="533" y="56"/>
			<point x="511" y="47"/>
			<point x="494" y="47" type="curve" smooth="yes"/>
			<point x="473" y="47"/>
			<point x="468" y="57"/>
			<point x="471" y="90" type="curve" smooth="yes"/>
			<point x="493" y="348" type="line" smooth="yes"/>
			<point x="503" y="470"/>
			<point x="474" y="521"/>
			<point x="390" y="521" type="curve" smooth="yes"/>
			<point x="317" y="521"/>
			<point x="275" y="479"/>
			<point x="237" y="367" type="curve" smooth="yes"/>
			<point x="164" y="150" type="line"/>
			<point x="157" y="152" type="line"/>
			<point x="181" y="409" type="line"/>
			<point x="188" y="579" type="line"/>
		</contour>
	</outline>
</glyph>
<glyph name="Yat-cy" format="2">
	<unicode hex="0462"/>
	<advance width="716"/>
	<outline>
		<contour>
			<point x="262" y="556" type="line"/>
			<point x="241" y="60" type="line"/>
			<point x="152" y="44" type="line"/>
			<point x="147" y="0" type="line"/>
			<point x="381" y="0" type="line" smooth="yes"/>
			<point x="575" y="0"/>
			<point x="687" y="79"/>
			<point x="687" y="216" type="curve" smooth="yes"/>
			<point x="687" y="315"/>
			<point x="608" y="386"/>
			<point x="497" y="386" type="curve" smooth="yes"/>
			<point x="447" y="386"/>
			<point x="427" y="384"/>
			<point x="378" y="377" type="curve"/>
			<point x="376" y="327" type="line"/>
			<point x="400" y="332"/>
			<point x="420" y="334"/>
			<point x="445" y="334" type="curve" smooth="yes"/>
			<point x="544" y="334"/>
			<point x="590" y="292"/>
			<point x="590" y="202" type="curve" smooth="yes"/>
			<point x="590" y="106"/>
			<point x="521" y="54"/>
			<point x="393" y="54" type="curve" smooth="yes"/>
			<point x="329" y="54" type="line"/>
			<point x="348" y="556" type="line"/>
			<point x="436" y="556" type="line" smooth="yes"/>
			<point x="491" y="556"/>
			<point x="509" y="541"/>
			<point x="531" y="475" type="curve" smooth="yes"/>
			<point x="542" y="444" type="line"/>
			<point x="596" y="454" type="line"/>
			<point x="584" y="613" type="line"/>
			<point x="349" y="613" type="line"/>
			<point x="352" y="677" type="line"/>
			<point x="437" y="694" type="line"/>
			<point x="443" y="740" type="line"/>
			<point x="187" y="740" type="line"/>
			<point x="181" y="694" type="line"/>
			<point x="266" y="677" type="line"/>
			<point x="264" y="613" type="line"/>
			<point x="61" y="613" type="line"/>
			<point x="37" y="447" type="line"/>
			<point x="93" y="436" type="line"/>
			<point x="106" y="475" type="line" smooth="yes"/>
			<point x="128" y="543"/>
			<point x="144" y="556"/>
			<point x="204" y="556" type="curve" smooth="yes"/>
		</contour>
	</outline>
</glyph>
<glyph name="Yusbig-cy" format="2">
	<unicode hex="046A"/>
	<advance width="916"/>
	<outline>
		<contour>
			<point x="430" y="326" type="line"/>
			<point x="421" y="59" type="line"/>
			<point x="339" y="46" type="line"/>
			<point x="333" y="0" type="line"/>
			<point x="597" y="0" type="line"/>
			<point x="603" y="46" type="line"/>
			<point x="508" y="59" type="line"/>
			<point x="514" y="326" type="line"/>
			<point x="561" y="326" type="line" smooth="yes"/>
			<point x="610" y="326"/>
			<point x="637" y="304"/>
			<point x="659" y="243" type="curve" smooth="yes"/>
			<point x="669" y="215"/>
			<point x="681" y="181"/>
			<point x="694" y="141" type="curve" smooth="yes"/>
			<point x="731" y="26"/>
			<point x="771" y="-14"/>
			<point x="829" y="-14" type="curve" smooth="yes"/>
			<point x="865" y="-14"/>
			<point x="886" y="-4"/>
			<point x="920" y="29" type="curve"/>
			<point x="910" y="58" type="line"/>
			<point x="897" y="51"/>
			<point x="881" y="47"/>
			<point x="866" y="47" type="curve" smooth="yes"/>
			<point x="842" y="47"/>
			<point x="824" y="65"/>
			<point x="806" y="106" type="curve" smooth="yes"/>
			<point x="793" y="135"/>
			<point x="781" y="172"/>
			<point x="765" y="213" type="curve" smooth="yes"/>
			<point x="716" y="342"/>
			<point x="670" y="374"/>
			<point x="536" y="371" type="curve"/>
			<point x="727" y="643" type="line"/>
			<point x="802" y="655" type="line"/>
			<point x="804" y="700" type="line"/>
			<point x="176" y="700" type="line"/>
			<point x="174" y="653" type="line"/>
			<point x="249" y="640" type="line"/>
			<point x="417" y="369" type="line"/>
			<point x="283" y="371"/>
			<point x="220" y="334"/>
			<point x="166" y="199" type="curve" smooth="yes"/>
			<point x="122" y="90"/>
			<point x="95" y="52"/>
			<point x="60" y="52" type="curve" smooth="yes"/>
			<point x="47" y="52"/>
			<point x="30" y="56"/>
			<point x="16" y="63" type="curve"/>
			<point x="4" y="29" type="line"/>
			<point x="33" y="-2"/>
			<point x="58" y="-14"/>
			<point x="90" y="-14" type="curve" smooth="yes"/>
			<point x="172" y="-14"/>
			<point x="208" y="70"/>
			<point x="237" y="141" type="curve" smooth="yes"/>
			<point x="259" y="195"/>
			<point x="270" y="220"/>
			<point x="280" y="242" type="curve" smooth="yes"/>
			<point x="308" y="304"/>
			<point x="336" y="326"/>
			<point x="384" y="326" type="curve" smooth="yes"/>
		</contour>
		<contour>
			<point x="347" y="644" type="line"/>
			<point x="659" y="644" type="line"/>
			<point x="493" y="401" type="line"/>
			<point x="488" y="401" type="line"/>
		</contour>
	</outline>
</glyph>
<glyph name="Zhedescender-cy" format="2">
	<unicode hex="0496"/>
	<advance width="1020"/>
	<outline>
		<contour>
			<point x="470" y="347" type="curve"/>
			<point x="458" y="59" type="line"/>
			<point x="376" y="46" type="line"/>
			<point x="370" y="0" type="line"/>
			<point x="635" y="0" type="line"/>
			<point x="641" y="46" type="line"/>
			<point x="546" y="59" type="line"/>
			<point x="557" y="347" type="line"/>
			<point x="583" y="347"/>
			<point x="627" y="345"/>
			<point x="637" y="343" type="curve" smooth="yes"/>
			<point x="682" y="333"/>
			<point x="707" y="307"/>
			<point x="733" y="243" type="curve" smooth="yes"/>
			<point x="756" y="186"/>
			<point x="776" y="137"/>
			<point x="791" y="100" type="curve" smooth="yes"/>
			<point x="826" y="12"/>
			<point x="846" y="-11"/>
			<point x="887" y="-11" type="curve" smooth="yes"/>
			<point x="902" y="-11"/>
			<point x="914" y="-7"/>
			<point x="928" y="2" type="curve"/>
			<point x="938" y="-22"/>
			<point x="939" y="-41"/>
			<point x="932" y="-157" type="curve"/>
			<point x="988" y="-160" type="line"/>
			<point x="1023" y="58" type="line"/>
			<point x="990" y="75" type="line"/>
			<point x="968" y="58"/>
			<point x="956" y="53"/>
			<point x="940" y="53" type="curve" smooth="yes"/>
			<point x="917" y="53"/>
			<point x="904" y="65"/>
			<point x="886" y="112" type="curve" smooth="yes"/>
			<point x="866" y="165"/>
			<point x="839" y="227"/>
			<point x="809" y="294" type="curve" smooth="yes"/>
			<point x="786" y="345"/>
			<point x="740" y="372"/>
			<point x="675" y="375" type="curve"/>
			<point x="675" y="379" type="line"/>
			<point x="719" y="399"/>
			<point x="736" y="421"/>
			<point x="785" y="525" type="curve" smooth="yes"/>
			<point x="818" y="596"/>
			<point x="832" y="616"/>
			<point x="848" y="616" type="curve" smooth="yes"/>
			<point x="855" y="616"/>
			<point x="860" y="613"/>
			<point x="867" y="606" type="curve" smooth="yes"/>
			<point x="898" y="577" type="line"/>
			<point x="927" y="587"/>
			<point x="950" y="617"/>
			<point x="950" y="644" type="curve" smooth="yes"/>
			<point x="950" y="683"/>
			<point x="922" y="708"/>
			<point x="880" y="708" type="curve" smooth="yes"/>
			<point x="810" y="708"/>
			<point x="790" y="650"/>
			<point x="743" y="552" type="curve" smooth="yes"/>
			<point x="690" y="441"/>
			<point x="673" y="422"/>
			<point x="622" y="404" type="curve" smooth="yes"/>
			<point x="615" y="402"/>
			<point x="585" y="398"/>
			<point x="559" y="397" type="curve"/>
			<point x="568" y="637" type="line"/>
			<point x="653" y="654" type="line"/>
			<point x="659" y="700" type="line"/>
			<point x="403" y="700" type="line"/>
			<point x="397" y="654" type="line"/>
			<point x="483" y="637" type="line"/>
			<point x="472" y="398" type="line"/>
			<point x="456" y="398"/>
			<point x="432" y="400"/>
			<point x="425" y="402" type="curve" smooth="yes"/>
			<point x="362" y="418"/>
			<point x="324" y="461"/>
			<point x="292" y="552" type="curve" smooth="yes"/>
			<point x="248" y="679"/>
			<point x="227" y="707"/>
			<point x="171" y="707" type="curve" smooth="yes"/>
			<point x="129" y="707"/>
			<point x="100" y="681"/>
			<point x="100" y="643" type="curve" smooth="yes"/>
			<point x="100" y="621"/>
			<point x="113" y="598"/>
			<point x="133" y="584" type="curve"/>
			<point x="161" y="606" type="line" smooth="yes"/>
			<point x="168" y="611"/>
			<point x="176" y="614"/>
			<point x="183" y="614" type="curve" smooth="yes"/>
			<point x="202" y="614"/>
			<point x="217" y="592"/>
			<point x="245" y="521" type="curve" smooth="yes"/>
			<point x="280" y="434"/>
			<point x="302" y="407"/>
			<point x="359" y="379" type="curve"/>
			<point x="359" y="375" type="line"/>
			<point x="307" y="373"/>
			<point x="267" y="345"/>
			<point x="231" y="280" type="curve" smooth="yes"/>
			<point x="191" y="208"/>
			<point x="166" y="154"/>
			<point x="146" y="116" type="curve" smooth="yes"/>
			<point x="119" y="65"/>
			<point x="105" y="50"/>
			<point x="84" y="50" type="curve" smooth="yes"/>
			<point x="71" y="50"/>
			<point x="54" y="55"/>
			<point x="23" y="73" type="curve"/>
			<point x="3" y="38" type="line"/>
			<point x="33" y="9"/>
			<point x="77" y="-11"/>
			<point x="111" y="-11" type="curve" smooth="yes"/>
			<point x="181" y="-11"/>
			<point x="213" y="28"/>
			<point x="302" y="219" type="curve" smooth="yes"/>
			<point x="342" y="305"/>
			<point x="371" y="339"/>
			<point x="410" y="345" type="curve" smooth="yes"/>
			<point x="417" y="346"/>
			<point x="447" y="347"/>
		</contour>
	</outline>
</glyph>
<glyph name="Endescender-cy" format="2">
	<unicode hex="04A2"/>
	<advance width="776"/>
	<outline>
		<contour>
			<point x="52" y="0" type="line"/>
			<point x="317" y="0" type="line"/>
			<point x="323" y="46" type="line"/>
			<point x="228" y="59" type="line"/>
			<point x="238" y="328" type="line"/>
			<point x="552" y="328" type="line"/>
			<point x="541" y="59" type="line"/>
			<point x="459" y="46" type="line"/>
			<point x="453" y="0" type="line"/>
			<point x="623" y="0" type="line" smooth="yes"/>
			<point x="661" y="0"/>
			<point x="674" y="-24"/>
			<point x="674" y="-92" type="curve" smooth="yes"/>
			<point x="674" y="-157" type="line"/>
			<point x="730" y="-160" type="line"/>
			<point x="760" y="61" type="line"/>
			<point x="629" y="61" type="line"/>
			<point x="651" y="637" type="line"/>
			<point x="736" y="654" type="line"/>
			<point x="742" y="700" type="line"/>
			<point x="485" y="700" type="line"/>
			<point x="479" y="654" type="line"/>
			<point x="565" y="637" type="line"/>
			<point x="554" y="391" type="line"/>
			<point x="240" y="391" type="line"/>
			<point x="250" y="637" type="line"/>
			<point x="335" y="654" type="line"/>
			<point x="341" y="700" type="line"/>
			<point x="83" y="700" type="line"/>
			<point x="77" y="654" type="line"/>
			<point x="163" y="637" type="line"/>
			<point x="140" y="59" type="line"/>
			<point x="58" y="46" type="line"/>
		</contour>
	</outline>
</glyph>
<glyph name="Ustraitstroke-cy" format="2">
	<unicode hex="04B0"/>
	<advance width="661"/>
	<outline>
		<contour>
			<point x="24" y="700" type="line"/>
			<point x="17" y="653" type="line"/>
			<point x="94" y="638" type="line"/>
			<point x="298" y="259" type="line"/>
			<point x="296" y="210" type="line"/>
			<point x="205" y="210" type="line"/>
			<point x="195" y="153" type="line"/>
			<point x="292" y="153" type="line"/>
			<point x="287" y="59" type="line"/>
			<point x="205" y="46" type="line"/>
			<point x="199" y="0" type="line"/>
			<point x="464" y="0" type="line"/>
			<point x="470" y="46" type="line"/>
			<point x="375" y="59" type="line"/>
			<point x="379" y="153" type="line"/>
			<point x="483" y="153" type="line"/>
			<point x="486" y="210" type="line"/>
			<point x="381" y="210" type="line"/>
			<point x="383" y="261" type="line"/>
			<point x="601" y="635" type="line"/>
			<point x="681" y="652" type="line"/>
			<point x="688" y="700" type="line"/>
			<point x="451" y="700" type="line"/>
			<point x="445" y="656" type="line"/>
			<point x="532" y="638" type="line"/>
			<point x="359" y="327" type="line"/>
			<point x="355" y="327" type="line"/>
			<point x="193" y="640" type="line"/>
			<point x="276" y="653" type="line"/>
			<point x="282" y="700" type="line"/>
		</contour>
	</outline>
</glyph>
<glyph name="ustraitstroke-cy" format="2">
	<unicode hex="04B1"/>
	<advance width="528"/>
	<outline>
		<contour>
			<point x="113" y="-216" type="line"/>
			<point x="349" y="-216" type="line"/>
			<point x="353" y="-172" type="line"/>
			<point x="267" y="-157" type="line"/>
			<point x="276" y="-83" type="line"/>
			<point x="414" y="-83" type="line"/>
			<point x="418" y="-28" type="line"/>
			<point x="281" y="-28" type="line"/>
			<point x="283" y="-5" type="line"/>
			<point x="424" y="204"/>
			<point x="487" y="337"/>
			<point x="487" y="427" type="curve" smooth="yes"/>
			<point x="487" y="485"/>
			<point x="456" y="521"/>
			<point x="408" y="521" type="curve" smooth="yes"/>
			<point x="361" y="521"/>
			<point x="334" y="487"/>
			<point x="341" y="436" type="curve"/>
			<point x="378" y="425" type="line" smooth="yes"/>
			<point x="400" y="419"/>
			<point x="409" y="405"/>
			<point x="409" y="378" type="curve" smooth="yes"/>
			<point x="409" y="352"/>
			<point x="401" y="317"/>
			<point x="389" y="290" type="curve" smooth="yes"/>
			<point x="357" y="217"/>
			<point x="331" y="169"/>
			<point x="277" y="80" type="curve"/>
			<point x="273" y="80" type="line"/>
			<point x="262" y="130"/>
			<point x="246" y="189"/>
			<point x="178" y="435" type="curve" smooth="yes"/>
			<point x="160" y="502"/>
			<point x="142" y="521"/>
			<point x="99" y="521" type="curve" smooth="yes"/>
			<point x="67" y="521"/>
			<point x="19" y="507"/>
			<point x="-19" y="486" type="curve"/>
			<point x="-3" y="440" type="line"/>
			<point x="17" y="450"/>
			<point x="46" y="458"/>
			<point x="58" y="458" type="curve" smooth="yes"/>
			<point x="71" y="458"/>
			<point x="76" y="453"/>
			<point x="83" y="430" type="curve" smooth="yes"/>
			<point x="156" y="200"/>
			<point x="205" y="15"/>
			<point x="205" y="-28" type="curve"/>
			<point x="198" y="-28" type="line"/>
			<point x="82" y="-28" type="line"/>
			<point x="75" y="-83" type="line"/>
			<point x="200" y="-83" type="line"/>
			<point x="190" y="-157" type="line"/>
			<point x="117" y="-171" type="line"/>
		</contour>
	</outline>
</glyph>
